<?xml version="1.0" encoding="UTF-8" standalone="no"?>
<!-- Created with Inkscape (http://www.inkscape.org/) -->

<svg
   width="544"
   height="336"
   viewBox="0 0 143.93333 88.899998"
   version="1.1"
   id="svg7194"
   inkscape:version="1.2 (dc2aedaf03, 2022-05-15)"
   sodipodi:docname="tip_sample.svg"
   xml:space="preserve"
   xmlns:inkscape="http://www.inkscape.org/namespaces/inkscape"
   xmlns:sodipodi="http://sodipodi.sourceforge.net/DTD/sodipodi-0.dtd"
   xmlns:xlink="http://www.w3.org/1999/xlink"
   xmlns="http://www.w3.org/2000/svg"
   xmlns:svg="http://www.w3.org/2000/svg"><sodipodi:namedview
     id="namedview7196"
     pagecolor="#ffffff"
     bordercolor="#000000"
     borderopacity="0.25"
     inkscape:showpageshadow="2"
     inkscape:pageopacity="0.0"
     inkscape:pagecheckerboard="0"
     inkscape:deskcolor="#d1d1d1"
     inkscape:document-units="px"
     showgrid="false"
     inkscape:zoom="1.3261055"
     inkscape:cx="64.851552"
     inkscape:cy="59.195894"
     inkscape:window-width="2400"
     inkscape:window-height="1271"
     inkscape:window-x="-9"
     inkscape:window-y="-9"
     inkscape:window-maximized="1"
     inkscape:current-layer="layer1"><inkscape:grid
       type="xygrid"
       id="grid860" /></sodipodi:namedview><defs
     id="defs7191"><linearGradient
       inkscape:collect="always"
       id="linearGradient26246"><stop
         style="stop-color:#ffffbf;stop-opacity:1;"
         offset="0.42589289"
         id="stop26242" /><stop
         style="stop-color:#ffffbf;stop-opacity:0;"
         offset="1"
         id="stop26244" /></linearGradient><linearGradient
       inkscape:collect="always"
       id="linearGradient12922"><stop
         style="stop-color:#ffffbf;stop-opacity:1;"
         offset="0.52218628"
         id="stop12918" /><stop
         style="stop-color:#ffffbf;stop-opacity:0;"
         offset="1"
         id="stop12920" /></linearGradient><inkscape:path-effect
       effect="fillet_chamfer"
       id="path-effect6482"
       is_visible="true"
       lpeversion="1"
       nodesatellites_param="F,0,0,1,0,1.3229176,0,1 @ F,0,0,1,0,1.3229225,0,1 @ F,0,0,1,0,1.3229225,0,1 @ F,0,0,1,0,1.3229176,0,1"
       unit="px"
       method="auto"
       mode="F"
       radius="0"
       chamfer_steps="1"
       flexible="false"
       use_knot_distance="true"
       apply_no_radius="true"
       apply_with_radius="true"
       only_selected="false"
       hide_knots="false" /><inkscape:path-effect
       effect="fillet_chamfer"
       id="path-effect6478"
       is_visible="true"
       lpeversion="1"
       nodesatellites_param="F,0,0,1,0,0,0,1 @ F,0,0,1,0,5.9456015,0,1 @ F,0,0,1,0,0,0,1"
       unit="px"
       method="auto"
       mode="F"
       radius="0"
       chamfer_steps="1"
       flexible="false"
       use_knot_distance="true"
       apply_no_radius="true"
       apply_with_radius="true"
       only_selected="false"
       hide_knots="false" /><linearGradient
       inkscape:collect="always"
       id="linearGradient1699"><stop
         style="stop-color:#d53e4f;stop-opacity:1;"
         offset="0"
         id="stop1695" /><stop
         style="stop-color:#9e0142;stop-opacity:1;"
         offset="1"
         id="stop1697" /></linearGradient><inkscape:path-effect
       effect="mirror_symmetry"
       start_point="0,59.27"
       end_point="1,59.267"
       center_point="74.537664,47.349874"
       id="path-effect16745"
       is_visible="true"
       lpeversion="1.2"
       lpesatellites=""
       mode="free"
       discard_orig_path="false"
       fuse_paths="false"
       oposite_fuse="false"
       split_items="false"
       split_open="false"
       link_styles="false" /><inkscape:path-effect
       effect="mirror_symmetry"
       start_point="0,59.27"
       end_point="1,59.267"
       center_point="74.537664,47.349874"
       id="path-effect16739"
       is_visible="true"
       lpeversion="1.2"
       lpesatellites=""
       mode="free"
       discard_orig_path="false"
       fuse_paths="false"
       oposite_fuse="false"
       split_items="false"
       split_open="false"
       link_styles="false" /><inkscape:path-effect
       effect="mirror_symmetry"
       start_point="0,59.27"
       end_point="1,59.267"
       center_point="74.537664,47.349874"
       id="path-effect16729"
       is_visible="true"
       lpeversion="1.2"
       lpesatellites=""
       mode="free"
       discard_orig_path="false"
       fuse_paths="false"
       oposite_fuse="false"
       split_items="false"
       split_open="false"
       link_styles="false" /><inkscape:path-effect
       effect="mirror_symmetry"
       start_point="0,0"
       end_point="100,88.899994"
       center_point="143.93334,45.772914"
       id="path-effect16719"
       is_visible="true"
       lpeversion="1.2"
       lpesatellites=""
       mode="free"
       discard_orig_path="false"
       fuse_paths="false"
       oposite_fuse="false"
       split_items="false"
       split_open="false"
       link_styles="false" /><linearGradient
       inkscape:collect="always"
       id="linearGradient12801"><stop
         style="stop-color:#808080;stop-opacity:1;"
         offset="0"
         id="stop12797" /><stop
         style="stop-color:#808080;stop-opacity:1"
         offset="1"
         id="stop12799" /></linearGradient><linearGradient
       inkscape:collect="always"
       id="linearGradient12793"><stop
         style="stop-color:#999999;stop-opacity:1;"
         offset="0"
         id="stop12789" /><stop
         style="stop-color:#666666;stop-opacity:1"
         offset="1"
         id="stop12791" /></linearGradient><linearGradient
       inkscape:collect="always"
       id="linearGradient12661"><stop
         style="stop-color:#b3b3b3;stop-opacity:1"
         offset="0"
         id="stop12657" /><stop
         style="stop-color:#999999;stop-opacity:1"
         offset="1"
         id="stop12659" /></linearGradient><linearGradient
       inkscape:collect="always"
       id="linearGradient12197"><stop
         style="stop-color:#999999;stop-opacity:1"
         offset="0"
         id="stop12193" /><stop
         style="stop-color:#cccccc;stop-opacity:1;"
         offset="1"
         id="stop12195" /></linearGradient><inkscape:path-effect
       effect="fillet_chamfer"
       id="path-effect7717"
       is_visible="true"
       lpeversion="1"
       nodesatellites_param="F,0,0,1,0,1.3229176,0,1 @ F,0,0,1,0,1.3229225,0,1 @ F,0,0,1,0,1.3229225,0,1 @ F,0,0,1,0,1.3229176,0,1"
       unit="px"
       method="auto"
       mode="F"
       radius="0"
       chamfer_steps="1"
       flexible="false"
       use_knot_distance="true"
       apply_no_radius="true"
       apply_with_radius="true"
       only_selected="false"
       hide_knots="false" /><inkscape:path-effect
       effect="fillet_chamfer"
       id="path-effect7713"
       is_visible="true"
       lpeversion="1"
       nodesatellites_param="F,0,0,1,0,1.3229176,0,1 @ F,0,0,1,0,1.3229225,0,1 @ F,0,0,1,0,1.3229225,0,1 @ F,0,0,1,0,1.3229176,0,1"
       unit="px"
       method="auto"
       mode="F"
       radius="0"
       chamfer_steps="1"
       flexible="false"
       use_knot_distance="true"
       apply_no_radius="true"
       apply_with_radius="true"
       only_selected="false"
       hide_knots="false" /><inkscape:path-effect
       effect="fillet_chamfer"
       id="path-effect7709"
       is_visible="true"
       lpeversion="1"
       nodesatellites_param="F,0,0,1,0,0,0,1 @ F,0,0,1,0,5.9456015,0,1 @ F,0,0,1,0,0,0,1"
       unit="px"
       method="auto"
       mode="F"
       radius="0"
       chamfer_steps="1"
       flexible="false"
       use_knot_distance="true"
       apply_no_radius="true"
       apply_with_radius="true"
       only_selected="false"
       hide_knots="false" /><inkscape:path-effect
       effect="fillet_chamfer"
       id="path-effect7697"
       is_visible="true"
       lpeversion="1"
       nodesatellites_param="F,0,0,1,0,1.3229176,0,1 @ F,0,0,1,0,1.3229225,0,1 @ F,0,0,1,0,1.3229225,0,1 @ F,0,0,1,0,1.3229176,0,1"
       unit="px"
       method="auto"
       mode="F"
       radius="0"
       chamfer_steps="1"
       flexible="false"
       use_knot_distance="true"
       apply_no_radius="true"
       apply_with_radius="true"
       only_selected="false"
       hide_knots="false" /><inkscape:path-effect
       effect="fillet_chamfer"
       id="path-effect7689"
       is_visible="true"
       lpeversion="1"
       nodesatellites_param="F,0,0,1,0,1.3229176,0,1 @ F,0,0,1,0,1.3229225,0,1 @ F,0,0,1,0,1.3229225,0,1 @ F,0,0,1,0,1.3229176,0,1"
       unit="px"
       method="auto"
       mode="F"
       radius="0"
       chamfer_steps="1"
       flexible="false"
       use_knot_distance="true"
       apply_no_radius="true"
       apply_with_radius="true"
       only_selected="false"
       hide_knots="false" /><inkscape:path-effect
       effect="fillet_chamfer"
       id="path-effect6793"
       is_visible="true"
       lpeversion="1"
       nodesatellites_param="F,0,0,1,0,0,0,1 @ F,0,0,1,0,5.9456015,0,1 @ F,0,0,1,0,0,0,1"
       unit="px"
       method="auto"
       mode="F"
       radius="0"
       chamfer_steps="1"
       flexible="false"
       use_knot_distance="true"
       apply_no_radius="true"
       apply_with_radius="true"
       only_selected="false"
       hide_knots="false" /><inkscape:path-effect
       effect="fillet_chamfer"
       id="path-effect6787"
       is_visible="true"
       lpeversion="1"
       nodesatellites_param="F,0,0,1,0,1.3229176,0,1 @ F,0,0,1,0,1.3229225,0,1 @ F,0,0,1,0,1.3229225,0,1 @ F,0,0,1,0,1.3229176,0,1"
       unit="px"
       method="auto"
       mode="F"
       radius="0"
       chamfer_steps="1"
       flexible="false"
       use_knot_distance="true"
       apply_no_radius="true"
       apply_with_radius="true"
       only_selected="false"
       hide_knots="false" /><linearGradient
       inkscape:collect="always"
       id="linearGradient4470"><stop
         style="stop-color:#fdae61;stop-opacity:1;"
         offset="0"
         id="stop4466" /><stop
         style="stop-color:#fee08b;stop-opacity:1"
         offset="1"
         id="stop4468" /></linearGradient><inkscape:path-effect
       effect="fillet_chamfer"
       id="path-effect3084"
       is_visible="true"
       lpeversion="1"
       nodesatellites_param="F,0,0,1,0,0,0,1 @ F,0,0,1,0,5.9456015,0,1 @ F,0,0,1,0,0,0,1"
       unit="px"
       method="auto"
       mode="F"
       radius="0"
       chamfer_steps="1"
       flexible="false"
       use_knot_distance="true"
       apply_no_radius="true"
       apply_with_radius="true"
       only_selected="false"
       hide_knots="false" /><inkscape:path-effect
       effect="fillet_chamfer"
       id="path-effect813"
       is_visible="true"
       lpeversion="1"
       nodesatellites_param="F,0,1,1,0,0.26458335,0,1 @ F,0,0,1,0,0.26458335,0,1 @ F,0,1,1,0,0.26458335,0,1 @ F,0,1,1,0,0.26458335,0,1 @ F,0,1,1,0,0.26458335,0,1 @ F,0,1,1,0,0.26458335,0,1 @ F,0,1,1,0,0.26458335,0,1"
       unit="px"
       method="auto"
       mode="F"
       radius="0"
       chamfer_steps="1"
       flexible="false"
       use_knot_distance="true"
       apply_no_radius="true"
       apply_with_radius="true"
       only_selected="false"
       hide_knots="false" /><rect
       x="129.93087"
       y="-198.89404"
       width="139.47681"
       height="71.594561"
       id="rect1234" /><rect
       x="206.70872"
       y="-153.84778"
       width="47.874863"
       height="34.768423"
       id="rect1228" /><filter
       style="color-interpolation-filters:sRGB;"
       inkscape:label="Blur"
       id="filter1140"><feGaussianBlur
         stdDeviation="1 1"
         result="blur"
         id="feGaussianBlur1138" /></filter><filter
       style="color-interpolation-filters:sRGB;"
       inkscape:label="Blur"
       id="filter1144"><feGaussianBlur
         stdDeviation="1 1"
         result="blur"
         id="feGaussianBlur1142" /></filter><filter
       style="color-interpolation-filters:sRGB;"
       inkscape:label="Blur"
       id="filter1148"><feGaussianBlur
         stdDeviation="1 1"
         result="blur"
         id="feGaussianBlur1146" /></filter><filter
       style="color-interpolation-filters:sRGB;"
       inkscape:label="Blur"
       id="filter1152"><feGaussianBlur
         stdDeviation="1 1"
         result="blur"
         id="feGaussianBlur1150" /></filter><filter
       style="color-interpolation-filters:sRGB;"
       inkscape:label="Blur"
       id="filter1368"><feGaussianBlur
         stdDeviation="2 2"
         result="blur"
         id="feGaussianBlur1366" /></filter><mask
       maskUnits="userSpaceOnUse"
       id="mask874"><rect
         style="fill:#00ffff;stroke-width:0.376;stroke-miterlimit:10"
         id="rect876"
         width="72.65522"
         height="50.381363"
         x="85.648308"
         y="-226.47121" /></mask><linearGradient
       inkscape:collect="always"
       xlink:href="#linearGradient4470"
       id="linearGradient4472"
       x1="143.93333"
       y1="59.266663"
       x2="143.93333"
       y2="88.900002"
       gradientUnits="userSpaceOnUse" /><inkscape:path-effect
       effect="fillet_chamfer"
       id="path-effect7697-2"
       is_visible="true"
       lpeversion="1"
       nodesatellites_param="F,0,0,1,0,1.3229176,0,1 @ F,0,0,1,0,1.3229225,0,1 @ F,0,0,1,0,1.3229225,0,1 @ F,0,0,1,0,1.3229176,0,1"
       unit="px"
       method="auto"
       mode="F"
       radius="0"
       chamfer_steps="1"
       flexible="false"
       use_knot_distance="true"
       apply_no_radius="true"
       apply_with_radius="true"
       only_selected="false"
       hide_knots="false" /><linearGradient
       inkscape:collect="always"
       xlink:href="#linearGradient12197"
       id="linearGradient12199"
       x1="68.791664"
       y1="18.520832"
       x2="84.666664"
       y2="10.583333"
       gradientUnits="userSpaceOnUse" /><linearGradient
       inkscape:collect="always"
       xlink:href="#linearGradient12661"
       id="linearGradient12663"
       x1="84.666664"
       y1="10.583333"
       x2="143.93333"
       y2="18.520832"
       gradientUnits="userSpaceOnUse" /><linearGradient
       inkscape:collect="always"
       xlink:href="#linearGradient12793"
       id="linearGradient12795"
       x1="88.529045"
       y1="46.028866"
       x2="93.927078"
       y2="18.520832"
       gradientUnits="userSpaceOnUse" /><linearGradient
       inkscape:collect="always"
       xlink:href="#linearGradient12801"
       id="linearGradient12803"
       x1="93.927078"
       y1="18.520832"
       x2="101.86458"
       y2="36.861519"
       gradientUnits="userSpaceOnUse" /><filter
       style="color-interpolation-filters:sRGB;"
       inkscape:label="Drop Shadow"
       id="filter18884"
       x="-0.075590551"
       y="-0.090708666"
       width="1.1669291"
       height="1.200315"><feFlood
         flood-opacity="1"
         flood-color="rgb(105,105,105)"
         result="flood"
         id="feFlood18874" /><feComposite
         in="flood"
         in2="SourceGraphic"
         operator="in"
         result="composite1"
         id="feComposite18876" /><feGaussianBlur
         in="composite1"
         stdDeviation="1"
         result="blur"
         id="feGaussianBlur18878" /><feOffset
         dx="0.5"
         dy="0.5"
         result="offset"
         id="feOffset18880" /><feComposite
         in="SourceGraphic"
         in2="offset"
         operator="over"
         result="composite2"
         id="feComposite18882" /></filter><inkscape:path-effect
       effect="fillet_chamfer"
       id="path-effect813-9"
       is_visible="true"
       lpeversion="1"
       nodesatellites_param="F,0,1,1,0,0.26458335,0,1 @ F,0,0,1,0,0.26458335,0,1 @ F,0,1,1,0,0.26458335,0,1 @ F,0,1,1,0,0.26458335,0,1 @ F,0,1,1,0,0.26458335,0,1 @ F,0,1,1,0,0.26458335,0,1 @ F,0,1,1,0,0.26458335,0,1"
       unit="px"
       method="auto"
       mode="F"
       radius="0"
       chamfer_steps="1"
       flexible="false"
       use_knot_distance="true"
       apply_no_radius="true"
       apply_with_radius="true"
       only_selected="false"
       hide_knots="false" /><rect
       x="129.93087"
       y="-198.89404"
       width="139.47681"
       height="71.594561"
       id="rect1234-0" /><rect
       x="206.70872"
       y="-153.84778"
       width="47.874863"
       height="34.768423"
       id="rect1228-1" /><filter
       style="color-interpolation-filters:sRGB;"
       inkscape:label="Blur"
       id="filter1140-1"><feGaussianBlur
         stdDeviation="1 1"
         result="blur"
         id="feGaussianBlur1138-3" /></filter><filter
       style="color-interpolation-filters:sRGB;"
       inkscape:label="Blur"
       id="filter1144-0"><feGaussianBlur
         stdDeviation="1 1"
         result="blur"
         id="feGaussianBlur1142-6" /></filter><filter
       style="color-interpolation-filters:sRGB;"
       inkscape:label="Blur"
       id="filter1148-5"><feGaussianBlur
         stdDeviation="1 1"
         result="blur"
         id="feGaussianBlur1146-5" /></filter><filter
       style="color-interpolation-filters:sRGB;"
       inkscape:label="Blur"
       id="filter1152-7"><feGaussianBlur
         stdDeviation="1 1"
         result="blur"
         id="feGaussianBlur1150-1" /></filter><filter
       style="color-interpolation-filters:sRGB;"
       inkscape:label="Blur"
       id="filter1368-5"><feGaussianBlur
         stdDeviation="2 2"
         result="blur"
         id="feGaussianBlur1366-9" /></filter><mask
       maskUnits="userSpaceOnUse"
       id="mask874-5"><rect
         style="fill:#00ffff;stroke-width:0.376;stroke-miterlimit:10"
         id="rect876-6"
         width="72.65522"
         height="50.381363"
         x="85.648308"
         y="-226.47121" /></mask><linearGradient
       inkscape:collect="always"
       xlink:href="#linearGradient1699"
       id="linearGradient1701"
       x1="0"
       y1="0"
       x2="143.93333"
       y2="88.900002"
       gradientUnits="userSpaceOnUse" /><inkscape:path-effect
       effect="fillet_chamfer"
       id="path-effect813-94"
       is_visible="true"
       lpeversion="1"
       nodesatellites_param="F,0,1,1,0,0.26458335,0,1 @ F,0,0,1,0,0.26458335,0,1 @ F,0,1,1,0,0.26458335,0,1 @ F,0,1,1,0,0.26458335,0,1 @ F,0,1,1,0,0.26458335,0,1 @ F,0,1,1,0,0.26458335,0,1 @ F,0,1,1,0,0.26458335,0,1"
       unit="px"
       method="auto"
       mode="F"
       radius="0"
       chamfer_steps="1"
       flexible="false"
       use_knot_distance="true"
       apply_no_radius="true"
       apply_with_radius="true"
       only_selected="false"
       hide_knots="false" /><rect
       x="129.93087"
       y="-198.89404"
       width="139.47681"
       height="71.594561"
       id="rect1234-2" /><rect
       x="206.70872"
       y="-153.84778"
       width="47.874863"
       height="34.768423"
       id="rect1228-4" /><filter
       style="color-interpolation-filters:sRGB;"
       inkscape:label="Blur"
       id="filter1140-5"><feGaussianBlur
         stdDeviation="1 1"
         result="blur"
         id="feGaussianBlur1138-6" /></filter><filter
       style="color-interpolation-filters:sRGB;"
       inkscape:label="Blur"
       id="filter1144-3"><feGaussianBlur
         stdDeviation="1 1"
         result="blur"
         id="feGaussianBlur1142-4" /></filter><filter
       style="color-interpolation-filters:sRGB;"
       inkscape:label="Blur"
       id="filter1148-7"><feGaussianBlur
         stdDeviation="1 1"
         result="blur"
         id="feGaussianBlur1146-2" /></filter><filter
       style="color-interpolation-filters:sRGB;"
       inkscape:label="Blur"
       id="filter1152-3"><feGaussianBlur
         stdDeviation="1 1"
         result="blur"
         id="feGaussianBlur1150-0" /></filter><filter
       style="color-interpolation-filters:sRGB;"
       inkscape:label="Blur"
       id="filter1368-2"><feGaussianBlur
         stdDeviation="2 2"
         result="blur"
         id="feGaussianBlur1366-6" /></filter><mask
       maskUnits="userSpaceOnUse"
       id="mask874-9"><rect
         style="fill:#00ffff;stroke-width:0.376;stroke-miterlimit:10"
         id="rect876-1"
         width="72.65522"
         height="50.381363"
         x="85.648308"
         y="-226.47121" /></mask><marker
       style="overflow:visible"
       refX="1"
       refY="0"
       orient="auto-start-reverse"
       inkscape:stockid="TriangleStart95822975575"
       markerWidth="2.5"
       markerHeight="2.8901734"
       viewBox="0 0 5.3244081 6.1553851"
       inkscape:isstock="true"
       inkscape:collect="always"
       preserveAspectRatio="xMidYMid"
       markerUnits="userSpaceOnUse"
       id="TriangleStart95822975575"><path
         transform="scale(0.5)"
         style="fill:#ffffbf;fill-opacity:1.0;fill-rule:evenodd;stroke:#ffffbf;stroke-width:1pt;stroke-opacity:1.0"
         d="M 5.77,0 -2.88,5 V -5 Z"
         id="path11365" /></marker><marker
       style="overflow:visible"
       refX="1"
       refY="0"
       orient="auto-start-reverse"
       inkscape:stockid="TriangleStart9583148793"
       markerWidth="2.5"
       markerHeight="2.8901734"
       viewBox="0 0 5.3244081 6.1553851"
       inkscape:isstock="true"
       inkscape:collect="always"
       preserveAspectRatio="xMidYMid"
       markerUnits="userSpaceOnUse"
       id="TriangleStart9583148793"><path
         transform="scale(0.5)"
         style="fill:#ffffbf;fill-opacity:1.0;fill-rule:evenodd;stroke:#ffffbf;stroke-width:1pt;stroke-opacity:1.0"
         d="M 5.77,0 -2.88,5 V -5 Z"
         id="path11368" /></marker><radialGradient
       inkscape:collect="always"
       xlink:href="#linearGradient12922"
       id="radialGradient12924"
       cx="93.927094"
       cy="52.953259"
       fx="93.927094"
       fy="52.953259"
       r="2.778125"
       gradientUnits="userSpaceOnUse"
       gradientTransform="matrix(-1.4285714,5.5763069e-6,-9.0984309e-6,-1.6666656,228.1091,141.03923)" /><radialGradient
       inkscape:collect="always"
       xlink:href="#linearGradient26246"
       id="radialGradient20202"
       gradientUnits="userSpaceOnUse"
       gradientTransform="matrix(2.142857,5.5073611e-6,-1.0052686e-5,0.66666458,-107.34474,23.96408)"
       cx="93.927094"
       cy="52.953259"
       fx="93.927094"
       fy="52.953259"
       r="2.778125" /><marker
       style="overflow:visible"
       refX="1"
       refY="0"
       orient="auto-start-reverse"
       inkscape:stockid="TriangleStart141599963931"
       markerWidth="2.5"
       markerHeight="2.8901734"
       viewBox="0 0 5.3244081 6.1553851"
       inkscape:isstock="true"
       inkscape:collect="always"
       preserveAspectRatio="xMidYMid"
       markerUnits="userSpaceOnUse"
       id="TriangleStart141599963931"><path
         transform="scale(0.5)"
         style="fill:#ffffbf;fill-opacity:1.0;fill-rule:evenodd;stroke:#ffffbf;stroke-width:1pt;stroke-opacity:1.0"
         d="M 5.77,0 -2.88,5 V -5 Z"
         id="path1897" /></marker><marker
       style="overflow:visible"
       refX="1"
       refY="0"
       orient="auto-start-reverse"
       inkscape:stockid="TriangleStart141537979029"
       markerWidth="2.5"
       markerHeight="2.8901734"
       viewBox="0 0 5.3244081 6.1553851"
       inkscape:isstock="true"
       inkscape:collect="always"
       preserveAspectRatio="xMidYMid"
       markerUnits="userSpaceOnUse"
       id="TriangleStart141537979029"><path
         transform="scale(0.5)"
         style="fill:#ffffbf;fill-opacity:1;fill-rule:evenodd;stroke:#ffffbf;stroke-width:1pt;stroke-opacity:1"
         d="M 5.77,0 -2.88,5 V -5 Z"
         id="path1900" /></marker></defs><g
     inkscape:label="Layer 1"
     inkscape:groupmode="layer"
     id="layer1"><path
       style="fill:url(#linearGradient1701);fill-opacity:1;stroke:none;stroke-width:0.264583;stroke-dasharray:none"
       d="M 143.93333,88.899998 47.889584,-4.5185575e-7 H 0 V 34.395833 Z"
       id="path2563"
       sodipodi:nodetypes="ccccc" /><path
       id="path16786"
       style="fill:#000000;fill-opacity:0;stroke:#ffffbf;stroke-width:0.79375;stroke-linecap:round;stroke-dasharray:0.79375, 2.38125;stroke-dashoffset:0;stroke-opacity:1;marker-end:url(#TriangleStart141599963931)"
       class="UnoptimicedTransforms"
       d="M 93.927001,53.138359 80.888624,59.266755 2.6458333,22.489583"
       sodipodi:nodetypes="ccc" /><path
       id="path16780"
       style="fill:#000000;fill-opacity:0;stroke:#ffffbf;stroke-width:0.79375;stroke-linecap:round;stroke-dasharray:none;stroke-dashoffset:0;stroke-opacity:1;marker-start:url(#TriangleStart95822975575)"
       class="UnoptimicedTransforms"
       d="M 88.635358,53.554543 75.430501,59.266755 2.6458333,27.781249" /><path
       id="circle20200"
       style="opacity:1;fill:url(#radialGradient20202);stroke-width:0.396876;stroke-linecap:round;stroke-linejoin:round"
       d="m 99.880203,59.266666 a 5.953125,1.984375 0 0 1 -5.953125,1.984375 5.953125,1.984375 0 0 1 -5.953125,-1.984375 5.953125,1.984375 0 0 1 5.953125,-1.984375 5.953125,1.984375 0 0 1 5.953125,1.984375 z" /><path
       id="rect415"
       style="fill:url(#linearGradient4472);stroke-width:0.264583"
       d="M 0,59.266663 H 143.93333 V 88.899996 H 0 Z" /><path
       id="path11879"
       style="opacity:1;fill:url(#radialGradient12924);stroke-width:0.396876;stroke-linecap:round;stroke-linejoin:round"
       d="m 97.895828,52.784374 a 3.96875,4.6302085 0 0 1 -3.96875,4.630209 3.96875,4.6302085 0 0 1 -3.96875,-4.630209 3.96875,4.6302085 0 0 1 3.96875,-4.630208 3.96875,4.6302085 0 0 1 3.96875,4.630208 z" /><path
       id="path7699"
       style="fill:url(#linearGradient12663);fill-opacity:1;stroke:none;stroke-width:1.00012;stroke-dasharray:none"
       d="m 70.061926,10.583333 c -0.730626,0 -1.330187,0.592326 -1.322917,1.322917 l 0.05266,5.291666 c 0.0073,0.730591 0.59229,1.322917 1.322917,1.322917 h 7.9375 l 13.716475,35.205602 c 0.346523,0.889845 1.203588,1.475859 2.158524,1.475879 0.143648,-9.99e-4 0.286892,-0.01536 0.427881,-0.04289 0.0481,-0.01088 0.09584,-0.02328 0.143144,-0.03721 0.09314,-0.02272 0.184787,-0.05119 0.274402,-0.08527 0.05004,-0.02083 0.09934,-0.04341 0.147794,-0.0677 0.08242,-0.03866 0.162481,-0.08214 0.239779,-0.130224 0.04784,-0.03032 0.09455,-0.06238 0.140043,-0.09612 0.07185,-0.05368 0.140524,-0.111479 0.205672,-0.173117 0.04117,-0.03731 0.08099,-0.0761 0.119373,-0.116271 0.0646,-0.07163 0.12466,-0.147225 0.179834,-0.226343 0.02945,-0.03787 0.0051,-0.07665 0.03209,-0.116272 0.07711,-0.121785 0.142674,-0.250501 0.195854,-0.384473 L 109.74942,18.520822 h 34.18391 v -7.9375 H 85.936926 Z"
       sodipodi:nodetypes="ssssccccccccccccccccccs" /><path
       style="display:inline;fill:url(#linearGradient12795);fill-opacity:1;stroke:none;stroke-width:1.00012;stroke-dasharray:none"
       d="m 78.052082,18.520833 13.716567,35.205855 a 2.316468,2.316468 180 0 0 4.316865,0 L 109.80208,18.520833 Z"
       id="path2832"
       sodipodi:nodetypes="cccc" /><path
       id="path6854"
       style="display:inline;fill:url(#linearGradient12803);fill-opacity:1;stroke:none;stroke-width:1.00012;stroke-dasharray:none"
       d="m 93.927081,55.202208 a 2.316468,2.316468 0 0 0 2.158433,-1.47552 L 109.80208,18.520833 H 93.927081" /><path
       id="path7693"
       d="m 70.114582,10.583333 h 13.22916 a 1.3229225,1.3229225 45 0 1 1.322922,1.322923 v 5.291655 a 1.3229225,1.3229225 135 0 1 -1.322922,1.322922 h -13.22916 a 1.3229176,1.3229176 45 0 1 -1.322918,-1.322918 v -5.291664 a 1.3229176,1.3229176 135 0 1 1.322918,-1.322918 z"
       style="display:inline;fill:url(#linearGradient12199);fill-opacity:1;stroke:none;stroke-width:1.00012;stroke-dasharray:none" /><path
       d="M 45.238933,3.3819018 44.263642,2.5762169 43.440914,3.2800385 44.575566,4.2173709 44.324256,4.4307054 42.891597,3.2471911 45.211574,1.2599594 46.628296,2.4303086 46.375669,2.6452367 45.258551,1.722389 44.513356,2.3615648 45.488647,3.1672497 Z"
       style="font-style:italic;font-size:4.23333px;font-family:Roboto;-inkscape-font-specification:'Roboto Italic';fill:#ffffbf;stroke-width:0.529167;stroke-linecap:round"
       id="path1541" /><path
       d="M 44.30861,5.5159803 44.122157,5.361952 45.242776,4.4020382 45.429228,4.5560658 Z m 1.418226,-1.4024478 q 0.04937,0.037284 0.05477,0.094038 0.0073,0.056563 -0.03378,0.1062866 -0.04122,0.047858 -0.098,0.053234 -0.05571,0.00626 -0.106104,-0.031891 -0.05041,-0.038138 -0.05665,-0.09386 -0.0063,-0.055709 0.035,-0.1035379 0.04122,-0.047858 0.09782,-0.055123 0.05656,-0.0073 0.106963,0.030849 z"
       style="font-size:2.75166px;font-family:Roboto;-inkscape-font-specification:Roboto;baseline-shift:sub;fill:#ffffbf;stroke-width:0.529167;stroke-linecap:round"
       id="path1543" /><path
       d="m 45.913826,4.9546469 -0.144162,0.1196646 q 0.288147,-0.040802 0.477392,0.1225037 0.155046,0.1350872 0.143397,0.3031909 -0.01167,0.1681225 -0.189656,0.3434944 L 45.471868,6.4769437 45.284379,6.32206 46.016912,5.6863651 q 0.04817,-0.045593 0.07887,-0.093434 0.10219,-0.1595652 -0.04855,-0.2893184 -0.166296,-0.142565 -0.445147,-0.064496 l -0.799412,0.6850105 -0.18749,-0.1548842 1.12062,-0.9599138 z"
       style="font-size:2.75166px;font-family:Roboto;-inkscape-font-specification:Roboto;baseline-shift:sub;fill:#ffffbf;stroke-width:0.529167;stroke-linecap:round"
       id="path1545" /><path
       d="m 26.421798,28.129687 -1.144828,-0.538228 -0.622157,0.886097 1.331891,0.626173 -0.190454,0.269063 -1.681701,-0.790631 1.75376,-2.501142 1.662994,0.781836 -0.191335,0.270935 -1.311309,-0.616497 -0.563108,0.804221 1.144829,0.538228 z"
       style="font-style:italic;font-size:4.23333px;font-family:Roboto;-inkscape-font-specification:'Roboto Italic';fill:#ffffbf;stroke-width:0.529167;stroke-linecap:round"
       id="path1530" /><path
       d="m 26.794459,30.34265 q 0.08226,-0.12761 -0.05924,-0.262427 l -0.197149,-0.174348 q -0.242513,-0.235756 -0.124172,-0.462207 0.09025,-0.169876 0.291834,-0.21021 0.203365,-0.04098 0.405278,0.05692 0.198261,0.09619 0.268554,0.268785 0.07208,0.17196 -0.01853,0.35206 l -0.218311,-0.104073 q 0.04875,-0.09734 0.01345,-0.189654 -0.03529,-0.09231 -0.141147,-0.145045 -0.113147,-0.05618 -0.223272,-0.03668 -0.102329,0.0187 -0.156214,0.101748 -0.06954,0.106863 0.06151,0.23232 l 0.09636,0.08242 q 0.198722,0.164688 0.249546,0.302904 0.05082,0.138214 -0.02164,0.273399 -0.06507,0.119361 -0.180864,0.176271 -0.115832,0.05689 -0.260285,0.04837 -0.143886,-0.0097 -0.279569,-0.07799 -0.207989,-0.100767 -0.288154,-0.283939 -0.07959,-0.1844 0.01388,-0.37058 l 0.219527,0.104645 q -0.05202,0.110649 -0.01294,0.21068 0.03908,0.100034 0.16189,0.15777 0.119226,0.05904 0.231359,0.0479 0.112701,-0.01234 0.168302,-0.09903 z"
       style="font-size:2.75166px;font-family:Roboto;-inkscape-font-specification:Roboto;baseline-shift:sub;fill:#ffffbf;stroke-width:0.529167;stroke-linecap:round"
       id="path1532" /><path
       d="m 27.699545,31.010165 q 0.116795,0.05789 0.244796,0.03195 0.128568,-0.02715 0.212057,-0.128942 l 0.208474,0.09657 q -0.07654,0.11545 -0.206031,0.179284 -0.128272,0.06441 -0.277942,0.06382 -0.149676,-5.87e-4 -0.276848,-0.06483 -0.162999,-0.07962 -0.238429,-0.21602 -0.07363,-0.137063 -0.05739,-0.310555 0.01681,-0.17471 0.121295,-0.352742 l 0.03465,-0.05795 q 0.112281,-0.17882 0.270137,-0.287219 0.15786,-0.108399 0.337777,-0.12477 0.18049,-0.01759 0.348429,0.06731 0.204407,0.102067 0.26556,0.294101 0.06114,0.192059 -0.03547,0.397548 l -0.204936,-0.09778 q 0.05815,-0.130036 0.02601,-0.241648 -0.03157,-0.112835 -0.147235,-0.173146 -0.169743,-0.08422 -0.345763,-0.0067 -0.174817,0.07816 -0.313683,0.300895 l -0.01848,0.02991 q -0.04392,0.07437 -0.0779,0.159351 -0.05838,0.146262 -0.0255,0.262674 0.03287,0.116406 0.156393,0.178933 z"
       style="font-size:2.75166px;font-family:Roboto;-inkscape-font-specification:Roboto;baseline-shift:sub;fill:#ffffbf;stroke-width:0.529167;stroke-linecap:round"
       id="path1534" /><path
       d="m 29.151201,31.88565 q 0.0081,-0.03926 0.02407,-0.0733 l 0.0362,-0.0676 q -0.260057,0.08262 -0.460828,-0.01771 -0.172727,-0.08419 -0.23186,-0.242627 -0.05734,-0.159092 0.02842,-0.316235 0.110486,-0.203419 0.335588,-0.240118 0.226893,-0.03734 0.505337,0.09357 l 0.229254,0.109217 0.06375,-0.09771 q 0.06761,-0.112226 0.04125,-0.207759 -0.02456,-0.09618 -0.138933,-0.152912 -0.111931,-0.05561 -0.226919,-0.03839 -0.113203,0.01656 -0.17724,0.102256 l -0.22185,-0.102864 q 0.06525,-0.110368 0.186018,-0.161969 0.121336,-0.05283 0.268226,-0.04315 0.147461,0.0085 0.278851,0.0732 0.203192,0.101495 0.260905,0.275581 0.05827,0.172895 -0.05314,0.362514 l -0.413403,0.601424 -0.05008,0.09077 q -0.03389,0.06573 -0.04772,0.139393 l -0.01216,0.01952 z m -0.265288,-0.332575 q 0.104635,0.05218 0.222848,0.04389 0.119995,-0.0089 0.232101,-0.07052 l 0.174898,-0.248853 -0.166027,-0.07949 q -0.207921,-0.09775 -0.349437,-0.08412 -0.141515,0.01364 -0.2127,0.127155 -0.05439,0.08727 -0.03004,0.174431 0.02613,0.08652 0.128341,0.137544 z"
       style="font-size:2.75166px;font-family:Roboto;-inkscape-font-specification:Roboto;baseline-shift:sub;fill:#ffffbf;stroke-width:0.529167;stroke-linecap:round"
       id="path1536" /><path
       d="m 31.022327,30.769948 -0.205699,0.292275 0.239536,0.112614 -0.112144,0.159585 -0.238319,-0.112043 -0.522116,0.753713 q -0.01848,0.02991 -0.02862,0.05781 -0.03608,0.09884 0.05877,0.143431 0.04013,0.01886 0.112719,0.03814 l -0.103341,0.1756 q -0.08932,-0.01527 -0.170788,-0.05357 -0.13017,-0.06418 -0.151818,-0.188664 -0.02107,-0.125709 0.06841,-0.278134 l 0.516753,-0.751781 -0.232239,-0.109185 0.112144,-0.159584 0.232239,0.109185 0.205699,-0.292275 z"
       style="font-size:2.75166px;font-family:Roboto;-inkscape-font-specification:Roboto;baseline-shift:sub;fill:#ffffbf;stroke-width:0.529167;stroke-linecap:round"
       id="path1538" /><path
       d="m 38.427982,74.647638 q 0,-0.155029 -0.117822,-0.239779 -0.115755,-0.08682 -0.40721,-0.148828 -0.289388,-0.06201 -0.460953,-0.148828 -0.169499,-0.08682 -0.252181,-0.206705 -0.08062,-0.119889 -0.08062,-0.285254 0,-0.274918 0.23151,-0.465087 0.233577,-0.190169 0.595312,-0.190169 0.380338,0 0.615983,0.19637 0.237711,0.19637 0.237711,0.502294 H 38.40524 q 0,-0.157096 -0.134359,-0.270784 -0.132292,-0.113688 -0.334863,-0.113688 -0.208773,0 -0.326595,0.09095 -0.117822,0.09095 -0.117822,0.237711 0,0.138493 0.109554,0.208773 0.109554,0.07028 0.394808,0.134358 0.28732,0.06408 0.465087,0.152962 0.177767,0.08888 0.262516,0.214974 0.08682,0.124023 0.08682,0.303857 0,0.299723 -0.239779,0.481624 -0.239778,0.179834 -0.622184,0.179834 -0.268717,0 -0.475422,-0.09508 -0.206706,-0.09508 -0.324528,-0.264583 -0.115755,-0.171565 -0.115755,-0.370003 h 0.382405 q 0.01033,0.192237 0.152962,0.305925 0.144694,0.111621 0.380338,0.111621 0.217041,0 0.347266,-0.08682 0.132291,-0.08888 0.132291,-0.235644 z"
       id="path1517"
       style="font-size:4.23333px;font-family:Roboto;-inkscape-font-specification:Roboto;fill:#262339;stroke-width:0.529167;stroke-linecap:round" /><path
       d="m 40.689341,75.240883 q -0.03307,-0.06615 -0.05374,-0.235644 -0.26665,0.276985 -0.636653,0.276985 -0.330729,0 -0.543636,-0.186035 -0.21084,-0.188102 -0.21084,-0.475423 0,-0.349332 0.264583,-0.541568 0.266651,-0.194304 0.748275,-0.194304 h 0.37207 v -0.175699 q 0,-0.200505 -0.11989,-0.318327 -0.119889,-0.119889 -0.353466,-0.119889 -0.204639,0 -0.343131,0.103353 -0.138493,0.103352 -0.138493,0.250113 h -0.384472 q 0,-0.167431 0.117822,-0.32246 0.119889,-0.157096 0.32246,-0.248047 0.204639,-0.09095 0.448551,-0.09095 0.38654,0 0.605648,0.194303 0.219108,0.192236 0.227376,0.531233 v 1.029394 q 0,0.307991 0.07855,0.489892 v 0.03307 z m -0.634586,-0.291455 q 0.179834,0 0.341064,-0.09302 0.161231,-0.09302 0.233578,-0.241846 v -0.458886 h -0.299724 q -0.702798,0 -0.702798,0.411344 0,0.179834 0.119889,0.281119 0.119889,0.101286 0.307991,0.101286 z"
       id="path1519"
       style="font-size:4.23333px;font-family:Roboto;-inkscape-font-specification:Roboto;fill:#262339;stroke-width:0.529167;stroke-linecap:round" /><path
       d="m 41.970916,73.004329 0.01033,0.248046 q 0.24598,-0.289387 0.663525,-0.289387 0.469221,0 0.63872,0.359667 0.111621,-0.16123 0.289388,-0.260449 0.179834,-0.09922 0.423746,-0.09922 0.735872,0 0.748274,0.77928 v 1.498615 h -0.382405 v -1.475878 q 0,-0.239778 -0.109554,-0.3576 -0.109554,-0.11989 -0.367936,-0.11989 -0.212907,0 -0.353466,0.128158 -0.14056,0.12609 -0.163298,0.341064 v 1.484146 H 42.983773 V 73.77534 q 0,-0.487825 -0.47749,-0.487825 -0.376204,0 -0.514697,0.320394 v 1.632974 h -0.382405 v -2.236554 z"
       id="path1521"
       style="font-size:4.23333px;font-family:Roboto;-inkscape-font-specification:Roboto;fill:#262339;stroke-width:0.529167;stroke-linecap:round" /><path
       d="m 47.210901,74.14741 q 0,0.510563 -0.233577,0.822689 -0.233577,0.312125 -0.632519,0.312125 -0.40721,0 -0.640787,-0.258382 v 1.076936 h -0.382406 v -3.096449 h 0.349333 l 0.0186,0.248046 q 0.233578,-0.289387 0.649056,-0.289387 0.403076,0 0.636653,0.303857 0.235644,0.303857 0.235644,0.845426 z M 46.828496,74.104 q 0,-0.378271 -0.16123,-0.597379 -0.161231,-0.219108 -0.44235,-0.219108 -0.347266,0 -0.520898,0.307992 v 1.068667 q 0.171565,0.305925 0.525032,0.305925 0.274918,0 0.436149,-0.217041 0.163297,-0.219108 0.163297,-0.649056 z"
       id="path1523"
       style="font-size:4.23333px;font-family:Roboto;-inkscape-font-specification:Roboto;fill:#262339;stroke-width:0.529167;stroke-linecap:round" /><path
       d="m 48.112137,75.240883 h -0.382405 v -3.174997 h 0.382405 z"
       id="path1525"
       style="font-size:4.23333px;font-family:Roboto;-inkscape-font-specification:Roboto;fill:#262339;stroke-width:0.529167;stroke-linecap:round" /><path
       d="m 49.652094,75.282224 q -0.454753,0 -0.740006,-0.297656 -0.285254,-0.299723 -0.285254,-0.799951 v -0.07028 q 0,-0.332796 0.126091,-0.593245 0.128157,-0.262516 0.355533,-0.409277 0.229443,-0.148828 0.496093,-0.148828 0.436149,0 0.677995,0.28732 0.241845,0.287321 0.241845,0.822688 v 0.159164 h -1.515152 q 0.0083,0.330729 0.192237,0.535367 0.186035,0.202572 0.471288,0.202572 0.202572,0 0.343131,-0.08268 0.14056,-0.08268 0.24598,-0.219108 l 0.233577,0.181901 q -0.281119,0.432015 -0.843358,0.432015 z m -0.04754,-2.005044 q -0.23151,0 -0.388606,0.169499 -0.157096,0.167431 -0.194303,0.471288 h 1.120344 v -0.02894 Q 50.125449,73.597574 49.98489,73.43841 49.84433,73.27718 49.604551,73.27718 Z"
       id="path1527"
       style="font-size:4.23333px;font-family:Roboto;-inkscape-font-specification:Roboto;fill:#262339;stroke-width:0.529167;stroke-linecap:round" /><path
       d="m 101.10132,14.862141 h -1.260906 l -0.283187,0.785481 H 99.14795 l 1.14928,-3.009633 h 0.34727 l 1.15135,3.009633 h -0.40721 z m -1.141017,-0.326595 h 1.023197 l -0.51263,-1.407665 z"
       id="path1504"
       style="font-size:4.23333px;font-family:Roboto;-inkscape-font-specification:Roboto;fill:#262339;stroke-width:0.529167;stroke-linecap:round" /><path
       d="m 103.86084,14.318505 h -1.26297 v 1.329117 h -0.39688 v -3.009633 h 1.86449 v 0.326595 h -1.46761 v 1.029394 h 1.26297 z"
       id="path1506"
       style="font-size:4.23333px;font-family:Roboto;-inkscape-font-specification:Roboto;fill:#262339;stroke-width:0.529167;stroke-linecap:round" /><path
       d="m 105.05353,12.637989 0.98392,2.455662 0.98391,-2.455662 h 0.5147 v 3.009633 h -0.39687 v -1.17202 l 0.0372,-1.265038 -0.98805,2.437058 h -0.30386 l -0.98598,-2.430857 0.0393,1.258837 v 1.17202 h -0.39687 v -3.009633 z"
       id="path1508"
       style="font-size:4.23333px;font-family:Roboto;-inkscape-font-specification:Roboto;fill:#262339;stroke-width:0.529167;stroke-linecap:round" /><path
       d="m 109.74368,12.869499 v 0.541569 h 0.41754 v 0.295589 h -0.41754 v 1.386994 q 0,0.134359 0.0558,0.202572 0.0558,0.06615 0.19017,0.06615 0.0661,0 0.1819,-0.0248 v 0.310058 q -0.1509,0.04134 -0.29352,0.04134 -0.25632,0 -0.38654,-0.155029 -0.13023,-0.155029 -0.13023,-0.440283 v -1.386994 h -0.40721 v -0.295589 h 0.40721 v -0.541569 z"
       id="path1510"
       style="font-size:4.23333px;font-family:Roboto;-inkscape-font-specification:Roboto;fill:#262339;stroke-width:0.529167;stroke-linecap:round" /><path
       d="m 111.02318,15.647622 h -0.3824 v -2.236554 h 0.3824 z m -0.41341,-2.829799 q 0,-0.09302 0.0558,-0.157096 0.0579,-0.06408 0.1695,-0.06408 0.11162,0 0.1695,0.06408 0.0579,0.06408 0.0579,0.157096 0,0.09302 -0.0579,0.155029 -0.0579,0.06201 -0.1695,0.06201 -0.11162,0 -0.1695,-0.06201 -0.0558,-0.06201 -0.0558,-0.155029 z"
       id="path1512"
       style="font-size:4.23333px;font-family:Roboto;-inkscape-font-specification:Roboto;fill:#262339;stroke-width:0.529167;stroke-linecap:round" /><path
       d="m 113.52432,14.55415 q 0,0.510562 -0.23358,0.822688 -0.23357,0.312125 -0.63251,0.312125 -0.40721,0 -0.64079,-0.258382 v 1.076936 h -0.38241 v -3.096449 h 0.34934 l 0.0186,0.248047 q 0.23358,-0.289388 0.64905,-0.289388 0.40308,0 0.63666,0.303857 0.23564,0.303857 0.23564,0.845426 z m -0.3824,-0.04341 q 0,-0.378272 -0.16123,-0.59738 -0.16123,-0.219107 -0.44235,-0.219107 -0.34727,0 -0.5209,0.307991 v 1.068668 q 0.17156,0.305924 0.52503,0.305924 0.27492,0 0.43615,-0.217041 0.1633,-0.219108 0.1633,-0.649055 z"
       id="path1514"
       style="font-size:4.23333px;font-family:Roboto;-inkscape-font-specification:Roboto;fill:#262339;stroke-width:0.529167;stroke-linecap:round" /><path
       d="m 111.63039,45.376041 v 0.541568 h 0.41754 v 0.295589 h -0.41754 v 1.386994 q 0,0.134359 0.0558,0.202572 0.0558,0.06615 0.19017,0.06615 0.0661,0 0.1819,-0.02481 v 0.310058 q -0.1509,0.04134 -0.29352,0.04134 -0.25632,0 -0.38654,-0.155029 -0.13023,-0.155029 -0.13023,-0.440283 v -1.386994 h -0.40721 v -0.295589 h 0.40721 v -0.541568 z"
       id="path1459"
       style="font-size:4.23333px;font-family:Roboto;-inkscape-font-specification:Roboto;text-align:center;text-anchor:middle;fill:#262339;stroke-width:0.529167;stroke-linecap:round" /><path
       d="m 112.90989,48.154163 h -0.3824 v -2.236554 h 0.3824 z m -0.41341,-2.829799 q 0,-0.09302 0.0558,-0.157096 0.0579,-0.06408 0.1695,-0.06408 0.11162,0 0.1695,0.06408 0.0579,0.06408 0.0579,0.157096 0,0.09302 -0.0579,0.155029 -0.0579,0.06201 -0.1695,0.06201 -0.11162,0 -0.1695,-0.06201 -0.0558,-0.06201 -0.0558,-0.155029 z"
       id="path1461"
       style="font-size:4.23333px;font-family:Roboto;-inkscape-font-specification:Roboto;text-align:center;text-anchor:middle;fill:#262339;stroke-width:0.529167;stroke-linecap:round" /><path
       d="m 115.41103,47.060691 q 0,0.510563 -0.23358,0.822688 -0.23357,0.312125 -0.63251,0.312125 -0.40721,0 -0.64079,-0.258381 v 1.076935 h -0.38241 v -3.096449 h 0.34934 l 0.0186,0.248047 q 0.23358,-0.289388 0.64905,-0.289388 0.40308,0 0.63666,0.303857 0.23564,0.303857 0.23564,0.845426 z m -0.3824,-0.04341 q 0,-0.378271 -0.16123,-0.597379 -0.16123,-0.219108 -0.44235,-0.219108 -0.34727,0 -0.5209,0.307991 v 1.068668 q 0.17156,0.305924 0.52503,0.305924 0.27492,0 0.43615,-0.217041 0.1633,-0.219108 0.1633,-0.649055 z"
       id="path1463"
       style="font-size:4.23333px;font-family:Roboto;-inkscape-font-specification:Roboto;text-align:center;text-anchor:middle;fill:#262339;stroke-width:0.529167;stroke-linecap:round" /><path
       d="m 116.69261,47.031752 h -1.00873 v -0.312125 h 1.00873 z"
       id="path1465"
       style="font-size:4.23333px;font-family:Roboto;-inkscape-font-specification:Roboto;text-align:center;text-anchor:middle;fill:#262339;stroke-width:0.529167;stroke-linecap:round" /><path
       d="m 118.36692,47.560918 q 0,-0.155029 -0.11782,-0.239778 -0.11576,-0.08682 -0.40721,-0.148828 -0.28939,-0.06201 -0.46095,-0.148828 -0.1695,-0.08682 -0.25219,-0.206706 -0.0806,-0.119889 -0.0806,-0.285253 0,-0.274919 0.23151,-0.465088 0.23358,-0.190169 0.59531,-0.190169 0.38034,0 0.61598,0.19637 0.23772,0.196371 0.23772,0.502295 h -0.38448 q 0,-0.157096 -0.13436,-0.270784 -0.13229,-0.113688 -0.33486,-0.113688 -0.20877,0 -0.32659,0.09095 -0.11782,0.09095 -0.11782,0.237711 0,0.138493 0.10955,0.208773 0.10955,0.07028 0.39481,0.134359 0.28732,0.06408 0.46508,0.152962 0.17777,0.08888 0.26252,0.214974 0.0868,0.124023 0.0868,0.303857 0,0.299723 -0.23978,0.481624 -0.23978,0.179833 -0.62219,0.179833 -0.26871,0 -0.47542,-0.09508 -0.2067,-0.09508 -0.32453,-0.264583 -0.11575,-0.171566 -0.11575,-0.370003 h 0.3824 q 0.0103,0.192236 0.15297,0.305924 0.14469,0.111621 0.38033,0.111621 0.21705,0 0.34727,-0.08682 0.13229,-0.08888 0.13229,-0.235645 z"
       id="path1467"
       style="font-size:4.23333px;font-family:Roboto;-inkscape-font-specification:Roboto;text-align:center;text-anchor:middle;fill:#262339;stroke-width:0.529167;stroke-linecap:round" /><path
       d="m 120.62828,48.154163 q -0.0331,-0.06614 -0.0537,-0.235644 -0.26665,0.276985 -0.63666,0.276985 -0.33072,0 -0.54363,-0.186035 -0.21084,-0.188102 -0.21084,-0.475422 0,-0.349333 0.26458,-0.541569 0.26665,-0.194303 0.74828,-0.194303 h 0.37207 v -0.1757 q 0,-0.200504 -0.11989,-0.318326 -0.11989,-0.11989 -0.35347,-0.11989 -0.20464,0 -0.34313,0.103353 -0.13849,0.103353 -0.13849,0.250114 h -0.38448 q 0,-0.167432 0.11783,-0.322461 0.11989,-0.157096 0.32246,-0.248046 0.20464,-0.09095 0.44855,-0.09095 0.38654,0 0.60565,0.194303 0.2191,0.192237 0.22737,0.531234 v 1.029393 q 0,0.307992 0.0786,0.489892 v 0.03307 z m -0.63459,-0.291454 q 0.17984,0 0.34107,-0.09302 0.16123,-0.09302 0.23358,-0.241845 v -0.458887 h -0.29973 q -0.7028,0 -0.7028,0.411344 0,0.179834 0.11989,0.28112 0.11989,0.101286 0.30799,0.101286 z"
       id="path1469"
       style="font-size:4.23333px;font-family:Roboto;-inkscape-font-specification:Roboto;text-align:center;text-anchor:middle;fill:#262339;stroke-width:0.529167;stroke-linecap:round" /><path
       d="m 121.90985,45.917609 0.0103,0.248047 q 0.24598,-0.289388 0.66352,-0.289388 0.46923,0 0.63872,0.359668 0.11163,-0.161231 0.28939,-0.260449 0.17984,-0.09922 0.42375,-0.09922 0.73587,0 0.74827,0.77928 v 1.498615 h -0.3824 v -1.475877 q 0,-0.239779 -0.10956,-0.357601 -0.10955,-0.119889 -0.36793,-0.119889 -0.21291,0 -0.35347,0.128157 -0.14056,0.126091 -0.1633,0.341064 v 1.484146 h -0.38447 V 46.68862 q 0,-0.487825 -0.47749,-0.487825 -0.3762,0 -0.5147,0.320393 v 1.632974 h -0.3824 v -2.236554 z"
       id="path1471"
       style="font-size:4.23333px;font-family:Roboto;-inkscape-font-specification:Roboto;text-align:center;text-anchor:middle;fill:#262339;stroke-width:0.529167;stroke-linecap:round" /><path
       d="m 127.14984,47.060691 q 0,0.510563 -0.23358,0.822688 -0.23357,0.312125 -0.63252,0.312125 -0.40721,0 -0.64078,-0.258381 v 1.076935 h -0.38241 v -3.096449 h 0.34933 l 0.0186,0.248047 q 0.23358,-0.289388 0.64905,-0.289388 0.40308,0 0.63666,0.303857 0.23564,0.303857 0.23564,0.845426 z m -0.3824,-0.04341 q 0,-0.378271 -0.16123,-0.597379 -0.16124,-0.219108 -0.44235,-0.219108 -0.34727,0 -0.5209,0.307991 v 1.068668 q 0.17156,0.305924 0.52503,0.305924 0.27492,0 0.43615,-0.217041 0.1633,-0.219108 0.1633,-0.649055 z"
       id="path1473"
       style="font-size:4.23333px;font-family:Roboto;-inkscape-font-specification:Roboto;text-align:center;text-anchor:middle;fill:#262339;stroke-width:0.529167;stroke-linecap:round" /><path
       d="m 128.05108,48.154163 h -0.38241 v -3.174997 h 0.38241 z"
       id="path1475"
       style="font-size:4.23333px;font-family:Roboto;-inkscape-font-specification:Roboto;text-align:center;text-anchor:middle;fill:#262339;stroke-width:0.529167;stroke-linecap:round" /><path
       d="m 129.59103,48.195504 q -0.45475,0 -0.74,-0.297656 -0.28526,-0.299723 -0.28526,-0.79995 v -0.07028 q 0,-0.332796 0.12609,-0.593245 0.12816,-0.262516 0.35554,-0.409277 0.22944,-0.148828 0.49609,-0.148828 0.43615,0 0.678,0.287321 0.24184,0.287321 0.24184,0.822688 v 0.159163 h -1.51515 q 0.008,0.330729 0.19223,0.535368 0.18604,0.202571 0.47129,0.202571 0.20258,0 0.34313,-0.08268 0.14056,-0.08268 0.24598,-0.219108 l 0.23358,0.181901 q -0.28112,0.432014 -0.84336,0.432014 z m -0.0475,-2.005043 q -0.23151,0 -0.38861,0.169498 -0.15709,0.167432 -0.1943,0.471289 h 1.12035 v -0.02894 q -0.0165,-0.291455 -0.1571,-0.450618 -0.14056,-0.16123 -0.38034,-0.16123 z"
       id="path1477"
       style="font-size:4.23333px;font-family:Roboto;-inkscape-font-specification:Roboto;text-align:center;text-anchor:middle;fill:#262339;stroke-width:0.529167;stroke-linecap:round" /><path
       d="m 111.82779,52.352353 q 0,0.510563 -0.23358,0.822688 -0.23357,0.312126 -0.63252,0.312126 -0.40721,0 -0.64078,-0.258382 v 1.076936 h -0.38241 v -3.09645 h 0.34933 l 0.0186,0.248047 q 0.23358,-0.289388 0.64905,-0.289388 0.40308,0 0.63666,0.303858 0.23564,0.303857 0.23564,0.845425 z m -0.3824,-0.04341 q 0,-0.378271 -0.16123,-0.597379 -0.16123,-0.219108 -0.44235,-0.219108 -0.34727,0 -0.5209,0.307991 v 1.068668 q 0.17156,0.305924 0.52503,0.305924 0.27492,0 0.43615,-0.217041 0.1633,-0.219107 0.1633,-0.649055 z"
       id="path1479"
       style="font-size:4.23333px;font-family:Roboto;-inkscape-font-specification:Roboto;text-align:center;text-anchor:middle;fill:#262339;stroke-width:0.529167;stroke-linecap:round" /><path
       d="m 112.21226,52.306878 q 0,-0.328662 0.12816,-0.591178 0.13023,-0.262516 0.35967,-0.405143 0.23151,-0.142627 0.5271,-0.142627 0.45682,0 0.73794,0.31626 0.28318,0.316259 0.28318,0.841291 v 0.02687 q 0,0.326595 -0.12609,0.587044 -0.12402,0.258382 -0.3576,0.403076 -0.23151,0.144694 -0.5333,0.144694 -0.45475,0 -0.73794,-0.31626 -0.28112,-0.316259 -0.28112,-0.837157 z m 0.38448,0.04548 q 0,0.37207 0.17156,0.597379 0.17363,0.225309 0.46302,0.225309 0.29146,0 0.46302,-0.227376 0.17157,-0.229443 0.17157,-0.640787 0,-0.367936 -0.1757,-0.595312 -0.17363,-0.229443 -0.46302,-0.229443 -0.28319,0 -0.45682,0.225309 -0.17363,0.225309 -0.17363,0.644921 z"
       id="path1481"
       style="font-size:4.23333px;font-family:Roboto;-inkscape-font-specification:Roboto;text-align:center;text-anchor:middle;fill:#262339;stroke-width:0.529167;stroke-linecap:round" /><path
       d="m 115.14335,53.445826 h -0.38241 v -3.174998 h 0.38241 z"
       id="path1483"
       style="font-size:4.23333px;font-family:Roboto;-inkscape-font-specification:Roboto;text-align:center;text-anchor:middle;fill:#262339;stroke-width:0.529167;stroke-linecap:round" /><path
       d="m 117.13599,53.445826 q -0.0331,-0.06615 -0.0537,-0.235645 -0.26665,0.276986 -0.63666,0.276986 -0.33073,0 -0.54363,-0.186035 -0.21084,-0.188102 -0.21084,-0.475423 0,-0.349332 0.26458,-0.541569 0.26665,-0.194303 0.74828,-0.194303 h 0.37207 v -0.1757 q 0,-0.200504 -0.11989,-0.318326 -0.11989,-0.119889 -0.35347,-0.119889 -0.20464,0 -0.34313,0.103352 -0.13849,0.103353 -0.13849,0.250114 h -0.38448 q 0,-0.167431 0.11783,-0.322461 0.11988,-0.157096 0.32246,-0.248046 0.20463,-0.09095 0.44855,-0.09095 0.38654,0 0.60564,0.194304 0.21911,0.192236 0.22738,0.531233 v 1.029394 q 0,0.307991 0.0786,0.489892 v 0.03307 z m -0.63459,-0.291455 q 0.17984,0 0.34107,-0.09302 0.16123,-0.09302 0.23358,-0.241845 v -0.458887 h -0.29973 q -0.7028,0 -0.7028,0.411344 0,0.179834 0.11989,0.28112 0.11989,0.101286 0.30799,0.101286 z"
       id="path1485"
       style="font-size:4.23333px;font-family:Roboto;-inkscape-font-specification:Roboto;text-align:center;text-anchor:middle;fill:#262339;stroke-width:0.529167;stroke-linecap:round" /><path
       d="m 119.13897,51.552403 q -0.0868,-0.01447 -0.18811,-0.01447 -0.3762,0 -0.51056,0.320394 v 1.587499 h -0.3824 v -2.236555 h 0.37207 l 0.006,0.258382 q 0.1881,-0.299723 0.5333,-0.299723 0.11162,0 0.1695,0.02894 z"
       id="path1487"
       style="font-size:4.23333px;font-family:Roboto;-inkscape-font-specification:Roboto;text-align:center;text-anchor:middle;fill:#262339;stroke-width:0.529167;stroke-linecap:round" /><path
       d="m 119.90584,53.445826 h -0.3824 v -2.236555 h 0.3824 z m -0.41341,-2.829799 q 0,-0.09302 0.0558,-0.157097 0.0579,-0.06408 0.1695,-0.06408 0.11162,0 0.1695,0.06408 0.0579,0.06408 0.0579,0.157097 0,0.09302 -0.0579,0.155029 -0.0579,0.06201 -0.1695,0.06201 -0.11162,0 -0.1695,-0.06201 -0.0558,-0.06201 -0.0558,-0.155029 z"
       id="path1489"
       style="font-size:4.23333px;font-family:Roboto;-inkscape-font-specification:Roboto;text-align:center;text-anchor:middle;fill:#262339;stroke-width:0.529167;stroke-linecap:round" /><path
       d="m 120.87736,53.1337 h 1.30845 v 0.312126 h -1.7756 v -0.28112 l 1.23403,-1.639175 h -1.21543 v -0.31626 h 1.69498 v 0.270785 z"
       id="path1491"
       style="font-size:4.23333px;font-family:Roboto;-inkscape-font-specification:Roboto;text-align:center;text-anchor:middle;fill:#262339;stroke-width:0.529167;stroke-linecap:round" /><path
       d="m 123.99655,53.445826 q -0.0331,-0.06615 -0.0537,-0.235645 -0.26665,0.276986 -0.63665,0.276986 -0.33073,0 -0.54363,-0.186035 -0.21084,-0.188102 -0.21084,-0.475423 0,-0.349332 0.26458,-0.541569 0.26665,-0.194303 0.74827,-0.194303 h 0.37207 v -0.1757 q 0,-0.200504 -0.11989,-0.318326 -0.11989,-0.119889 -0.35346,-0.119889 -0.20464,0 -0.34313,0.103352 -0.1385,0.103353 -0.1385,0.250114 h -0.38447 q 0,-0.167431 0.11782,-0.322461 0.11989,-0.157096 0.32246,-0.248046 0.20464,-0.09095 0.44855,-0.09095 0.38654,0 0.60565,0.194304 0.21911,0.192236 0.22738,0.531233 v 1.029394 q 0,0.307991 0.0785,0.489892 v 0.03307 z m -0.63459,-0.291455 q 0.17984,0 0.34107,-0.09302 0.16123,-0.09302 0.23357,-0.241845 v -0.458887 h -0.29972 q -0.7028,0 -0.7028,0.411344 0,0.179834 0.11989,0.28112 0.11989,0.101286 0.30799,0.101286 z"
       id="path1493"
       style="font-size:4.23333px;font-family:Roboto;-inkscape-font-specification:Roboto;text-align:center;text-anchor:middle;fill:#262339;stroke-width:0.529167;stroke-linecap:round" /><path
       d="m 125.43728,50.667703 v 0.541568 h 0.41755 v 0.295589 h -0.41755 v 1.386995 q 0,0.134358 0.0558,0.202571 0.0558,0.06615 0.19017,0.06615 0.0661,0 0.1819,-0.02481 v 0.310059 q -0.15089,0.04134 -0.29352,0.04134 -0.25631,0 -0.38654,-0.155029 -0.13022,-0.15503 -0.13022,-0.440283 V 51.50486 h -0.40721 v -0.295589 h 0.40721 v -0.541568 z"
       id="path1495"
       style="font-size:4.23333px;font-family:Roboto;-inkscape-font-specification:Roboto;text-align:center;text-anchor:middle;fill:#262339;stroke-width:0.529167;stroke-linecap:round" /><path
       d="m 126.71679,53.445826 h -0.3824 v -2.236555 h 0.3824 z m -0.41341,-2.829799 q 0,-0.09302 0.0558,-0.157097 0.0579,-0.06408 0.1695,-0.06408 0.11162,0 0.1695,0.06408 0.0579,0.06408 0.0579,0.157097 0,0.09302 -0.0579,0.155029 -0.0579,0.06201 -0.1695,0.06201 -0.11162,0 -0.1695,-0.06201 -0.0558,-0.06201 -0.0558,-0.155029 z"
       id="path1497"
       style="font-size:4.23333px;font-family:Roboto;-inkscape-font-specification:Roboto;text-align:center;text-anchor:middle;fill:#262339;stroke-width:0.529167;stroke-linecap:round" /><path
       d="m 127.22736,52.306878 q 0,-0.328662 0.12815,-0.591178 0.13023,-0.262516 0.35967,-0.405143 0.23151,-0.142627 0.5271,-0.142627 0.45682,0 0.73794,0.31626 0.28319,0.316259 0.28319,0.841291 v 0.02687 q 0,0.326595 -0.1261,0.587044 -0.12402,0.258382 -0.3576,0.403076 -0.23151,0.144694 -0.5333,0.144694 -0.45475,0 -0.73794,-0.31626 -0.28111,-0.316259 -0.28111,-0.837157 z m 0.38447,0.04548 q 0,0.37207 0.17156,0.597379 0.17364,0.225309 0.46302,0.225309 0.29146,0 0.46302,-0.227376 0.17157,-0.229443 0.17157,-0.640787 0,-0.367936 -0.1757,-0.595312 -0.17363,-0.229443 -0.46302,-0.229443 -0.28319,0 -0.45682,0.225309 -0.17363,0.225309 -0.17363,0.644921 z"
       id="path1499"
       style="font-size:4.23333px;font-family:Roboto;-inkscape-font-specification:Roboto;text-align:center;text-anchor:middle;fill:#262339;stroke-width:0.529167;stroke-linecap:round" /><path
       d="m 130.1047,51.209271 0.0124,0.28112 q 0.25631,-0.322461 0.66972,-0.322461 0.709,0 0.71521,0.799951 v 1.477945 h -0.38241 v -1.480012 q -0.002,-0.241846 -0.11162,-0.357601 -0.10749,-0.115755 -0.33693,-0.115755 -0.18604,0 -0.3266,0.09922 -0.14056,0.09922 -0.2191,0.260449 v 1.5937 h -0.38241 v -2.236555 z"
       id="path1501"
       style="font-size:4.23333px;font-family:Roboto;-inkscape-font-specification:Roboto;text-align:center;text-anchor:middle;fill:#262339;stroke-width:0.529167;stroke-linecap:round" /><path
       style="fill:none;fill-opacity:1;stroke:#262339;stroke-width:0.396875;stroke-linecap:round;stroke-linejoin:round;stroke-dasharray:none;stroke-opacity:1"
       d="M 93.927081,56.885415 108.89258,49.832616"
       id="path7914"
       sodipodi:nodetypes="cc" /><path
       id="path1191"
       style="fill:#000000;fill-opacity:0;stroke:#ffffbf;stroke-width:0.79375;stroke-linecap:round;stroke-dasharray:0.79375, 2.38125;stroke-dashoffset:0;stroke-opacity:1;marker-end:url(#TriangleStart141537979029)"
       class="UnoptimicedTransforms"
       d="M 89.679493,50.782001 21.166666,2.6458333"
       sodipodi:nodetypes="cc" /><path
       id="path1195"
       style="fill:#000000;fill-opacity:0;stroke:#ffffbf;stroke-width:0.79375;stroke-linecap:round;stroke-dasharray:none;stroke-dashoffset:0;stroke-opacity:1;marker-start:url(#TriangleStart9583148793)"
       class="UnoptimicedTransforms"
       d="M 85.48413,42.312126 35.718749,2.6458333"
       sodipodi:nodetypes="cc" /><path
       d="m 33.465657,16.25694 -1.035117,-0.727223 -0.765372,0.765801 1.204254,0.846051 -0.233919,0.232271 -1.520539,-1.068256 2.158041,-2.161999 1.503626,1.056374 -0.235107,0.233963 -1.18565,-0.832979 -0.693112,0.69531 1.035118,0.727223 z"
       style="font-style:italic;font-size:4.23333px;font-family:Roboto;-inkscape-font-specification:'Roboto Italic';fill:#ffffbf;stroke-width:0.529167;stroke-linecap:round"
       id="path1448" /><path
       d="m 33.451905,18.501019 q 0.102994,-0.111548 -0.01319,-0.268706 L 33.274511,18.02664 q -0.198319,-0.273976 -0.04277,-0.476681 0.118141,-0.151809 0.323657,-0.156848 0.207383,-0.0054 0.389436,0.125817 0.178754,0.128871 0.21829,0.310994 0.04141,0.181797 -0.07885,0.343617 l -0.197121,-0.140125 q 0.06477,-0.0875 0.04589,-0.184509 -0.01888,-0.097 -0.114079,-0.167173 -0.101796,-0.07481 -0.21363,-0.07455 -0.104022,8.1e-4 -0.171395,0.07334 -0.0869,0.0933 0.02061,0.23944 l 0.08073,0.09777 q 0.167412,0.196433 0.193691,0.341332 0.02628,0.144898 -0.06837,0.265595 -0.08464,0.106382 -0.208501,0.142514 -0.123895,0.03611 -0.264726,0.0028 -0.140061,-0.03436 -0.261974,-0.124938 -0.187549,-0.13505 -0.23499,-0.329294 -0.04667,-0.195345 0.07745,-0.362661 l 0.198219,0.140896 q -0.07029,0.100045 -0.049,0.20531 0.02129,0.105265 0.132323,0.183274 0.107293,0.07867 0.219662,0.087 0.113143,0.0072 0.182836,-0.06859 z"
       style="font-size:2.75166px;font-family:Roboto;-inkscape-font-specification:Roboto;baseline-shift:sub;fill:#ffffbf;stroke-width:0.529167;stroke-linecap:round"
       id="path1450" /><path
       d="m 34.228606,19.314341 q 0.105094,0.07712 0.235646,0.0736 0.131324,-0.0046 0.231084,-0.09052 l 0.188766,0.13098 q -0.09527,0.100554 -0.233812,0.141151 -0.137442,0.04137 -0.284779,0.01503 -0.147341,-0.02634 -0.261559,-0.111508 -0.146871,-0.106472 -0.197693,-0.253832 -0.04895,-0.147689 -0.0031,-0.315799 0.04663,-0.169211 0.180192,-0.326605 l 0.0441,-0.05112 q 0.141381,-0.156829 0.315538,-0.236444 0.17416,-0.07961 0.354209,-0.06478 0.180823,0.01374 0.331648,0.126268 0.183809,0.135698 0.210983,0.335417 0.02718,0.199715 -0.103356,0.385512 L 35.051455,18.94007 q 0.07966,-0.118088 0.06721,-0.233565 -0.01169,-0.116589 -0.115241,-0.195904 -0.152696,-0.112202 -0.339455,-0.06607 -0.18566,0.0469 -0.360787,0.24242 l -0.02335,0.02628 q -0.05606,0.06571 -0.104163,0.143567 -0.08268,0.134033 -0.07033,0.254366 0.01234,0.120328 0.123261,0.203182 z"
       style="font-size:2.75166px;font-family:Roboto;-inkscape-font-specification:Roboto;baseline-shift:sub;fill:#ffffbf;stroke-width:0.529167;stroke-linecap:round"
       id="path1452" /><path
       d="m 35.507931,20.426595 q 0.01471,-0.03729 0.03633,-0.06807 l 0.0473,-0.06037 q -0.270397,0.03663 -0.450906,-0.09675 -0.155666,-0.112651 -0.186643,-0.278908 -0.0291,-0.166588 0.08242,-0.306628 0.143846,-0.181368 0.371905,-0.178779 0.229935,0.0023 0.481695,0.179138 l 0.207014,0.147076 0.07961,-0.08528 q 0.08592,-0.09892 0.07639,-0.197559 -0.0076,-0.09897 -0.110543,-0.174542 -0.100696,-0.07403 -0.216928,-0.07687 -0.114355,-0.0032 -0.192194,0.07023 L 35.53253,19.159806 q 0.08327,-0.09749 0.21111,-0.127544 0.128613,-0.03115 0.271649,0.0037 0.143805,0.03371 0.262094,0.120095 0.18271,0.134926 0.209584,0.316372 0.02765,0.180344 -0.114738,0.347958 l -0.51074,0.521304 -0.06496,0.0808 q -0.04469,0.05891 -0.071,0.1291 l -0.01534,0.01714 z m -0.204095,-0.37327 q 0.0941,0.0694 0.211968,0.0816 0.119737,0.01187 0.240776,-0.02953 l 0.215116,-0.215041 -0.149845,-0.106912 q -0.187997,-0.132077 -0.329749,-0.142996 -0.141753,-0.01092 -0.231411,0.08865 -0.06859,0.0766 -0.05962,0.166652 0.01085,0.08973 0.102757,0.157577 z"
       style="font-size:2.75166px;font-family:Roboto;-inkscape-font-specification:Roboto;baseline-shift:sub;fill:#ffffbf;stroke-width:0.529167;stroke-linecap:round"
       id="path1454" /><path
       d="m 37.543152,19.649562 -0.252931,0.252514 0.21658,0.152158 -0.137935,0.137903 -0.21548,-0.151386 -0.644041,0.65261 q -0.02336,0.02629 -0.03814,0.05202 -0.05255,0.09116 0.0332,0.151404 0.03628,0.02549 0.10447,0.05698 l -0.132021,0.155195 q -0.08536,-0.03041 -0.159022,-0.08216 -0.117188,-0.08562 -0.117083,-0.211977 8.81e-4,-0.127458 0.115253,-0.262211 l 0.638426,-0.651629 -0.209984,-0.147525 0.137935,-0.137903 0.209984,0.147525 0.252939,-0.252508 z"
       style="font-size:2.75166px;font-family:Roboto;-inkscape-font-specification:Roboto;baseline-shift:sub;fill:#ffffbf;stroke-width:0.529167;stroke-linecap:round"
       id="path1456" /><path
       d="m 23.019665,39.456983 -1.161082,-0.502204 -0.594174,0.905097 1.350801,0.584264 -0.181957,0.274882 -1.705577,-0.737716 1.674777,-2.554702 1.686604,0.729509 -0.182778,0.276779 -1.329932,-0.575237 -0.537712,0.821418 1.161082,0.502204 z"
       style="font-style:italic;font-size:4.23333px;font-family:Roboto;-inkscape-font-specification:'Roboto Italic';fill:#ffffbf;stroke-width:0.529167;stroke-linecap:round"
       id="path1441" /><path
       d="m 22.720462,41.76572 -0.221972,-0.09601 0.808962,-1.234019 0.221972,0.09601 z m 0.971556,-1.741926 q 0.0578,0.02206 0.07879,0.07507 0.02276,0.05229 -0.0028,0.111489 -0.02626,0.05745 -0.0793,0.07842 -0.05176,0.02153 -0.110788,-0.0011 -0.05903,-0.02259 -0.08055,-0.07437 -0.02153,-0.05176 0.0048,-0.109188 0.02626,-0.05745 0.0786,-0.08019 0.05229,-0.02276 0.111324,-1.58e-4 z"
       style="font-size:2.75166px;font-family:Roboto;-inkscape-font-specification:Roboto;baseline-shift:sub;fill:#ffffbf;stroke-width:0.529167;stroke-linecap:round"
       id="path1443" /><path
       d="m 24.10585,40.779559 -0.105133,0.155079 q 0.265386,-0.119433 0.492623,-0.01529 0.186532,0.08657 0.222158,0.251262 0.03561,0.16472 -0.08649,0.382722 l -0.523686,0.811383 -0.223205,-0.09654 0.52652,-0.814548 q 0.03357,-0.05721 0.04973,-0.111703 0.05371,-0.181712 -0.127201,-0.264353 -0.199419,-0.09061 -0.445496,0.06202 l -0.577021,0.880538 -0.223205,-0.09654 0.808962,-1.234019 z"
       style="font-size:2.75166px;font-family:Roboto;-inkscape-font-specification:Roboto;baseline-shift:sub;fill:#ffffbf;stroke-width:0.529167;stroke-linecap:round"
       id="path1445" /><path
       d="m 90.478891,73.026031 v -1.940965 h -0.353467 v -0.295589 h 0.353467 v -0.229443 q 0,-0.359667 0.192236,-0.556038 0.192236,-0.19637 0.543635,-0.19637 0.132292,0 0.262516,0.03514 l -0.02067,0.310058 q -0.09715,-0.0186 -0.206706,-0.0186 -0.186035,0 -0.28732,0.109554 -0.101286,0.107487 -0.101286,0.310058 v 0.235644 h 0.47749 v 0.295589 h -0.47749 v 1.940965 z"
       id="path1404"
       style="font-size:4.23333px;font-family:Roboto;-inkscape-font-specification:Roboto;text-align:center;text-anchor:middle;fill:#262339;stroke-width:0.529167;stroke-linecap:round" /><path
       d="m 93.141258,73.026031 q -0.03307,-0.06615 -0.05374,-0.235644 -0.266651,0.276986 -0.636653,0.276986 -0.330729,0 -0.543636,-0.186035 -0.21084,-0.188102 -0.21084,-0.475423 0,-0.349333 0.264583,-0.541569 0.266651,-0.194303 0.748274,-0.194303 h 0.37207 v -0.1757 q 0,-0.200504 -0.119889,-0.318326 -0.119889,-0.119889 -0.353466,-0.119889 -0.204639,0 -0.343131,0.103352 -0.138493,0.103353 -0.138493,0.250114 h -0.384473 q 0,-0.167431 0.117823,-0.322461 0.119889,-0.157096 0.32246,-0.248046 0.204639,-0.09095 0.448551,-0.09095 0.38654,0 0.605648,0.194303 0.219108,0.192237 0.227376,0.531234 v 1.029393 q 0,0.307992 0.07855,0.489893 v 0.03307 z m -0.634586,-0.291454 q 0.179834,0 0.341064,-0.09302 0.161231,-0.09302 0.233577,-0.241845 V 71.940827 H 92.78159 q -0.702798,0 -0.702798,0.411344 0,0.179834 0.119889,0.28112 0.119889,0.101286 0.307991,0.101286 z"
       id="path1406"
       style="font-size:4.23333px;font-family:Roboto;-inkscape-font-specification:Roboto;text-align:center;text-anchor:middle;fill:#262339;stroke-width:0.529167;stroke-linecap:round" /><path
       d="m 95.144235,71.132609 q -0.08682,-0.01447 -0.188102,-0.01447 -0.376204,0 -0.510563,0.320394 v 1.587498 h -0.382405 v -2.236554 h 0.37207 l 0.0062,0.258382 q 0.188102,-0.299723 0.5333,-0.299723 0.111621,0 0.169499,0.02894 z"
       id="path1408"
       style="font-size:4.23333px;font-family:Roboto;-inkscape-font-specification:Roboto;text-align:center;text-anchor:middle;fill:#262339;stroke-width:0.529167;stroke-linecap:round" /><path
       d="m 96.291451,71.90362 h -1.008723 v -0.312125 h 1.008723 z"
       id="path1410"
       style="font-size:4.23333px;font-family:Roboto;-inkscape-font-specification:Roboto;text-align:center;text-anchor:middle;fill:#262339;stroke-width:0.529167;stroke-linecap:round" /><path
       d="m 96.791678,73.026031 v -1.940965 h -0.353466 v -0.295589 h 0.353466 v -0.190169 q 0,-0.374137 0.212907,-0.582909 0.214974,-0.208773 0.605647,-0.208773 0.23151,0 0.584977,0.12609 l -0.06408,0.322461 q -0.258382,-0.103353 -0.491959,-0.103353 -0.24598,0 -0.355534,0.111621 -0.107487,0.109554 -0.107487,0.330729 v 0.194303 h 0.45682 v 0.295589 h -0.45682 v 1.940965 z m 1.5937,0 h -0.384472 v -2.236554 h 0.384472 z"
       id="path1412"
       style="font-size:4.23333px;font-family:Roboto;-inkscape-font-specification:Roboto;text-align:center;text-anchor:middle;fill:#262339;stroke-width:0.529167;stroke-linecap:round" /><path
       d="m 99.935669,73.067373 q -0.454752,0 -0.740005,-0.297656 -0.285254,-0.299723 -0.285254,-0.799951 v -0.07028 q 0,-0.332796 0.12609,-0.593245 0.128158,-0.262516 0.355534,-0.409277 0.229443,-0.148828 0.496093,-0.148828 0.436153,0 0.677993,0.287321 0.24185,0.287321 0.24185,0.822688 v 0.159163 h -1.515155 q 0.0083,0.330729 0.192236,0.535368 0.186035,0.202571 0.471289,0.202571 0.20257,0 0.34313,-0.08268 0.14056,-0.08268 0.24598,-0.219108 l 0.23358,0.181901 q -0.28112,0.432015 -0.843361,0.432015 z m -0.04754,-2.005044 q -0.23151,0 -0.388606,0.169498 -0.157096,0.167432 -0.194303,0.471289 h 1.12034 v -0.02894 q -0.0165,-0.291455 -0.15709,-0.450618 -0.14056,-0.16123 -0.380341,-0.16123 z"
       id="path1414"
       style="font-size:4.23333px;font-family:Roboto;-inkscape-font-specification:Roboto;text-align:center;text-anchor:middle;fill:#262339;stroke-width:0.529167;stroke-linecap:round" /><path
       d="m 101.66579,73.026031 h -0.3824 v -3.174997 h 0.3824 z"
       id="path1416"
       style="font-size:4.23333px;font-family:Roboto;-inkscape-font-specification:Roboto;text-align:center;text-anchor:middle;fill:#262339;stroke-width:0.529167;stroke-linecap:round" /><path
       d="m 102.18463,71.889151 q 0,-0.514697 0.24391,-0.826822 0.24391,-0.314193 0.63872,-0.314193 0.39274,0 0.62218,0.268717 v -1.165819 h 0.38241 v 3.174997 h -0.3514 l -0.0186,-0.239778 q -0.22944,0.28112 -0.63872,0.28112 -0.3886,0 -0.63458,-0.318327 -0.24391,-0.318327 -0.24391,-0.830956 z m 0.3824,0.04341 q 0,0.380338 0.1571,0.595312 0.15709,0.214974 0.43408,0.214974 0.3638,0 0.53123,-0.326595 v -1.027327 q -0.17156,-0.316259 -0.5271,-0.316259 -0.28112,0 -0.43821,0.217041 -0.1571,0.217041 -0.1571,0.642854 z"
       id="path1418"
       style="font-size:4.23333px;font-family:Roboto;-inkscape-font-specification:Roboto;text-align:center;text-anchor:middle;fill:#262339;stroke-width:0.529167;stroke-linecap:round" /><path
       d="m 88.638178,76.424271 q -0.08682,-0.01447 -0.188102,-0.01447 -0.376205,0 -0.510563,0.320394 v 1.587499 H 87.557108 V 76.08114 h 0.37207 l 0.0062,0.258382 q 0.188102,-0.299724 0.5333,-0.299724 0.111621,0 0.169499,0.02894 z"
       id="path1420"
       style="font-size:4.23333px;font-family:Roboto;-inkscape-font-specification:Roboto;text-align:center;text-anchor:middle;fill:#262339;stroke-width:0.529167;stroke-linecap:round" /><path
       d="m 89.878411,78.359035 q -0.454752,0 -0.740006,-0.297656 -0.285254,-0.299723 -0.285254,-0.799951 v -0.07028 q 0,-0.332796 0.126091,-0.593245 0.128157,-0.262516 0.355533,-0.409277 0.229443,-0.148828 0.496094,-0.148828 0.436148,0 0.677994,0.287321 0.241845,0.287321 0.241845,0.822688 v 0.159164 h -1.515151 q 0.0083,0.330728 0.192236,0.535367 0.186035,0.202571 0.471288,0.202571 0.202572,0 0.343132,-0.08268 0.140559,-0.08268 0.245979,-0.219108 l 0.233578,0.181901 q -0.28112,0.432015 -0.843359,0.432015 z m -0.04754,-2.005044 q -0.231511,0 -0.388607,0.169498 -0.157096,0.167432 -0.194303,0.471289 h 1.120344 v -0.02894 q -0.01654,-0.291454 -0.157096,-0.450618 -0.14056,-0.16123 -0.380338,-0.16123 z"
       id="path1422"
       style="font-size:4.23333px;font-family:Roboto;-inkscape-font-specification:Roboto;text-align:center;text-anchor:middle;fill:#262339;stroke-width:0.529167;stroke-linecap:round" /><path
       d="m 92.590388,75.467224 q -0.256315,-0.04134 -0.413411,-0.04134 -0.413412,0 -0.413412,0.434082 v 0.221175 h 0.47749 v 0.295589 h -0.47749 v 1.940965 H 91.38116 V 76.376729 H 91.027694 V 76.08114 h 0.353466 v -0.243913 q 0.0021,-0.357601 0.200505,-0.54777 0.198437,-0.190169 0.564306,-0.190169 0.208772,0 0.826822,0.126091 v 3.092315 h -0.382405 z"
       id="path1424"
       style="font-size:4.23333px;font-family:Roboto;-inkscape-font-specification:Roboto;text-align:center;text-anchor:middle;fill:#262339;stroke-width:0.529167;stroke-linecap:round" /><path
       d="m 94.525152,78.359035 q -0.454753,0 -0.740006,-0.297656 -0.285254,-0.299723 -0.285254,-0.799951 v -0.07028 q 0,-0.332796 0.12609,-0.593245 0.128158,-0.262516 0.355534,-0.409277 0.229443,-0.148828 0.496093,-0.148828 0.436149,0 0.677994,0.287321 0.241846,0.287321 0.241846,0.822688 v 0.159164 h -1.515152 q 0.0083,0.330728 0.192236,0.535367 0.186035,0.202571 0.471289,0.202571 0.202572,0 0.343131,-0.08268 0.14056,-0.08268 0.24598,-0.219108 l 0.233577,0.181901 q -0.281119,0.432015 -0.843358,0.432015 z m -0.04754,-2.005044 q -0.23151,0 -0.388606,0.169498 -0.157096,0.167432 -0.194303,0.471289 h 1.120344 v -0.02894 Q 94.998507,76.674384 94.85795,76.51522 94.717391,76.35399 94.477612,76.35399 Z"
       id="path1426"
       style="font-size:4.23333px;font-family:Roboto;-inkscape-font-specification:Roboto;text-align:center;text-anchor:middle;fill:#262339;stroke-width:0.529167;stroke-linecap:round" /><path
       d="m 96.736901,78.046909 q 0.204638,0 0.3576,-0.124023 0.152962,-0.124023 0.169499,-0.310058 h 0.361735 q -0.01034,0.192236 -0.132292,0.365869 -0.121956,0.173632 -0.326595,0.276985 -0.202571,0.103353 -0.429947,0.103353 -0.45682,0 -0.727604,-0.303857 -0.268717,-0.305925 -0.268717,-0.835091 v -0.06408 q 0,-0.326594 0.119889,-0.580842 0.119889,-0.254248 0.343131,-0.394808 0.225309,-0.14056 0.531234,-0.14056 0.376204,0 0.62425,0.22531 0.250114,0.225309 0.266651,0.584976 H 97.264 q -0.01654,-0.217041 -0.165365,-0.355533 -0.146761,-0.14056 -0.363801,-0.14056 -0.291455,0 -0.452686,0.21084 -0.159163,0.208772 -0.159163,0.605647 v 0.07235 q 0,0.386539 0.159163,0.595312 0.159164,0.208772 0.454753,0.208772 z"
       id="path1428"
       style="font-size:4.23333px;font-family:Roboto;-inkscape-font-specification:Roboto;text-align:center;text-anchor:middle;fill:#262339;stroke-width:0.529167;stroke-linecap:round" /><path
       d="m 98.574514,75.539571 v 0.541569 h 0.417545 v 0.295589 h -0.417545 v 1.386994 q 0,0.134358 0.05581,0.202571 0.05581,0.06615 0.190169,0.06615 0.06615,0 0.181901,-0.02481 v 0.310059 q -0.150895,0.04134 -0.293522,0.04134 -0.256315,0 -0.386539,-0.155029 -0.130225,-0.15503 -0.130225,-0.440283 v -1.386994 h -0.40721 V 76.08114 h 0.40721 v -0.541569 z"
       id="path1430"
       style="font-size:4.23333px;font-family:Roboto;-inkscape-font-specification:Roboto;text-align:center;text-anchor:middle;fill:#262339;stroke-width:0.529167;stroke-linecap:round" /><path
       d="M 99.854021,78.317694 H 99.471616 V 76.08114 h 0.382405 z M 99.44061,75.487895 q 0,-0.09302 0.05581,-0.157097 0.05788,-0.06408 0.169499,-0.06408 0.111621,0 0.169499,0.06408 0.05788,0.06408 0.05788,0.157097 0,0.09302 -0.05788,0.155029 -0.05788,0.06201 -0.169499,0.06201 -0.111621,0 -0.169499,-0.06201 -0.05581,-0.06201 -0.05581,-0.155029 z"
       id="path1432"
       style="font-size:4.23333px;font-family:Roboto;-inkscape-font-specification:Roboto;text-align:center;text-anchor:middle;fill:#262339;stroke-width:0.529167;stroke-linecap:round" /><path
       d="m 100.36458,77.178746 q 0,-0.328662 0.12816,-0.591178 0.13023,-0.262516 0.35967,-0.405143 0.23151,-0.142627 0.5271,-0.142627 0.45682,0 0.73794,0.31626 0.28318,0.316259 0.28318,0.841292 v 0.02687 q 0,0.326595 -0.12609,0.587044 -0.12402,0.258382 -0.3576,0.403076 -0.23151,0.144694 -0.5333,0.144694 -0.45475,0 -0.73794,-0.31626 -0.28112,-0.316259 -0.28112,-0.837157 z m 0.38448,0.04547 q 0,0.37207 0.17156,0.597379 0.17363,0.225309 0.46302,0.225309 0.29146,0 0.46302,-0.227376 0.17157,-0.229443 0.17157,-0.640787 0,-0.367936 -0.1757,-0.595312 -0.17363,-0.229443 -0.46302,-0.229443 -0.28319,0 -0.45682,0.225309 -0.17363,0.225309 -0.17363,0.644921 z"
       id="path1434"
       style="font-size:4.23333px;font-family:Roboto;-inkscape-font-specification:Roboto;text-align:center;text-anchor:middle;fill:#262339;stroke-width:0.529167;stroke-linecap:round" /><path
       d="m 103.24192,76.08114 0.0124,0.281119 q 0.25631,-0.322461 0.66972,-0.322461 0.709,0 0.7152,0.799951 v 1.477945 h -0.3824 v -1.480012 q -0.002,-0.241846 -0.11162,-0.357601 -0.10749,-0.115755 -0.33693,-0.115755 -0.18604,0 -0.3266,0.09922 -0.14056,0.09922 -0.21911,0.260449 v 1.5937 h -0.3824 V 76.08114 Z"
       id="path1436"
       style="font-size:4.23333px;font-family:Roboto;-inkscape-font-specification:Roboto;text-align:center;text-anchor:middle;fill:#262339;stroke-width:0.529167;stroke-linecap:round" /><path
       d="m 106.51821,77.724449 q 0,-0.155029 -0.11782,-0.239779 -0.11576,-0.08682 -0.40721,-0.148828 -0.28939,-0.06201 -0.46096,-0.148828 -0.1695,-0.08682 -0.25218,-0.206705 -0.0806,-0.119889 -0.0806,-0.285254 0,-0.274918 0.23151,-0.465087 0.23357,-0.19017 0.59531,-0.19017 0.38034,0 0.61598,0.196371 0.23771,0.19637 0.23771,0.502294 h -0.38447 q 0,-0.157096 -0.13436,-0.270784 -0.13229,-0.113688 -0.33486,-0.113688 -0.20877,0 -0.3266,0.09095 -0.11782,0.09095 -0.11782,0.237712 0,0.138492 0.10956,0.208772 0.10955,0.07028 0.3948,0.134359 0.28732,0.06408 0.46509,0.152962 0.17777,0.08888 0.26252,0.214974 0.0868,0.124023 0.0868,0.303857 0,0.299723 -0.23978,0.481624 -0.23977,0.179834 -0.62218,0.179834 -0.26872,0 -0.47542,-0.09509 -0.20671,-0.09508 -0.32453,-0.264583 -0.11575,-0.171565 -0.11575,-0.370003 h 0.3824 q 0.0103,0.192236 0.15296,0.305924 0.1447,0.111621 0.38034,0.111621 0.21704,0 0.34727,-0.08682 0.13229,-0.08888 0.13229,-0.235644 z"
       id="path1438"
       style="font-size:4.23333px;font-family:Roboto;-inkscape-font-specification:Roboto;text-align:center;text-anchor:middle;fill:#262339;stroke-width:0.529167;stroke-linecap:round" /><path
       style="fill:none;fill-opacity:1;stroke:#262339;stroke-width:0.396875;stroke-linecap:round;stroke-linejoin:round;stroke-dasharray:none;stroke-opacity:1"
       d="M 78.15967,59.266709 88.635415,72.760415"
       id="path630"
       sodipodi:nodetypes="cc" /></g></svg>
