<?xml version="1.0" encoding="UTF-8" standalone="no"?>
<!-- Created with Inkscape (http://www.inkscape.org/) -->

<svg
   width="544"
   height="336"
   viewBox="0 0 143.93333 88.899998"
   version="1.1"
   id="svg7194"
   inkscape:version="1.2 (dc2aedaf03, 2022-05-15)"
   sodipodi:docname="tip_sample.svg"
   xml:space="preserve"
   xmlns:inkscape="http://www.inkscape.org/namespaces/inkscape"
   xmlns:sodipodi="http://sodipodi.sourceforge.net/DTD/sodipodi-0.dtd"
   xmlns:xlink="http://www.w3.org/1999/xlink"
   xmlns="http://www.w3.org/2000/svg"
   xmlns:svg="http://www.w3.org/2000/svg"><sodipodi:namedview
     id="namedview7196"
     pagecolor="#ffffff"
     bordercolor="#000000"
     borderopacity="0.25"
     inkscape:showpageshadow="2"
     inkscape:pageopacity="0.0"
     inkscape:pagecheckerboard="0"
     inkscape:deskcolor="#d1d1d1"
     inkscape:document-units="px"
     showgrid="false"
     inkscape:zoom="2"
     inkscape:cx="390.75"
     inkscape:cy="169.25"
     inkscape:window-width="2400"
     inkscape:window-height="1271"
     inkscape:window-x="-9"
     inkscape:window-y="-9"
     inkscape:window-maximized="1"
     inkscape:current-layer="layer1"><inkscape:grid
       type="xygrid"
       id="grid860" /></sodipodi:namedview><defs
     id="defs7191"><linearGradient
       inkscape:collect="always"
       id="linearGradient1699"><stop
         style="stop-color:#d53e4f;stop-opacity:1;"
         offset="0"
         id="stop1695" /><stop
         style="stop-color:#9e0142;stop-opacity:1;"
         offset="1"
         id="stop1697" /></linearGradient><inkscape:path-effect
       effect="mirror_symmetry"
       start_point="0,59.27"
       end_point="1,59.267"
       center_point="74.537664,47.349874"
       id="path-effect16745"
       is_visible="true"
       lpeversion="1.2"
       lpesatellites=""
       mode="free"
       discard_orig_path="false"
       fuse_paths="false"
       oposite_fuse="false"
       split_items="false"
       split_open="false"
       link_styles="false" /><inkscape:path-effect
       effect="mirror_symmetry"
       start_point="0,59.27"
       end_point="1,59.267"
       center_point="74.537664,47.349874"
       id="path-effect16739"
       is_visible="true"
       lpeversion="1.2"
       lpesatellites=""
       mode="free"
       discard_orig_path="false"
       fuse_paths="false"
       oposite_fuse="false"
       split_items="false"
       split_open="false"
       link_styles="false" /><inkscape:path-effect
       effect="mirror_symmetry"
       start_point="0,59.27"
       end_point="1,59.267"
       center_point="74.537664,47.349874"
       id="path-effect16729"
       is_visible="true"
       lpeversion="1.2"
       lpesatellites=""
       mode="free"
       discard_orig_path="false"
       fuse_paths="false"
       oposite_fuse="false"
       split_items="false"
       split_open="false"
       link_styles="false" /><inkscape:path-effect
       effect="mirror_symmetry"
       start_point="0,0"
       end_point="100,88.899994"
       center_point="143.93334,45.772914"
       id="path-effect16719"
       is_visible="true"
       lpeversion="1.2"
       lpesatellites=""
       mode="free"
       discard_orig_path="false"
       fuse_paths="false"
       oposite_fuse="false"
       split_items="false"
       split_open="false"
       link_styles="false" /><linearGradient
       inkscape:collect="always"
       id="linearGradient12801"><stop
         style="stop-color:#808080;stop-opacity:1;"
         offset="0"
         id="stop12797" /><stop
         style="stop-color:#808080;stop-opacity:1"
         offset="1"
         id="stop12799" /></linearGradient><linearGradient
       inkscape:collect="always"
       id="linearGradient12793"><stop
         style="stop-color:#999999;stop-opacity:1;"
         offset="0"
         id="stop12789" /><stop
         style="stop-color:#666666;stop-opacity:1"
         offset="1"
         id="stop12791" /></linearGradient><linearGradient
       inkscape:collect="always"
       id="linearGradient12661"><stop
         style="stop-color:#b3b3b3;stop-opacity:1"
         offset="0"
         id="stop12657" /><stop
         style="stop-color:#999999;stop-opacity:1"
         offset="1"
         id="stop12659" /></linearGradient><linearGradient
       inkscape:collect="always"
       id="linearGradient12197"><stop
         style="stop-color:#999999;stop-opacity:1"
         offset="0"
         id="stop12193" /><stop
         style="stop-color:#cccccc;stop-opacity:1;"
         offset="1"
         id="stop12195" /></linearGradient><inkscape:path-effect
       effect="fillet_chamfer"
       id="path-effect7717"
       is_visible="true"
       lpeversion="1"
       nodesatellites_param="F,0,0,1,0,1.3229176,0,1 @ F,0,0,1,0,1.3229225,0,1 @ F,0,0,1,0,1.3229225,0,1 @ F,0,0,1,0,1.3229176,0,1"
       unit="px"
       method="auto"
       mode="F"
       radius="0"
       chamfer_steps="1"
       flexible="false"
       use_knot_distance="true"
       apply_no_radius="true"
       apply_with_radius="true"
       only_selected="false"
       hide_knots="false" /><inkscape:path-effect
       effect="fillet_chamfer"
       id="path-effect7713"
       is_visible="true"
       lpeversion="1"
       nodesatellites_param="F,0,0,1,0,1.3229176,0,1 @ F,0,0,1,0,1.3229225,0,1 @ F,0,0,1,0,1.3229225,0,1 @ F,0,0,1,0,1.3229176,0,1"
       unit="px"
       method="auto"
       mode="F"
       radius="0"
       chamfer_steps="1"
       flexible="false"
       use_knot_distance="true"
       apply_no_radius="true"
       apply_with_radius="true"
       only_selected="false"
       hide_knots="false" /><inkscape:path-effect
       effect="fillet_chamfer"
       id="path-effect7709"
       is_visible="true"
       lpeversion="1"
       nodesatellites_param="F,0,0,1,0,0,0,1 @ F,0,0,1,0,5.9456015,0,1 @ F,0,0,1,0,0,0,1"
       unit="px"
       method="auto"
       mode="F"
       radius="0"
       chamfer_steps="1"
       flexible="false"
       use_knot_distance="true"
       apply_no_radius="true"
       apply_with_radius="true"
       only_selected="false"
       hide_knots="false" /><inkscape:path-effect
       effect="fillet_chamfer"
       id="path-effect7697"
       is_visible="true"
       lpeversion="1"
       nodesatellites_param="F,0,0,1,0,1.3229176,0,1 @ F,0,0,1,0,1.3229225,0,1 @ F,0,0,1,0,1.3229225,0,1 @ F,0,0,1,0,1.3229176,0,1"
       unit="px"
       method="auto"
       mode="F"
       radius="0"
       chamfer_steps="1"
       flexible="false"
       use_knot_distance="true"
       apply_no_radius="true"
       apply_with_radius="true"
       only_selected="false"
       hide_knots="false" /><inkscape:path-effect
       effect="fillet_chamfer"
       id="path-effect7689"
       is_visible="true"
       lpeversion="1"
       nodesatellites_param="F,0,0,1,0,1.3229176,0,1 @ F,0,0,1,0,1.3229225,0,1 @ F,0,0,1,0,1.3229225,0,1 @ F,0,0,1,0,1.3229176,0,1"
       unit="px"
       method="auto"
       mode="F"
       radius="0"
       chamfer_steps="1"
       flexible="false"
       use_knot_distance="true"
       apply_no_radius="true"
       apply_with_radius="true"
       only_selected="false"
       hide_knots="false" /><inkscape:path-effect
       effect="fillet_chamfer"
       id="path-effect6793"
       is_visible="true"
       lpeversion="1"
       nodesatellites_param="F,0,0,1,0,0,0,1 @ F,0,0,1,0,5.9456015,0,1 @ F,0,0,1,0,0,0,1"
       unit="px"
       method="auto"
       mode="F"
       radius="0"
       chamfer_steps="1"
       flexible="false"
       use_knot_distance="true"
       apply_no_radius="true"
       apply_with_radius="true"
       only_selected="false"
       hide_knots="false" /><inkscape:path-effect
       effect="fillet_chamfer"
       id="path-effect6787"
       is_visible="true"
       lpeversion="1"
       nodesatellites_param="F,0,0,1,0,1.3229176,0,1 @ F,0,0,1,0,1.3229225,0,1 @ F,0,0,1,0,1.3229225,0,1 @ F,0,0,1,0,1.3229176,0,1"
       unit="px"
       method="auto"
       mode="F"
       radius="0"
       chamfer_steps="1"
       flexible="false"
       use_knot_distance="true"
       apply_no_radius="true"
       apply_with_radius="true"
       only_selected="false"
       hide_knots="false" /><linearGradient
       inkscape:collect="always"
       id="linearGradient4470"><stop
         style="stop-color:#fdae61;stop-opacity:1;"
         offset="0"
         id="stop4466" /><stop
         style="stop-color:#fee08b;stop-opacity:1"
         offset="1"
         id="stop4468" /></linearGradient><inkscape:path-effect
       effect="fillet_chamfer"
       id="path-effect3084"
       is_visible="true"
       lpeversion="1"
       nodesatellites_param="F,0,0,1,0,0,0,1 @ F,0,0,1,0,5.9456015,0,1 @ F,0,0,1,0,0,0,1"
       unit="px"
       method="auto"
       mode="F"
       radius="0"
       chamfer_steps="1"
       flexible="false"
       use_knot_distance="true"
       apply_no_radius="true"
       apply_with_radius="true"
       only_selected="false"
       hide_knots="false" /><inkscape:path-effect
       effect="fillet_chamfer"
       id="path-effect813"
       is_visible="true"
       lpeversion="1"
       nodesatellites_param="F,0,1,1,0,0.26458335,0,1 @ F,0,0,1,0,0.26458335,0,1 @ F,0,1,1,0,0.26458335,0,1 @ F,0,1,1,0,0.26458335,0,1 @ F,0,1,1,0,0.26458335,0,1 @ F,0,1,1,0,0.26458335,0,1 @ F,0,1,1,0,0.26458335,0,1"
       unit="px"
       method="auto"
       mode="F"
       radius="0"
       chamfer_steps="1"
       flexible="false"
       use_knot_distance="true"
       apply_no_radius="true"
       apply_with_radius="true"
       only_selected="false"
       hide_knots="false" /><rect
       x="129.93087"
       y="-198.89404"
       width="139.47681"
       height="71.594561"
       id="rect1234" /><rect
       x="206.70872"
       y="-153.84778"
       width="47.874863"
       height="34.768423"
       id="rect1228" /><filter
       style="color-interpolation-filters:sRGB;"
       inkscape:label="Blur"
       id="filter1140"><feGaussianBlur
         stdDeviation="1 1"
         result="blur"
         id="feGaussianBlur1138" /></filter><filter
       style="color-interpolation-filters:sRGB;"
       inkscape:label="Blur"
       id="filter1144"><feGaussianBlur
         stdDeviation="1 1"
         result="blur"
         id="feGaussianBlur1142" /></filter><filter
       style="color-interpolation-filters:sRGB;"
       inkscape:label="Blur"
       id="filter1148"><feGaussianBlur
         stdDeviation="1 1"
         result="blur"
         id="feGaussianBlur1146" /></filter><filter
       style="color-interpolation-filters:sRGB;"
       inkscape:label="Blur"
       id="filter1152"><feGaussianBlur
         stdDeviation="1 1"
         result="blur"
         id="feGaussianBlur1150" /></filter><filter
       style="color-interpolation-filters:sRGB;"
       inkscape:label="Blur"
       id="filter1368"><feGaussianBlur
         stdDeviation="2 2"
         result="blur"
         id="feGaussianBlur1366" /></filter><mask
       maskUnits="userSpaceOnUse"
       id="mask874"><rect
         style="fill:#00ffff;stroke-width:0.376;stroke-miterlimit:10"
         id="rect876"
         width="72.65522"
         height="50.381363"
         x="85.648308"
         y="-226.47121" /></mask><linearGradient
       inkscape:collect="always"
       xlink:href="#linearGradient4470"
       id="linearGradient4472"
       x1="143.93333"
       y1="59.266663"
       x2="143.93333"
       y2="88.900002"
       gradientUnits="userSpaceOnUse" /><inkscape:path-effect
       effect="fillet_chamfer"
       id="path-effect7697-2"
       is_visible="true"
       lpeversion="1"
       nodesatellites_param="F,0,0,1,0,1.3229176,0,1 @ F,0,0,1,0,1.3229225,0,1 @ F,0,0,1,0,1.3229225,0,1 @ F,0,0,1,0,1.3229176,0,1"
       unit="px"
       method="auto"
       mode="F"
       radius="0"
       chamfer_steps="1"
       flexible="false"
       use_knot_distance="true"
       apply_no_radius="true"
       apply_with_radius="true"
       only_selected="false"
       hide_knots="false" /><linearGradient
       inkscape:collect="always"
       xlink:href="#linearGradient12197"
       id="linearGradient12199"
       x1="68.791664"
       y1="18.520832"
       x2="84.666664"
       y2="10.583333"
       gradientUnits="userSpaceOnUse" /><linearGradient
       inkscape:collect="always"
       xlink:href="#linearGradient12661"
       id="linearGradient12663"
       x1="84.666664"
       y1="10.583333"
       x2="143.93333"
       y2="18.520832"
       gradientUnits="userSpaceOnUse" /><linearGradient
       inkscape:collect="always"
       xlink:href="#linearGradient12793"
       id="linearGradient12795"
       x1="88.529045"
       y1="46.028866"
       x2="93.927078"
       y2="18.520832"
       gradientUnits="userSpaceOnUse" /><linearGradient
       inkscape:collect="always"
       xlink:href="#linearGradient12801"
       id="linearGradient12803"
       x1="93.927078"
       y1="18.520832"
       x2="101.86458"
       y2="36.861519"
       gradientUnits="userSpaceOnUse" /><filter
       style="color-interpolation-filters:sRGB;"
       inkscape:label="Drop Shadow"
       id="filter18884"
       x="-0.075590551"
       y="-0.090708666"
       width="1.1669291"
       height="1.200315"><feFlood
         flood-opacity="1"
         flood-color="rgb(105,105,105)"
         result="flood"
         id="feFlood18874" /><feComposite
         in="flood"
         in2="SourceGraphic"
         operator="in"
         result="composite1"
         id="feComposite18876" /><feGaussianBlur
         in="composite1"
         stdDeviation="1"
         result="blur"
         id="feGaussianBlur18878" /><feOffset
         dx="0.5"
         dy="0.5"
         result="offset"
         id="feOffset18880" /><feComposite
         in="SourceGraphic"
         in2="offset"
         operator="over"
         result="composite2"
         id="feComposite18882" /></filter><marker
       style="overflow:visible"
       refX="1"
       refY="0"
       orient="auto-start-reverse"
       inkscape:stockid="TriangleStart958"
       markerWidth="2.5"
       markerHeight="2.8901734"
       viewBox="0 0 5.3244081 6.1553851"
       inkscape:isstock="true"
       inkscape:collect="always"
       preserveAspectRatio="xMidYMid"
       markerUnits="userSpaceOnUse"
       id="TriangleStart958"><path
         transform="scale(0.5)"
         style="fill:#ffffbf;fill-rule:evenodd;stroke:#ffffbf;stroke-width:1pt;stroke-opacity:1.0;fill-opacity:1.0"
         d="M 5.77,0 -2.88,5 V -5 Z"
         id="path548" /></marker><marker
       style="overflow:visible"
       refX="1"
       refY="0"
       orient="auto-start-reverse"
       inkscape:stockid="TriangleStart1415"
       markerWidth="2.5"
       markerHeight="2.8901734"
       viewBox="0 0 5.3244081 6.1553851"
       inkscape:isstock="true"
       inkscape:collect="always"
       preserveAspectRatio="xMidYMid"
       markerUnits="userSpaceOnUse"
       id="TriangleStart1415"><path
         transform="scale(0.5)"
         style="fill:#ffffbf;fill-rule:evenodd;stroke:#ffffbf;stroke-width:1pt;stroke-opacity:1.0;fill-opacity:1.0"
         d="M 5.77,0 -2.88,5 V -5 Z"
         id="path551" /></marker><marker
       style="overflow:visible"
       refX="1"
       refY="0"
       orient="auto-start-reverse"
       inkscape:stockid="TriangleStart7135"
       markerWidth="2.5"
       markerHeight="2.8901734"
       viewBox="0 0 5.3244081 6.1553851"
       inkscape:isstock="true"
       inkscape:collect="always"
       preserveAspectRatio="xMidYMid"
       markerUnits="userSpaceOnUse"
       id="TriangleStart7135"><path
         transform="scale(0.5)"
         style="fill:#ffffbf;fill-opacity:1;fill-rule:evenodd;stroke:#ffffbf;stroke-width:1pt;stroke-opacity:1"
         d="M 5.77,0 -2.88,5 V -5 Z"
         id="path554" /></marker><marker
       style="overflow:visible"
       refX="1"
       refY="0"
       orient="auto-start-reverse"
       inkscape:stockid="TriangleStart4289"
       markerWidth="2.5"
       markerHeight="2.8901734"
       viewBox="0 0 5.3244081 6.1553851"
       inkscape:isstock="true"
       inkscape:collect="always"
       preserveAspectRatio="xMidYMid"
       markerUnits="userSpaceOnUse"
       id="TriangleStart4289"><path
         transform="scale(0.5)"
         style="fill:#ffffbf;fill-opacity:1;fill-rule:evenodd;stroke:#ffffbf;stroke-width:1pt;stroke-opacity:1"
         d="M 5.77,0 -2.88,5 V -5 Z"
         id="path557" /></marker><inkscape:path-effect
       effect="fillet_chamfer"
       id="path-effect813-9"
       is_visible="true"
       lpeversion="1"
       nodesatellites_param="F,0,1,1,0,0.26458335,0,1 @ F,0,0,1,0,0.26458335,0,1 @ F,0,1,1,0,0.26458335,0,1 @ F,0,1,1,0,0.26458335,0,1 @ F,0,1,1,0,0.26458335,0,1 @ F,0,1,1,0,0.26458335,0,1 @ F,0,1,1,0,0.26458335,0,1"
       unit="px"
       method="auto"
       mode="F"
       radius="0"
       chamfer_steps="1"
       flexible="false"
       use_knot_distance="true"
       apply_no_radius="true"
       apply_with_radius="true"
       only_selected="false"
       hide_knots="false" /><rect
       x="129.93087"
       y="-198.89404"
       width="139.47681"
       height="71.594561"
       id="rect1234-0" /><rect
       x="206.70872"
       y="-153.84778"
       width="47.874863"
       height="34.768423"
       id="rect1228-1" /><filter
       style="color-interpolation-filters:sRGB;"
       inkscape:label="Blur"
       id="filter1140-1"><feGaussianBlur
         stdDeviation="1 1"
         result="blur"
         id="feGaussianBlur1138-3" /></filter><filter
       style="color-interpolation-filters:sRGB;"
       inkscape:label="Blur"
       id="filter1144-0"><feGaussianBlur
         stdDeviation="1 1"
         result="blur"
         id="feGaussianBlur1142-6" /></filter><filter
       style="color-interpolation-filters:sRGB;"
       inkscape:label="Blur"
       id="filter1148-5"><feGaussianBlur
         stdDeviation="1 1"
         result="blur"
         id="feGaussianBlur1146-5" /></filter><filter
       style="color-interpolation-filters:sRGB;"
       inkscape:label="Blur"
       id="filter1152-7"><feGaussianBlur
         stdDeviation="1 1"
         result="blur"
         id="feGaussianBlur1150-1" /></filter><filter
       style="color-interpolation-filters:sRGB;"
       inkscape:label="Blur"
       id="filter1368-5"><feGaussianBlur
         stdDeviation="2 2"
         result="blur"
         id="feGaussianBlur1366-9" /></filter><mask
       maskUnits="userSpaceOnUse"
       id="mask874-5"><rect
         style="fill:#00ffff;stroke-width:0.376;stroke-miterlimit:10"
         id="rect876-6"
         width="72.65522"
         height="50.381363"
         x="85.648308"
         y="-226.47121" /></mask><linearGradient
       inkscape:collect="always"
       xlink:href="#linearGradient1699"
       id="linearGradient1701"
       x1="0"
       y1="0"
       x2="143.93333"
       y2="88.900002"
       gradientUnits="userSpaceOnUse" /><inkscape:path-effect
       effect="fillet_chamfer"
       id="path-effect813-94"
       is_visible="true"
       lpeversion="1"
       nodesatellites_param="F,0,1,1,0,0.26458335,0,1 @ F,0,0,1,0,0.26458335,0,1 @ F,0,1,1,0,0.26458335,0,1 @ F,0,1,1,0,0.26458335,0,1 @ F,0,1,1,0,0.26458335,0,1 @ F,0,1,1,0,0.26458335,0,1 @ F,0,1,1,0,0.26458335,0,1"
       unit="px"
       method="auto"
       mode="F"
       radius="0"
       chamfer_steps="1"
       flexible="false"
       use_knot_distance="true"
       apply_no_radius="true"
       apply_with_radius="true"
       only_selected="false"
       hide_knots="false" /><rect
       x="129.93087"
       y="-198.89404"
       width="139.47681"
       height="71.594561"
       id="rect1234-2" /><rect
       x="206.70872"
       y="-153.84778"
       width="47.874863"
       height="34.768423"
       id="rect1228-4" /><filter
       style="color-interpolation-filters:sRGB;"
       inkscape:label="Blur"
       id="filter1140-5"><feGaussianBlur
         stdDeviation="1 1"
         result="blur"
         id="feGaussianBlur1138-6" /></filter><filter
       style="color-interpolation-filters:sRGB;"
       inkscape:label="Blur"
       id="filter1144-3"><feGaussianBlur
         stdDeviation="1 1"
         result="blur"
         id="feGaussianBlur1142-4" /></filter><filter
       style="color-interpolation-filters:sRGB;"
       inkscape:label="Blur"
       id="filter1148-7"><feGaussianBlur
         stdDeviation="1 1"
         result="blur"
         id="feGaussianBlur1146-2" /></filter><filter
       style="color-interpolation-filters:sRGB;"
       inkscape:label="Blur"
       id="filter1152-3"><feGaussianBlur
         stdDeviation="1 1"
         result="blur"
         id="feGaussianBlur1150-0" /></filter><filter
       style="color-interpolation-filters:sRGB;"
       inkscape:label="Blur"
       id="filter1368-2"><feGaussianBlur
         stdDeviation="2 2"
         result="blur"
         id="feGaussianBlur1366-6" /></filter><mask
       maskUnits="userSpaceOnUse"
       id="mask874-9"><rect
         style="fill:#00ffff;stroke-width:0.376;stroke-miterlimit:10"
         id="rect876-1"
         width="72.65522"
         height="50.381363"
         x="85.648308"
         y="-226.47121" /></mask></defs><g
     inkscape:label="Layer 1"
     inkscape:groupmode="layer"
     id="layer1"><path
       style="fill:url(#linearGradient1701);fill-opacity:1;stroke:none;stroke-width:0.264583;stroke-dasharray:none"
       d="M 143.93333,88.899998 47.889584,0 H 0 v 34.395833 z"
       id="path2563"
       sodipodi:nodetypes="ccccc" /><g
       id="g838"><path
         id="path1965"
         style="fill:none;stroke:#ffffbf;stroke-width:0.264583"
         d="m 97.102078,59.266666 a 3.175,6.349999 0 0 1 -3.175,6.349999 3.175,6.349999 0 0 1 -3.175,-6.349999 3.175,6.349999 0 0 1 3.175,-6.349999 3.175,6.349999 0 0 1 3.175,6.349999 z" /><path
         id="ellipse2021"
         style="fill:none;stroke:#ffffbf;stroke-width:0.264583"
         d="m 96.043745,59.266666 a 2.1166666,6.349999 0 0 1 -2.116667,6.349999 2.1166666,6.349999 0 0 1 -2.116666,-6.349999 2.1166666,6.349999 0 0 1 2.116666,-6.349999 2.1166666,6.349999 0 0 1 2.116667,6.349999 z" /><path
         id="ellipse2025"
         style="fill:none;stroke:#ffffbf;stroke-width:0.264583"
         d="m 94.985412,59.266666 a 1.0583333,6.349999 0 0 1 -1.058334,6.349999 1.0583333,6.349999 0 0 1 -1.058333,-6.349999 1.0583333,6.349999 0 0 1 1.058333,-6.349999 1.0583333,6.349999 0 0 1 1.058334,6.349999 z" /><path
         style="fill:none;stroke:#ffffbf;stroke-width:0.264583;stroke-dasharray:none;stroke-dashoffset:0;stroke-opacity:1"
         d="M 93.92708,52.916669 V 65.616666"
         id="path2083" /><path
         id="ellipse2103"
         style="fill:none;stroke:#ffffbf;stroke-width:0.264583"
         d="m 98.160411,59.266666 a 4.2333331,6.349999 0 0 1 -4.233333,6.349999 4.2333331,6.349999 0 0 1 -4.233333,-6.349999 4.2333331,6.349999 0 0 1 4.233333,-6.349999 4.2333331,6.349999 0 0 1 4.233333,6.349999 z" /><path
         id="ellipse803"
         style="fill:none;stroke:#ffffbf;stroke-width:0.264583"
         d="m 99.218745,59.266666 a 5.2916665,6.349999 0 0 1 -5.291667,6.349999 5.2916665,6.349999 0 0 1 -5.291666,-6.349999 5.2916665,6.349999 0 0 1 5.291666,-6.349999 5.2916665,6.349999 0 0 1 5.291667,6.349999 z" /></g><g
       id="g845"><path
         id="path16786"
         style="fill:none;fill-opacity:1;stroke:#ffffbf;stroke-width:0.79375;stroke-linecap:round;stroke-dasharray:0.79375, 2.38125;stroke-dashoffset:0;stroke-opacity:1;marker-end:url(#TriangleStart1415)"
         class="UnoptimicedTransforms"
         d="M 93.927001,53.138359 80.888624,59.266755 2.6458333,22.489583"
         sodipodi:nodetypes="ccc" /><path
         id="path16780"
         style="fill:none;fill-opacity:1;stroke:#ffffbf;stroke-width:0.79375;stroke-linecap:round;stroke-dasharray:none;stroke-dashoffset:0;stroke-opacity:1;marker-start:url(#TriangleStart958)"
         class="UnoptimicedTransforms"
         d="M 88.635358,53.554543 75.430501,59.266755 2.6458333,27.781249" /><path
         id="path16776"
         style="fill:none;fill-opacity:1;stroke:#ffffbf;stroke-width:0.79375;stroke-linecap:round;stroke-dasharray:0.79375, 2.38125;stroke-dashoffset:0;stroke-opacity:1;marker-end:url(#TriangleStart4289)"
         class="UnoptimicedTransforms"
         d="M 93.927104,46.992465 41.010416,2.6458333" /><path
         id="path16772"
         style="fill:none;fill-opacity:1;stroke:#ffffbf;stroke-width:0.79375;stroke-linecap:round;stroke-dasharray:none;stroke-dashoffset:0;stroke-opacity:1;marker-start:url(#TriangleStart7135)"
         class="UnoptimicedTransforms"
         d="M 87.312361,45.873343 30.427083,2.6458333" /></g><path
       id="rect415"
       style="fill:url(#linearGradient4472);stroke-width:0.264583"
       d="M 0,59.266663 H 143.93333 V 88.899996 H 0 Z" /><g
       id="g7888"><path
         id="path7699"
         style="fill:url(#linearGradient12663);fill-opacity:1;stroke:none;stroke-width:1.00012;stroke-dasharray:none"
         d="m 70.061926,10.583333 c -0.730626,0 -1.330187,0.592326 -1.322917,1.322917 l 0.05266,5.291666 c 0.0073,0.730591 0.59229,1.322917 1.322917,1.322917 h 7.9375 l 13.716475,35.205602 c 0.346523,0.889845 1.203588,1.475859 2.158524,1.475879 0.143648,-9.99e-4 0.286892,-0.01536 0.427881,-0.04289 0.0481,-0.01088 0.09584,-0.02328 0.143144,-0.03721 0.09314,-0.02272 0.184787,-0.05119 0.274402,-0.08527 0.05004,-0.02083 0.09934,-0.04341 0.147794,-0.0677 0.08242,-0.03866 0.162481,-0.08214 0.239779,-0.130224 0.04784,-0.03032 0.09455,-0.06238 0.140043,-0.09612 0.07185,-0.05368 0.140524,-0.111479 0.205672,-0.173117 0.04117,-0.03731 0.08099,-0.0761 0.119373,-0.116271 0.0646,-0.07163 0.12466,-0.147225 0.179834,-0.226343 0.02945,-0.03787 0.0051,-0.07665 0.03209,-0.116272 0.07711,-0.121785 0.142674,-0.250501 0.195854,-0.384473 L 109.74942,18.520822 h 34.18391 v -7.9375 H 85.936926 Z"
         sodipodi:nodetypes="ssssccccccccccccccccccs" /><path
         style="display:inline;fill:url(#linearGradient12795);fill-opacity:1;stroke:none;stroke-width:1.00012;stroke-dasharray:none"
         d="m 78.052082,18.520833 13.716567,35.205855 a 2.316468,2.316468 180 0 0 4.316865,0 L 109.80208,18.520833 Z"
         id="path2832"
         sodipodi:nodetypes="cccc" /><path
         id="path6854"
         style="display:inline;fill:url(#linearGradient12803);fill-opacity:1;stroke:none;stroke-width:1.00012;stroke-dasharray:none"
         d="m 93.927081,55.202208 a 2.316468,2.316468 0 0 0 2.158433,-1.47552 L 109.80208,18.520833 H 93.927081" /><path
         id="path7693"
         d="m 70.114582,10.583333 h 13.22916 a 1.3229225,1.3229225 45 0 1 1.322922,1.322923 v 5.291655 a 1.3229225,1.3229225 135 0 1 -1.322922,1.322922 h -13.22916 a 1.3229176,1.3229176 45 0 1 -1.322918,-1.322918 v -5.291664 a 1.3229176,1.3229176 135 0 1 1.322918,-1.322918 z"
         style="display:inline;fill:url(#linearGradient12199);fill-opacity:1;stroke:none;stroke-width:1.00012;stroke-dasharray:none" /></g><g
       id="g7882"><g
         aria-label="Ein"
         id="text4303"
         style="font-size:4.23333px;font-family:Roboto;-inkscape-font-specification:Roboto;fill:#262339;stroke-width:0.529167;stroke-linecap:round"><path
           d="m 15.246612,46.233872 h -1.265038 l -0.186035,1.0666 h 1.471744 L 15.209405,47.625 h -1.858283 l 0.522965,-3.009633 H 15.7117 l -0.05788,0.326595 h -1.449006 l -0.167431,0.967382 h 1.265038 z"
           style="font-style:italic;-inkscape-font-specification:'Roboto Italic'"
           id="path10702" /><path
           d="m 15.888536,48.471666 h -0.241845 l 0.252594,-1.45376 h 0.241846 z m 0.200195,-1.984477 q 0.0618,-0.0027 0.102112,0.03762 0.04165,0.03896 0.04165,0.103456 -0.0013,0.06315 -0.04165,0.103456 -0.03896,0.04031 -0.102112,0.043 -0.06315,0.0027 -0.103456,-0.03628 -0.04031,-0.03896 -0.03896,-0.102113 0.0013,-0.06315 0.04031,-0.104799 0.03896,-0.04165 0.102113,-0.04434 z"
           style="font-size:65%;baseline-shift:sub"
           id="path10704" /><path
           d="m 16.768585,47.016562 -0.03493,0.184072 q 0.196164,-0.214974 0.446071,-0.2096 0.205568,0.0054 0.30365,0.14242 0.09808,0.137046 0.07255,0.385609 l -0.158543,0.952603 h -0.24319 l 0.159887,-0.956633 q 0.0081,-0.06584 0.0013,-0.122267 -0.02284,-0.188102 -0.221692,-0.192132 -0.219004,-0.004 -0.384266,0.233784 l -0.18004,1.037248 h -0.243189 l 0.252594,-1.45376 z"
           style="font-size:65%;baseline-shift:sub"
           id="path10706" /></g><g
         aria-label="Escat"
         id="text6275"
         style="font-size:4.23333px;font-family:Roboto;-inkscape-font-specification:Roboto;fill:#262339;stroke-width:0.529167;stroke-linecap:round"><path
           d="m 28.740364,51.525536 h -1.265038 l -0.186035,1.0666 h 1.471743 l -0.05788,0.324528 h -1.858283 l 0.522965,-3.009633 h 1.837612 l -0.05788,0.326595 h -1.449006 l -0.167432,0.967382 h 1.265038 z"
           style="font-style:italic;-inkscape-font-specification:'Roboto Italic'"
           id="path10709" /><path
           d="m 30.019148,53.369659 q 0.02015,-0.150481 -0.165261,-0.212286 l -0.252595,-0.0739 q -0.319773,-0.110174 -0.309024,-0.365456 0.0094,-0.192133 0.174666,-0.314399 0.166604,-0.12361 0.390983,-0.120923 0.220348,0.0027 0.357394,0.128985 0.13839,0.124953 0.133015,0.326491 l -0.241845,-0.0013 q 0.0027,-0.10883 -0.06852,-0.177353 -0.07121,-0.06852 -0.189446,-0.07121 -0.126297,-0.0027 -0.217661,0.0618 -0.08465,0.06046 -0.09808,0.158543 -0.01747,0.126297 0.154512,0.184071 l 0.122266,0.03359 q 0.249907,0.06449 0.354707,0.167948 0.1048,0.103456 0.09674,0.256625 -0.0081,0.135702 -0.08868,0.236471 -0.08061,0.100769 -0.214973,0.154513 -0.134359,0.0524 -0.286184,0.04837 -0.231097,-0.0027 -0.381579,-0.134359 -0.150481,-0.133015 -0.145107,-0.341271 l 0.243189,0.0013 q 0,0.122266 0.07793,0.196164 0.07793,0.0739 0.21363,0.0739 0.133015,0.0027 0.229754,-0.05509 0.09674,-0.05912 0.110174,-0.161231 z"
           style="font-size:65%;baseline-shift:sub"
           id="path10711" /><path
           d="m 31.122232,53.588664 q 0.130328,0.0027 0.235127,-0.07524 0.1048,-0.07927 0.137046,-0.206912 l 0.229753,-0.0013 q -0.02015,0.137046 -0.110174,0.249907 -0.08868,0.112861 -0.224379,0.17601 -0.135702,0.06315 -0.278122,0.05912 -0.181384,-0.0027 -0.307681,-0.09405 -0.124954,-0.09271 -0.184071,-0.256625 -0.05912,-0.165261 -0.04031,-0.37083 l 0.0067,-0.06718 q 0.02553,-0.2096 0.122266,-0.374861 0.09674,-0.165261 0.252594,-0.256625 0.155856,-0.09271 0.343958,-0.08733 0.22841,0.0054 0.365456,0.153169 0.137046,0.147795 0.137046,0.374861 l -0.227066,-0.0013 q -0.0027,-0.14242 -0.07927,-0.229753 -0.07658,-0.08868 -0.206912,-0.09405 -0.189446,-0.004 -0.315743,0.141076 -0.124953,0.145108 -0.155856,0.405763 l -0.004,0.03493 q -0.0081,0.08599 -0.0027,0.177353 0.0094,0.157199 0.08868,0.248563 0.07927,0.09136 0.217661,0.0954 z"
           style="font-size:65%;baseline-shift:sub"
           id="path10713" /><path
           d="m 32.808432,53.76333 q -0.0094,-0.03896 -0.0094,-0.07658 l 0.004,-0.07659 q -0.200195,0.185415 -0.424573,0.180041 -0.192133,-0.0027 -0.313056,-0.120923 -0.119579,-0.119579 -0.10883,-0.298276 0.01343,-0.231097 0.201537,-0.360081 0.189446,-0.130328 0.497127,-0.130328 l 0.253938,0.0013 0.01612,-0.115549 q 0.01344,-0.130328 -0.05106,-0.205568 -0.06315,-0.07658 -0.190789,-0.07927 -0.124954,-0.0027 -0.221692,0.0618 -0.0954,0.06315 -0.116892,0.167948 l -0.244533,0.0013 q 0.01209,-0.127641 0.09943,-0.225723 0.08733,-0.09942 0.224378,-0.153168 0.137046,-0.05509 0.283497,-0.0524 0.227066,0.0054 0.353363,0.138389 0.126297,0.131672 0.106144,0.350676 l -0.118236,0.720162 -0.0067,0.103456 q -0.0027,0.0739 0.01612,0.146451 l -0.0027,0.02284 z m -0.381578,-0.188102 q 0.116892,0.0027 0.220348,-0.05509 0.104799,-0.05912 0.18004,-0.162574 l 0.0524,-0.29962 -0.184071,-0.0013 q -0.229753,0 -0.35202,0.07255 -0.122266,0.07255 -0.138389,0.205568 -0.01209,0.102113 0.04702,0.170636 0.06046,0.06718 0.174667,0.06987 z"
           style="font-size:65%;baseline-shift:sub"
           id="path10715" /><path
           d="m 34.027065,51.95755 -0.0618,0.35202 h 0.264686 l -0.03359,0.192133 h -0.263343 l -0.151825,0.904233 q -0.004,0.03493 -0.0013,0.06449 0.0094,0.1048 0.114205,0.1048 0.04434,0 0.118236,-0.01344 l -0.01881,0.202882 q -0.08733,0.02418 -0.177353,0.02418 -0.145107,-0.0027 -0.217661,-0.106143 -0.07255,-0.1048 -0.05643,-0.28081 l 0.147795,-0.900202 H 33.4332 l 0.03359,-0.192133 h 0.256625 l 0.0618,-0.35202 z"
           style="font-size:65%;baseline-shift:sub"
           id="path10717" /></g><g
         aria-label="sample"
         id="text6279"
         style="font-size:4.23333px;font-family:Roboto;-inkscape-font-specification:Roboto;fill:#262339;stroke-width:0.529167;stroke-linecap:round"><path
           d="m 66.616093,74.647638 q 0,-0.155029 -0.117823,-0.239779 -0.115755,-0.08682 -0.407209,-0.148828 -0.289388,-0.06201 -0.460954,-0.148828 -0.169498,-0.08682 -0.252181,-0.206705 -0.08062,-0.119889 -0.08062,-0.285254 0,-0.274918 0.23151,-0.465087 0.233578,-0.190169 0.595312,-0.190169 0.380339,0 0.615983,0.19637 0.237711,0.19637 0.237711,0.502294 h -0.384472 q 0,-0.157096 -0.134359,-0.270784 -0.132291,-0.113688 -0.334863,-0.113688 -0.208772,0 -0.326594,0.09095 -0.117823,0.09095 -0.117823,0.237711 0,0.138493 0.109554,0.208773 0.109554,0.07028 0.394808,0.134358 0.287321,0.06408 0.465088,0.152962 0.177766,0.08888 0.262516,0.214974 0.08682,0.124023 0.08682,0.303857 0,0.299723 -0.239779,0.481624 -0.239778,0.179834 -0.622183,0.179834 -0.268717,0 -0.475423,-0.09508 -0.206706,-0.09508 -0.324528,-0.264583 -0.115755,-0.171565 -0.115755,-0.370003 h 0.382405 q 0.01034,0.192237 0.152963,0.305925 0.144693,0.111621 0.380338,0.111621 0.217041,0 0.347265,-0.08682 0.132292,-0.08888 0.132292,-0.235644 z"
           id="path10720" /><path
           d="m 68.877452,75.240883 q -0.03307,-0.06615 -0.05374,-0.235644 -0.26665,0.276985 -0.636653,0.276985 -0.330729,0 -0.543636,-0.186035 -0.210839,-0.188102 -0.210839,-0.475423 0,-0.349332 0.264583,-0.541568 0.26665,-0.194304 0.748274,-0.194304 h 0.37207 v -0.175699 q 0,-0.200505 -0.119889,-0.318327 -0.11989,-0.119889 -0.353467,-0.119889 -0.204638,0 -0.343131,0.103353 -0.138493,0.103352 -0.138493,0.250113 h -0.384472 q 0,-0.167431 0.117822,-0.32246 0.119889,-0.157096 0.322461,-0.248047 0.204638,-0.09095 0.448551,-0.09095 0.386539,0 0.605647,0.194303 0.219108,0.192236 0.227376,0.531233 v 1.029394 q 0,0.307991 0.07855,0.489892 v 0.03307 z m -0.634587,-0.291455 q 0.179834,0 0.341065,-0.09302 0.16123,-0.09302 0.233577,-0.241846 v -0.458886 h -0.299723 q -0.702799,0 -0.702799,0.411344 0,0.179834 0.119889,0.281119 0.119889,0.101286 0.307991,0.101286 z"
           id="path10722" /><path
           d="m 70.159026,73.004329 0.01033,0.248046 q 0.24598,-0.289387 0.663525,-0.289387 0.469222,0 0.63872,0.359667 0.111621,-0.16123 0.289388,-0.260449 0.179834,-0.09922 0.423747,-0.09922 0.735871,0 0.748274,0.77928 v 1.498615 h -0.382406 v -1.475878 q 0,-0.239778 -0.109554,-0.3576 -0.109554,-0.11989 -0.367935,-0.11989 -0.212907,0 -0.353467,0.128158 -0.14056,0.12609 -0.163297,0.341064 v 1.484146 H 71.171883 V 73.77534 q 0,-0.487825 -0.47749,-0.487825 -0.376204,0 -0.514696,0.320394 v 1.632974 h -0.382406 v -2.236554 z"
           id="path10724" /><path
           d="m 75.399012,74.14741 q 0,0.510563 -0.233578,0.822689 -0.233577,0.312125 -0.632519,0.312125 -0.40721,0 -0.640787,-0.258382 v 1.076936 h -0.382405 v -3.096449 h 0.349332 l 0.0186,0.248046 q 0.233577,-0.289387 0.649055,-0.289387 0.403076,0 0.636653,0.303857 0.235645,0.303857 0.235645,0.845426 z m -0.382406,-0.04341 q 0,-0.378271 -0.16123,-0.597379 -0.16123,-0.219108 -0.44235,-0.219108 -0.347265,0 -0.520898,0.307992 v 1.068667 q 0.171566,0.305925 0.525032,0.305925 0.274919,0 0.436149,-0.217041 0.163297,-0.219108 0.163297,-0.649056 z"
           id="path10726" /><path
           d="m 76.300248,75.240883 h -0.382406 v -3.174997 h 0.382406 z"
           id="path10728" /><path
           d="m 77.840204,75.282224 q -0.454752,0 -0.740006,-0.297656 -0.285254,-0.299723 -0.285254,-0.799951 v -0.07028 q 0,-0.332796 0.126091,-0.593245 0.128157,-0.262516 0.355533,-0.409277 0.229444,-0.148828 0.496094,-0.148828 0.436148,0 0.677994,0.28732 0.241845,0.287321 0.241845,0.822688 V 74.23216 H 77.19735 q 0.0083,0.330729 0.192236,0.535367 0.186035,0.202572 0.471289,0.202572 0.202571,0 0.343131,-0.08268 0.14056,-0.08268 0.245979,-0.219108 l 0.233578,0.181901 q -0.28112,0.432015 -0.843359,0.432015 z m -0.04754,-2.005044 q -0.23151,0 -0.388607,0.169499 -0.157096,0.167431 -0.194303,0.471288 h 1.120344 v -0.02894 Q 78.31356,73.597574 78.173,73.43841 78.03244,73.27718 77.792662,73.27718 Z"
           id="path10730" /></g><g
         aria-label="AFM tip"
         id="text6283"
         style="font-size:4.23333px;font-family:Roboto;-inkscape-font-specification:Roboto;fill:#262339;stroke-width:0.529167;stroke-linecap:round"><path
           d="m 101.10132,14.862141 h -1.260906 l -0.283187,0.785481 H 99.14795 l 1.14928,-3.009633 h 0.34727 l 1.15135,3.009633 h -0.40721 z m -1.141017,-0.326595 h 1.023197 l -0.51263,-1.407665 z"
           id="path10733" /><path
           d="m 103.86084,14.318505 h -1.26297 v 1.329117 h -0.39688 v -3.009633 h 1.86449 v 0.326595 h -1.46761 v 1.029394 h 1.26297 z"
           id="path10735" /><path
           d="m 105.05353,12.637989 0.98392,2.455662 0.98391,-2.455662 h 0.5147 v 3.009633 h -0.39687 v -1.17202 l 0.0372,-1.265038 -0.98805,2.437058 h -0.30386 l -0.98598,-2.430857 0.0393,1.258837 v 1.17202 h -0.39687 v -3.009633 z"
           id="path10737" /><path
           d="m 109.74368,12.869499 v 0.541569 h 0.41754 v 0.295589 h -0.41754 v 1.386994 q 0,0.134359 0.0558,0.202572 0.0558,0.06615 0.19017,0.06615 0.0661,0 0.1819,-0.0248 v 0.310058 q -0.1509,0.04134 -0.29352,0.04134 -0.25632,0 -0.38654,-0.155029 -0.13023,-0.155029 -0.13023,-0.440283 v -1.386994 h -0.40721 v -0.295589 h 0.40721 v -0.541569 z"
           id="path10739" /><path
           d="m 111.02318,15.647622 h -0.3824 v -2.236554 h 0.3824 z m -0.41341,-2.829799 q 0,-0.09302 0.0558,-0.157096 0.0579,-0.06408 0.1695,-0.06408 0.11162,0 0.1695,0.06408 0.0579,0.06408 0.0579,0.157096 0,0.09302 -0.0579,0.155029 -0.0579,0.06201 -0.1695,0.06201 -0.11162,0 -0.1695,-0.06201 -0.0558,-0.06201 -0.0558,-0.155029 z"
           id="path10741" /><path
           d="m 113.52432,14.55415 q 0,0.510562 -0.23358,0.822688 -0.23357,0.312125 -0.63251,0.312125 -0.40721,0 -0.64079,-0.258382 v 1.076936 h -0.38241 v -3.096449 h 0.34934 l 0.0186,0.248047 q 0.23358,-0.289388 0.64905,-0.289388 0.40308,0 0.63666,0.303857 0.23564,0.303857 0.23564,0.845426 z m -0.3824,-0.04341 q 0,-0.378272 -0.16123,-0.59738 -0.16123,-0.219107 -0.44235,-0.219107 -0.34727,0 -0.5209,0.307991 v 1.068668 q 0.17156,0.305924 0.52503,0.305924 0.27492,0 0.43615,-0.217041 0.1633,-0.219108 0.1633,-0.649055 z"
           id="path10743" /></g><g
         aria-label="near field"
         id="text6287"
         style="font-size:4.23333px;font-family:Roboto;-inkscape-font-specification:Roboto;fill:#262339;stroke-width:0.529167;stroke-linecap:round"><path
           d="m 110.4532,48.034278 0.0124,0.28112 q 0.25632,-0.322461 0.66973,-0.322461 0.709,0 0.7152,0.79995 v 1.477945 h -0.3824 V 48.79082 q -0.002,-0.241845 -0.11163,-0.3576 -0.10748,-0.115755 -0.33693,-0.115755 -0.18603,0 -0.32659,0.09922 -0.14056,0.09922 -0.21911,0.260449 v 1.5937 h -0.3824 v -2.236554 z"
           id="path10746" /><path
           d="m 113.35535,50.312173 q -0.45476,0 -0.74001,-0.297656 -0.28525,-0.299723 -0.28525,-0.79995 v -0.07028 q 0,-0.332796 0.12609,-0.593245 0.12815,-0.262516 0.35553,-0.409277 0.22944,-0.148828 0.49609,-0.148828 0.43615,0 0.678,0.287321 0.24184,0.28732 0.24184,0.822688 v 0.159163 h -1.51515 q 0.008,0.330729 0.19224,0.535367 0.18603,0.202572 0.47129,0.202572 0.20257,0 0.34313,-0.08268 0.14056,-0.08268 0.24598,-0.219108 l 0.23358,0.181901 q -0.28112,0.432014 -0.84336,0.432014 z m -0.0476,-2.005044 q -0.23151,0 -0.3886,0.169499 -0.1571,0.167431 -0.19431,0.471289 h 1.12035 v -0.02894 q -0.0165,-0.291455 -0.1571,-0.450618 -0.14056,-0.161231 -0.38034,-0.161231 z"
           id="path10748" /><path
           d="m 116.05079,50.270832 q -0.0331,-0.06615 -0.0538,-0.235644 -0.26665,0.276985 -0.63665,0.276985 -0.33073,0 -0.54364,-0.186035 -0.21083,-0.188102 -0.21083,-0.475423 0,-0.349332 0.26458,-0.541568 0.26665,-0.194303 0.74827,-0.194303 h 0.37207 v -0.1757 q 0,-0.200504 -0.11989,-0.318327 -0.11989,-0.119889 -0.35346,-0.119889 -0.20464,0 -0.34313,0.103353 -0.1385,0.103353 -0.1385,0.250114 h -0.38447 q 0,-0.167432 0.11782,-0.322461 0.11989,-0.157096 0.32246,-0.248047 0.20464,-0.09095 0.44855,-0.09095 0.38654,0 0.60565,0.194303 0.21911,0.192236 0.22738,0.531233 v 1.029394 q 0,0.307991 0.0786,0.489892 v 0.03307 z m -0.63459,-0.291455 q 0.17983,0 0.34107,-0.09302 0.16123,-0.09302 0.23357,-0.241846 v -0.458886 h -0.29972 q -0.7028,0 -0.7028,0.411344 0,0.179834 0.11989,0.28112 0.11989,0.101285 0.30799,0.101285 z"
           id="path10750" /><path
           d="m 118.05376,48.377409 q -0.0868,-0.01447 -0.1881,-0.01447 -0.3762,0 -0.51056,0.320393 v 1.587499 h -0.38241 v -2.236554 h 0.37207 l 0.006,0.258382 q 0.18811,-0.299723 0.53331,-0.299723 0.11162,0 0.16949,0.02894 z"
           id="path10752" /><path
           d="m 119.58132,50.270832 v -1.940965 h -0.35347 v -0.295589 h 0.35347 v -0.190169 q 0,-0.374137 0.2129,-0.58291 0.21498,-0.208772 0.60565,-0.208772 0.23151,0 0.58498,0.12609 l -0.0641,0.322461 q -0.25838,-0.103353 -0.49196,-0.103353 -0.24598,0 -0.35553,0.111621 -0.10749,0.109554 -0.10749,0.330729 v 0.194303 h 0.45682 v 0.295589 h -0.45682 v 1.940965 z m 1.5937,0 h -0.38447 v -2.236554 h 0.38447 z"
           id="path10754" /><path
           d="m 122.72531,50.312173 q -0.45475,0 -0.74001,-0.297656 -0.28525,-0.299723 -0.28525,-0.79995 v -0.07028 q 0,-0.332796 0.12609,-0.593245 0.12816,-0.262516 0.35553,-0.409277 0.22945,-0.148828 0.4961,-0.148828 0.43615,0 0.67799,0.287321 0.24185,0.28732 0.24185,0.822688 v 0.159163 h -1.51516 q 0.008,0.330729 0.19224,0.535367 0.18604,0.202572 0.47129,0.202572 0.20257,0 0.34313,-0.08268 0.14056,-0.08268 0.24598,-0.219108 l 0.23358,0.181901 q -0.28112,0.432014 -0.84336,0.432014 z m -0.0475,-2.005044 q -0.23151,0 -0.38861,0.169499 -0.1571,0.167431 -0.1943,0.471289 h 1.12034 v -0.02894 q -0.0165,-0.291455 -0.15709,-0.450618 -0.14056,-0.161231 -0.38034,-0.161231 z"
           id="path10756" /><path
           d="m 124.45543,50.270832 h -0.3824 v -3.174997 h 0.3824 z"
           id="path10758" /><path
           d="m 124.97427,49.133952 q 0,-0.514697 0.24391,-0.826823 0.24391,-0.314192 0.63872,-0.314192 0.39274,0 0.62218,0.268717 v -1.165819 h 0.38241 v 3.174997 h -0.3514 l -0.0186,-0.239778 q -0.22944,0.281119 -0.63872,0.281119 -0.3886,0 -0.63458,-0.318326 -0.24391,-0.318327 -0.24391,-0.830957 z m 0.3824,0.04341 q 0,0.380338 0.1571,0.595312 0.15709,0.214973 0.43408,0.214973 0.3638,0 0.53123,-0.326594 v -1.027327 q -0.17156,-0.316259 -0.5271,-0.316259 -0.28112,0 -0.43821,0.21704 -0.1571,0.217041 -0.1571,0.642855 z"
           id="path10760" /></g></g><g
       id="g7919"
       style="stroke-width:0.52916665;stroke-dasharray:none"><path
         style="fill:none;fill-opacity:1;stroke:#262339;stroke-width:0.39687499;stroke-linecap:round;stroke-linejoin:round;stroke-dasharray:none;stroke-opacity:1"
         d="m 18.302289,34.553988 -2.002188,10.95005 32.963878,-28.54392"
         id="path6729"
         sodipodi:nodetypes="ccc" /><path
         style="fill:none;fill-opacity:1;stroke:#262339;stroke-width:0.39687499;stroke-linecap:round;stroke-linejoin:round;stroke-dasharray:none;stroke-opacity:1"
         d="m 36.221468,38.223071 -6.302833,12.58291 34.498876,-28.54392"
         id="path7868"
         sodipodi:nodetypes="ccc" /><path
         style="fill:none;fill-opacity:1;stroke:#262339;stroke-width:0.39687499;stroke-linecap:round;stroke-linejoin:round;stroke-dasharray:none;stroke-opacity:1"
         d="M 93.927081,57.679165 108.89258,49.832616"
         id="path7914"
         sodipodi:nodetypes="cc" /></g></g></svg>
