<?xml version="1.0" encoding="UTF-8" standalone="no"?>
<!-- Created with Inkscape (http://www.inkscape.org/) -->

<svg
   width="544"
   height="336"
   viewBox="0 0 143.93333 88.899998"
   version="1.1"
   id="svg7194"
   inkscape:version="1.2 (dc2aedaf03, 2022-05-15)"
   sodipodi:docname="fdm.svg"
   xml:space="preserve"
   xmlns:inkscape="http://www.inkscape.org/namespaces/inkscape"
   xmlns:sodipodi="http://sodipodi.sourceforge.net/DTD/sodipodi-0.dtd"
   xmlns:xlink="http://www.w3.org/1999/xlink"
   xmlns="http://www.w3.org/2000/svg"
   xmlns:svg="http://www.w3.org/2000/svg"><sodipodi:namedview
     id="namedview7196"
     pagecolor="#ffffff"
     bordercolor="#000000"
     borderopacity="0.25"
     inkscape:showpageshadow="2"
     inkscape:pageopacity="0.0"
     inkscape:pagecheckerboard="0"
     inkscape:deskcolor="#d1d1d1"
     inkscape:document-units="px"
     showgrid="false"
     inkscape:zoom="8.0000002"
     inkscape:cx="277.68749"
     inkscape:cy="52.437499"
     inkscape:window-width="2400"
     inkscape:window-height="1271"
     inkscape:window-x="-9"
     inkscape:window-y="-9"
     inkscape:window-maximized="1"
     inkscape:current-layer="layer1"><inkscape:grid
       type="xygrid"
       id="grid860" /></sodipodi:namedview><defs
     id="defs7191"><linearGradient
       inkscape:collect="always"
       id="linearGradient97644"><stop
         style="stop-color:#5e4fa2;stop-opacity:1;"
         offset="0"
         id="stop97640" /><stop
         style="stop-color:#3288bd;stop-opacity:1;"
         offset="1"
         id="stop97642" /></linearGradient><linearGradient
       inkscape:collect="always"
       id="linearGradient97387"><stop
         style="stop-color:#9e0142;stop-opacity:1;"
         offset="0"
         id="stop97383" /><stop
         style="stop-color:#d53e4f;stop-opacity:1;"
         offset="1"
         id="stop97385" /></linearGradient><inkscape:path-effect
       effect="fillet_chamfer"
       id="path-effect91073"
       is_visible="true"
       lpeversion="1"
       nodesatellites_param="F,0,0,1,0,0,0,1 @ F,0,0,1,0,4.798264,0,1 @ F,0,0,1,0,3.96875,0,1 @ F,0,0,1,0,0,0,1 @ F,0,0,1,0,3.96875,0,1 @ F,0,0,1,0,4.762497,0,1 @ F,0,0,1,0,0,0,1"
       unit="px"
       method="auto"
       mode="F"
       radius="0"
       chamfer_steps="1"
       flexible="false"
       use_knot_distance="true"
       apply_no_radius="true"
       apply_with_radius="true"
       only_selected="false"
       hide_knots="false" /><inkscape:path-effect
       effect="fillet_chamfer"
       id="path-effect90861"
       is_visible="true"
       lpeversion="1"
       nodesatellites_param="F,0,0,1,0,0,0,1 @ F,0,0,1,0,4.762498,0,1 @ F,0,0,1,0,3.968749,0,1 @ F,0,0,1,0,0,0,1 @ F,0,0,1,0,3.968749,0,1 @ F,0,0,1,0,4.762498,0,1 @ F,0,0,1,0,0,0,1"
       unit="px"
       method="auto"
       mode="F"
       radius="0"
       chamfer_steps="1"
       flexible="false"
       use_knot_distance="true"
       apply_no_radius="true"
       apply_with_radius="true"
       only_selected="false"
       hide_knots="false" /><inkscape:path-effect
       effect="fillet_chamfer"
       id="path-effect90585"
       is_visible="true"
       lpeversion="1"
       nodesatellites_param="F,0,0,1,0,0,0,1 @ F,0,0,1,0,2.6458331,0,1 @ F,0,0,1,0,2.64583,0,1 @ F,0,0,1,0,0,0,1 @ F,0,0,1,0,2.64583,0,1 @ F,0,0,1,0,2.6458341,0,1 @ F,0,0,1,0,0,0,1"
       unit="px"
       method="auto"
       mode="F"
       radius="0"
       chamfer_steps="1"
       flexible="false"
       use_knot_distance="true"
       apply_no_radius="true"
       apply_with_radius="true"
       only_selected="false"
       hide_knots="false" /><linearGradient
       inkscape:collect="always"
       id="linearGradient58356"><stop
         style="stop-color:#f5f5f5;stop-opacity:0.5;"
         offset="0"
         id="stop58352" /><stop
         style="stop-color:#666666;stop-opacity:0.5;"
         offset="1"
         id="stop58354" /></linearGradient><linearGradient
       inkscape:collect="always"
       id="linearGradient44323"><stop
         style="stop-color:#f5f5f5;stop-opacity:1;"
         offset="0"
         id="stop44319" /><stop
         style="stop-color:#666666;stop-opacity:1;"
         offset="1"
         id="stop44321" /></linearGradient><linearGradient
       inkscape:collect="always"
       id="linearGradient1699"><stop
         style="stop-color:#d53e4f;stop-opacity:1;"
         offset="0"
         id="stop1695" /><stop
         style="stop-color:#9e0142;stop-opacity:1;"
         offset="1"
         id="stop1697" /></linearGradient><inkscape:path-effect
       effect="mirror_symmetry"
       start_point="0,59.27"
       end_point="1,59.267"
       center_point="74.537664,47.349874"
       id="path-effect16745"
       is_visible="true"
       lpeversion="1.2"
       lpesatellites=""
       mode="free"
       discard_orig_path="false"
       fuse_paths="false"
       oposite_fuse="false"
       split_items="false"
       split_open="false"
       link_styles="false" /><inkscape:path-effect
       effect="mirror_symmetry"
       start_point="0,59.27"
       end_point="1,59.267"
       center_point="74.537664,47.349874"
       id="path-effect16739"
       is_visible="true"
       lpeversion="1.2"
       lpesatellites=""
       mode="free"
       discard_orig_path="false"
       fuse_paths="false"
       oposite_fuse="false"
       split_items="false"
       split_open="false"
       link_styles="false" /><inkscape:path-effect
       effect="mirror_symmetry"
       start_point="0,59.27"
       end_point="1,59.267"
       center_point="74.537664,47.349874"
       id="path-effect16729"
       is_visible="true"
       lpeversion="1.2"
       lpesatellites=""
       mode="free"
       discard_orig_path="false"
       fuse_paths="false"
       oposite_fuse="false"
       split_items="false"
       split_open="false"
       link_styles="false" /><inkscape:path-effect
       effect="mirror_symmetry"
       start_point="0,0"
       end_point="100,88.899994"
       center_point="143.93334,45.772914"
       id="path-effect16719"
       is_visible="true"
       lpeversion="1.2"
       lpesatellites=""
       mode="free"
       discard_orig_path="false"
       fuse_paths="false"
       oposite_fuse="false"
       split_items="false"
       split_open="false"
       link_styles="false" /><inkscape:path-effect
       effect="fillet_chamfer"
       id="path-effect7717"
       is_visible="true"
       lpeversion="1"
       nodesatellites_param="F,0,0,1,0,1.3229176,0,1 @ F,0,0,1,0,1.3229225,0,1 @ F,0,0,1,0,1.3229225,0,1 @ F,0,0,1,0,1.3229176,0,1"
       unit="px"
       method="auto"
       mode="F"
       radius="0"
       chamfer_steps="1"
       flexible="false"
       use_knot_distance="true"
       apply_no_radius="true"
       apply_with_radius="true"
       only_selected="false"
       hide_knots="false" /><inkscape:path-effect
       effect="fillet_chamfer"
       id="path-effect7713"
       is_visible="true"
       lpeversion="1"
       nodesatellites_param="F,0,0,1,0,1.3229176,0,1 @ F,0,0,1,0,1.3229225,0,1 @ F,0,0,1,0,1.3229225,0,1 @ F,0,0,1,0,1.3229176,0,1"
       unit="px"
       method="auto"
       mode="F"
       radius="0"
       chamfer_steps="1"
       flexible="false"
       use_knot_distance="true"
       apply_no_radius="true"
       apply_with_radius="true"
       only_selected="false"
       hide_knots="false" /><inkscape:path-effect
       effect="fillet_chamfer"
       id="path-effect7709"
       is_visible="true"
       lpeversion="1"
       nodesatellites_param="F,0,0,1,0,0,0,1 @ F,0,0,1,0,5.9456015,0,1 @ F,0,0,1,0,0,0,1"
       unit="px"
       method="auto"
       mode="F"
       radius="0"
       chamfer_steps="1"
       flexible="false"
       use_knot_distance="true"
       apply_no_radius="true"
       apply_with_radius="true"
       only_selected="false"
       hide_knots="false" /><inkscape:path-effect
       effect="fillet_chamfer"
       id="path-effect7697"
       is_visible="true"
       lpeversion="1"
       nodesatellites_param="F,0,0,1,0,1.3229176,0,1 @ F,0,0,1,0,1.3229225,0,1 @ F,0,0,1,0,1.3229225,0,1 @ F,0,0,1,0,1.3229176,0,1"
       unit="px"
       method="auto"
       mode="F"
       radius="0"
       chamfer_steps="1"
       flexible="false"
       use_knot_distance="true"
       apply_no_radius="true"
       apply_with_radius="true"
       only_selected="false"
       hide_knots="false" /><inkscape:path-effect
       effect="fillet_chamfer"
       id="path-effect7689"
       is_visible="true"
       lpeversion="1"
       nodesatellites_param="F,0,0,1,0,1.3229176,0,1 @ F,0,0,1,0,1.3229225,0,1 @ F,0,0,1,0,1.3229225,0,1 @ F,0,0,1,0,1.3229176,0,1"
       unit="px"
       method="auto"
       mode="F"
       radius="0"
       chamfer_steps="1"
       flexible="false"
       use_knot_distance="true"
       apply_no_radius="true"
       apply_with_radius="true"
       only_selected="false"
       hide_knots="false" /><inkscape:path-effect
       effect="fillet_chamfer"
       id="path-effect6793"
       is_visible="true"
       lpeversion="1"
       nodesatellites_param="F,0,0,1,0,0,0,1 @ F,0,0,1,0,5.9456015,0,1 @ F,0,0,1,0,0,0,1"
       unit="px"
       method="auto"
       mode="F"
       radius="0"
       chamfer_steps="1"
       flexible="false"
       use_knot_distance="true"
       apply_no_radius="true"
       apply_with_radius="true"
       only_selected="false"
       hide_knots="false" /><inkscape:path-effect
       effect="fillet_chamfer"
       id="path-effect6787"
       is_visible="true"
       lpeversion="1"
       nodesatellites_param="F,0,0,1,0,1.3229176,0,1 @ F,0,0,1,0,1.3229225,0,1 @ F,0,0,1,0,1.3229225,0,1 @ F,0,0,1,0,1.3229176,0,1"
       unit="px"
       method="auto"
       mode="F"
       radius="0"
       chamfer_steps="1"
       flexible="false"
       use_knot_distance="true"
       apply_no_radius="true"
       apply_with_radius="true"
       only_selected="false"
       hide_knots="false" /><linearGradient
       inkscape:collect="always"
       id="linearGradient4470"><stop
         style="stop-color:#fdae61;stop-opacity:1;"
         offset="0"
         id="stop4466" /><stop
         style="stop-color:#fee08b;stop-opacity:1"
         offset="1"
         id="stop4468" /></linearGradient><inkscape:path-effect
       effect="fillet_chamfer"
       id="path-effect3084"
       is_visible="true"
       lpeversion="1"
       nodesatellites_param="F,0,0,1,0,0,0,1 @ F,0,0,1,0,5.9456015,0,1 @ F,0,0,1,0,0,0,1"
       unit="px"
       method="auto"
       mode="F"
       radius="0"
       chamfer_steps="1"
       flexible="false"
       use_knot_distance="true"
       apply_no_radius="true"
       apply_with_radius="true"
       only_selected="false"
       hide_knots="false" /><inkscape:path-effect
       effect="fillet_chamfer"
       id="path-effect813"
       is_visible="true"
       lpeversion="1"
       nodesatellites_param="F,0,1,1,0,0.26458335,0,1 @ F,0,0,1,0,0.26458335,0,1 @ F,0,1,1,0,0.26458335,0,1 @ F,0,1,1,0,0.26458335,0,1 @ F,0,1,1,0,0.26458335,0,1 @ F,0,1,1,0,0.26458335,0,1 @ F,0,1,1,0,0.26458335,0,1"
       unit="px"
       method="auto"
       mode="F"
       radius="0"
       chamfer_steps="1"
       flexible="false"
       use_knot_distance="true"
       apply_no_radius="true"
       apply_with_radius="true"
       only_selected="false"
       hide_knots="false" /><rect
       x="129.93087"
       y="-198.89404"
       width="139.47681"
       height="71.594561"
       id="rect1234" /><rect
       x="206.70872"
       y="-153.84778"
       width="47.874863"
       height="34.768423"
       id="rect1228" /><filter
       style="color-interpolation-filters:sRGB;"
       inkscape:label="Blur"
       id="filter1140"><feGaussianBlur
         stdDeviation="1 1"
         result="blur"
         id="feGaussianBlur1138" /></filter><filter
       style="color-interpolation-filters:sRGB;"
       inkscape:label="Blur"
       id="filter1144"><feGaussianBlur
         stdDeviation="1 1"
         result="blur"
         id="feGaussianBlur1142" /></filter><filter
       style="color-interpolation-filters:sRGB;"
       inkscape:label="Blur"
       id="filter1148"><feGaussianBlur
         stdDeviation="1 1"
         result="blur"
         id="feGaussianBlur1146" /></filter><filter
       style="color-interpolation-filters:sRGB;"
       inkscape:label="Blur"
       id="filter1152"><feGaussianBlur
         stdDeviation="1 1"
         result="blur"
         id="feGaussianBlur1150" /></filter><filter
       style="color-interpolation-filters:sRGB;"
       inkscape:label="Blur"
       id="filter1368"><feGaussianBlur
         stdDeviation="2 2"
         result="blur"
         id="feGaussianBlur1366" /></filter><mask
       maskUnits="userSpaceOnUse"
       id="mask874"><rect
         style="fill:#00ffff;stroke-width:0.376;stroke-miterlimit:10"
         id="rect876"
         width="72.65522"
         height="50.381363"
         x="85.648308"
         y="-226.47121" /></mask><linearGradient
       inkscape:collect="always"
       xlink:href="#linearGradient4470"
       id="linearGradient4472"
       x1="143.93333"
       y1="59.266663"
       x2="143.93333"
       y2="88.900002"
       gradientUnits="userSpaceOnUse" /><inkscape:path-effect
       effect="fillet_chamfer"
       id="path-effect7697-2"
       is_visible="true"
       lpeversion="1"
       nodesatellites_param="F,0,0,1,0,1.3229176,0,1 @ F,0,0,1,0,1.3229225,0,1 @ F,0,0,1,0,1.3229225,0,1 @ F,0,0,1,0,1.3229176,0,1"
       unit="px"
       method="auto"
       mode="F"
       radius="0"
       chamfer_steps="1"
       flexible="false"
       use_knot_distance="true"
       apply_no_radius="true"
       apply_with_radius="true"
       only_selected="false"
       hide_knots="false" /><filter
       style="color-interpolation-filters:sRGB;"
       inkscape:label="Drop Shadow"
       id="filter18884"
       x="-0.075590551"
       y="-0.090708666"
       width="1.1669291"
       height="1.200315"><feFlood
         flood-opacity="1"
         flood-color="rgb(105,105,105)"
         result="flood"
         id="feFlood18874" /><feComposite
         in="flood"
         in2="SourceGraphic"
         operator="in"
         result="composite1"
         id="feComposite18876" /><feGaussianBlur
         in="composite1"
         stdDeviation="1"
         result="blur"
         id="feGaussianBlur18878" /><feOffset
         dx="0.5"
         dy="0.5"
         result="offset"
         id="feOffset18880" /><feComposite
         in="SourceGraphic"
         in2="offset"
         operator="over"
         result="composite2"
         id="feComposite18882" /></filter><inkscape:path-effect
       effect="fillet_chamfer"
       id="path-effect813-9"
       is_visible="true"
       lpeversion="1"
       nodesatellites_param="F,0,1,1,0,0.26458335,0,1 @ F,0,0,1,0,0.26458335,0,1 @ F,0,1,1,0,0.26458335,0,1 @ F,0,1,1,0,0.26458335,0,1 @ F,0,1,1,0,0.26458335,0,1 @ F,0,1,1,0,0.26458335,0,1 @ F,0,1,1,0,0.26458335,0,1"
       unit="px"
       method="auto"
       mode="F"
       radius="0"
       chamfer_steps="1"
       flexible="false"
       use_knot_distance="true"
       apply_no_radius="true"
       apply_with_radius="true"
       only_selected="false"
       hide_knots="false" /><rect
       x="129.93087"
       y="-198.89404"
       width="139.47681"
       height="71.594561"
       id="rect1234-0" /><rect
       x="206.70872"
       y="-153.84778"
       width="47.874863"
       height="34.768423"
       id="rect1228-1" /><filter
       style="color-interpolation-filters:sRGB;"
       inkscape:label="Blur"
       id="filter1140-1"><feGaussianBlur
         stdDeviation="1 1"
         result="blur"
         id="feGaussianBlur1138-3" /></filter><filter
       style="color-interpolation-filters:sRGB;"
       inkscape:label="Blur"
       id="filter1144-0"><feGaussianBlur
         stdDeviation="1 1"
         result="blur"
         id="feGaussianBlur1142-6" /></filter><filter
       style="color-interpolation-filters:sRGB;"
       inkscape:label="Blur"
       id="filter1148-5"><feGaussianBlur
         stdDeviation="1 1"
         result="blur"
         id="feGaussianBlur1146-5" /></filter><filter
       style="color-interpolation-filters:sRGB;"
       inkscape:label="Blur"
       id="filter1152-7"><feGaussianBlur
         stdDeviation="1 1"
         result="blur"
         id="feGaussianBlur1150-1" /></filter><filter
       style="color-interpolation-filters:sRGB;"
       inkscape:label="Blur"
       id="filter1368-5"><feGaussianBlur
         stdDeviation="2 2"
         result="blur"
         id="feGaussianBlur1366-9" /></filter><mask
       maskUnits="userSpaceOnUse"
       id="mask874-5"><rect
         style="fill:#00ffff;stroke-width:0.376;stroke-miterlimit:10"
         id="rect876-6"
         width="72.65522"
         height="50.381363"
         x="85.648308"
         y="-226.47121" /></mask><inkscape:path-effect
       effect="fillet_chamfer"
       id="path-effect813-94"
       is_visible="true"
       lpeversion="1"
       nodesatellites_param="F,0,1,1,0,0.26458335,0,1 @ F,0,0,1,0,0.26458335,0,1 @ F,0,1,1,0,0.26458335,0,1 @ F,0,1,1,0,0.26458335,0,1 @ F,0,1,1,0,0.26458335,0,1 @ F,0,1,1,0,0.26458335,0,1 @ F,0,1,1,0,0.26458335,0,1"
       unit="px"
       method="auto"
       mode="F"
       radius="0"
       chamfer_steps="1"
       flexible="false"
       use_knot_distance="true"
       apply_no_radius="true"
       apply_with_radius="true"
       only_selected="false"
       hide_knots="false" /><rect
       x="129.93087"
       y="-198.89404"
       width="139.47681"
       height="71.594561"
       id="rect1234-2" /><rect
       x="206.70872"
       y="-153.84778"
       width="47.874863"
       height="34.768423"
       id="rect1228-4" /><filter
       style="color-interpolation-filters:sRGB;"
       inkscape:label="Blur"
       id="filter1140-5"><feGaussianBlur
         stdDeviation="1 1"
         result="blur"
         id="feGaussianBlur1138-6" /></filter><filter
       style="color-interpolation-filters:sRGB;"
       inkscape:label="Blur"
       id="filter1144-3"><feGaussianBlur
         stdDeviation="1 1"
         result="blur"
         id="feGaussianBlur1142-4" /></filter><filter
       style="color-interpolation-filters:sRGB;"
       inkscape:label="Blur"
       id="filter1148-7"><feGaussianBlur
         stdDeviation="1 1"
         result="blur"
         id="feGaussianBlur1146-2" /></filter><filter
       style="color-interpolation-filters:sRGB;"
       inkscape:label="Blur"
       id="filter1152-3"><feGaussianBlur
         stdDeviation="1 1"
         result="blur"
         id="feGaussianBlur1150-0" /></filter><filter
       style="color-interpolation-filters:sRGB;"
       inkscape:label="Blur"
       id="filter1368-2"><feGaussianBlur
         stdDeviation="2 2"
         result="blur"
         id="feGaussianBlur1366-6" /></filter><mask
       maskUnits="userSpaceOnUse"
       id="mask874-9"><rect
         style="fill:#00ffff;stroke-width:0.376;stroke-miterlimit:10"
         id="rect876-1"
         width="72.65522"
         height="50.381363"
         x="85.648308"
         y="-226.47121" /></mask><radialGradient
       inkscape:collect="always"
       xlink:href="#linearGradient44323"
       id="radialGradient58058"
       gradientUnits="userSpaceOnUse"
       gradientTransform="matrix(3.3997571e-8,1.3000003,-0.65000001,2.7713598e-8,92.418951,-61.542103)"
       cx="64.029167"
       cy="37.570831"
       fx="64.029167"
       fy="37.570831"
       r="26.458332" /><radialGradient
       inkscape:collect="always"
       xlink:href="#linearGradient58356"
       id="radialGradient58158"
       gradientUnits="userSpaceOnUse"
       gradientTransform="matrix(1.6998786e-8,0.32500009,-0.32500001,0,82.192809,26.683219)"
       cx="64.029167"
       cy="37.570831"
       fx="64.029167"
       fy="37.570831"
       r="26.458332" /><marker
       style="overflow:visible"
       refX="1"
       refY="0"
       orient="auto-start-reverse"
       inkscape:stockid="TriangleStart9581448"
       markerWidth="2.5"
       markerHeight="2.8901734"
       viewBox="0 0 5.3244081 6.1553851"
       inkscape:isstock="true"
       inkscape:collect="always"
       preserveAspectRatio="xMidYMid"
       markerUnits="strokeWidth"
       id="TriangleStart9581448"><path
         transform="scale(0.5)"
         style="fill:#d53e4f;fill-opacity:1;fill-rule:evenodd;stroke:#d53e4f;stroke-width:1pt;stroke-opacity:1"
         d="M 5.77,0 -2.88,5 V -5 Z"
         id="path62196" /></marker><linearGradient
       inkscape:collect="always"
       xlink:href="#linearGradient1699"
       id="linearGradient81561"
       gradientUnits="userSpaceOnUse"
       x1="-133.61456"
       y1="-61.964184"
       x2="-133.61456"
       y2="-9.0475187" /><linearGradient
       inkscape:collect="always"
       xlink:href="#linearGradient97387"
       id="linearGradient97389"
       x1="48.785246"
       y1="51.549653"
       x2="72.165105"
       y2="51.549653"
       gradientUnits="userSpaceOnUse" /><linearGradient
       inkscape:collect="always"
       xlink:href="#linearGradient97644"
       id="linearGradient97646"
       x1="48.749479"
       y1="39.246569"
       x2="72.17078"
       y2="39.246569"
       gradientUnits="userSpaceOnUse" /><marker
       style="overflow:visible"
       refX="0"
       refY="0"
       orient="auto"
       inkscape:stockid="Stop4244"
       markerWidth="1"
       markerHeight="5"
       viewBox="0 0 1 8"
       inkscape:isstock="true"
       inkscape:collect="always"
       preserveAspectRatio="none"
       id="Stop4244"><path
         style="fill:#262339;stroke:#262339;stroke-width:1;stroke-opacity:1.0;fill-opacity:1.0"
         d="M 0,4 V -4"
         id="path1422" /></marker><marker
       style="overflow:visible"
       refX="0"
       refY="0"
       orient="auto"
       inkscape:stockid="Stop8940"
       markerWidth="1"
       markerHeight="5"
       viewBox="0 0 1 8"
       inkscape:isstock="true"
       inkscape:collect="always"
       preserveAspectRatio="none"
       id="Stop8940"><path
         style="fill:#262339;stroke:#262339;stroke-width:1;stroke-opacity:1.0;fill-opacity:1.0"
         d="M 0,4 V -4"
         id="path1425" /></marker><marker
       style="overflow:visible"
       refX="0"
       refY="0"
       orient="auto"
       inkscape:stockid="Stop7281"
       markerWidth="1"
       markerHeight="5"
       viewBox="0 0 1 8"
       inkscape:isstock="true"
       inkscape:collect="always"
       preserveAspectRatio="none"
       id="Stop7281"><path
         style="fill:#262339;stroke:#262339;stroke-width:1;stroke-opacity:1.0;fill-opacity:1.0"
         d="M 0,4 V -4"
         id="path1428" /></marker><marker
       style="overflow:visible"
       refX="0"
       refY="0"
       orient="auto"
       inkscape:stockid="Stop1902"
       markerWidth="1"
       markerHeight="5"
       viewBox="0 0 1 8"
       inkscape:isstock="true"
       inkscape:collect="always"
       preserveAspectRatio="none"
       id="Stop1902"><path
         style="fill:#262339;stroke:#262339;stroke-width:1;stroke-opacity:1.0;fill-opacity:1.0"
         d="M 0,4 V -4"
         id="path1431" /></marker><marker
       style="overflow:visible"
       refX="0"
       refY="0"
       orient="auto"
       inkscape:stockid="Stop1125"
       markerWidth="1"
       markerHeight="5"
       viewBox="0 0 1 8"
       inkscape:isstock="true"
       inkscape:collect="always"
       preserveAspectRatio="none"
       id="Stop1125"><path
         style="fill:#262339;stroke:#262339;stroke-width:1;stroke-opacity:1.0;fill-opacity:1.0"
         d="M 0,4 V -4"
         id="path1434" /></marker><marker
       style="overflow:visible"
       refX="0"
       refY="0"
       orient="auto"
       inkscape:stockid="Stop9774"
       markerWidth="1"
       markerHeight="5"
       viewBox="0 0 1 8"
       inkscape:isstock="true"
       inkscape:collect="always"
       preserveAspectRatio="none"
       id="Stop9774"><path
         style="fill:#262339;stroke:#262339;stroke-width:1;stroke-opacity:1.0;fill-opacity:1.0"
         d="M 0,4 V -4"
         id="path1437" /></marker><marker
       style="overflow:visible"
       refX="0"
       refY="0"
       orient="auto"
       inkscape:stockid="Stop7697"
       markerWidth="1"
       markerHeight="5"
       viewBox="0 0 1 8"
       inkscape:isstock="true"
       inkscape:collect="always"
       preserveAspectRatio="none"
       id="Stop7697"><path
         style="fill:#262339;stroke:#262339;stroke-width:1;stroke-opacity:1.0;fill-opacity:1.0"
         d="M 0,4 V -4"
         id="path1440" /></marker><marker
       style="overflow:visible"
       refX="0"
       refY="0"
       orient="auto"
       inkscape:stockid="Stop9859"
       markerWidth="1"
       markerHeight="5"
       viewBox="0 0 1 8"
       inkscape:isstock="true"
       inkscape:collect="always"
       preserveAspectRatio="none"
       id="Stop9859"><path
         style="fill:#262339;stroke:#262339;stroke-width:1;stroke-opacity:1.0;fill-opacity:1.0"
         d="M 0,4 V -4"
         id="path1443" /></marker><marker
       style="overflow:visible"
       refX="0"
       refY="0"
       orient="auto"
       inkscape:stockid="Stop8241"
       markerWidth="1"
       markerHeight="5"
       viewBox="0 0 1 8"
       inkscape:isstock="true"
       inkscape:collect="always"
       preserveAspectRatio="none"
       id="Stop8241"><path
         style="fill:#262339;fill-opacity:1;stroke:#262339;stroke-width:1;stroke-opacity:1"
         d="M 0,4 V -4"
         id="path1446" /></marker><marker
       style="overflow:visible"
       refX="0"
       refY="0"
       orient="auto"
       inkscape:stockid="Stop9202"
       markerWidth="1"
       markerHeight="5"
       viewBox="0 0 1 8"
       inkscape:isstock="true"
       inkscape:collect="always"
       preserveAspectRatio="none"
       id="Stop9202"><path
         style="fill:#262339;fill-opacity:1;stroke:#262339;stroke-width:1;stroke-opacity:1"
         d="M 0,4 V -4"
         id="path1449" /></marker></defs><g
     inkscape:label="Layer 1"
     inkscape:groupmode="layer"
     id="layer1"><path
       id="rect415"
       style="fill:url(#linearGradient4472);stroke-width:0.264583"
       d="M 0,59.266663 H 143.93333 V 88.899996 H 0 Z" /><path
       id="circle58056"
       style="fill:url(#radialGradient58058);stroke-width:0.187088;stroke-linecap:round;stroke-miterlimit:10;stroke-dasharray:0.187088, 0.561266"
       d="M 85.195833,29.633331 A 13.229166,26.458332 0 0 1 71.966667,56.091663 13.229166,26.458332 0 0 1 58.737501,29.633331 13.229166,26.458332 0 0 1 71.966667,3.1749992 13.229166,26.458332 0 0 1 85.195833,29.633331 Z" /><path
       id="ellipse58156"
       style="fill:url(#radialGradient58158);stroke:#262339;stroke-width:0.264583;stroke-linecap:round;stroke-miterlimit:10;stroke-dasharray:0.264583, 0.793752"
       d="m 78.58125,49.477081 a 6.614583,6.614583 0 0 1 -6.614583,6.614583 6.614583,6.614583 0 0 1 -6.614583,-6.614583 6.614583,6.614583 0 0 1 6.614583,-6.614583 6.614583,6.614583 0 0 1 6.614583,6.614583 z" /><path
       id="path101700"
       style="fill:none;stroke:#262339;stroke-width:0.264583px;stroke-linecap:round;stroke-linejoin:miter;stroke-dasharray:0.264583, 0.793749;stroke-dashoffset:0;stroke-opacity:1"
       d="m 71.966668,56.091663 60.324992,2e-6"
       sodipodi:nodetypes="cc" /><path
       id="path101719"
       style="fill:none;stroke:#262339;stroke-width:0.264583px;stroke-linecap:round;stroke-linejoin:miter;stroke-dasharray:0.264583, 0.793749;stroke-dashoffset:0;stroke-opacity:1"
       d="m 71.966668,52.784374 28.574992,-2e-6"
       sodipodi:nodetypes="cc" /><path
       id="path101714"
       style="fill:none;stroke:#262339;stroke-width:0.264583px;stroke-linecap:round;stroke-linejoin:miter;stroke-dasharray:0.264583, 0.793749;stroke-dashoffset:0;stroke-opacity:1"
       d="M 71.966668,50.314929 111.125,50.314755"
       sodipodi:nodetypes="cc" /><path
       id="path81559"
       style="fill:none;fill-opacity:1;stroke:url(#linearGradient81561);stroke-width:2.64583;stroke-linecap:round;stroke-dasharray:none;stroke-dashoffset:0;stroke-opacity:1;marker-start:url(#TriangleStart9581448)"
       class="UnoptimicedTransforms"
       d="M -133.61457,-61.964182 V -9.0475186"
       transform="matrix(1,0,0,0.92175168,152.67793,64.058497)"
       sodipodi:nodetypes="cc" /><g
       id="g100524"
       transform="translate(-4.0916166,1.1022854)"><g
         aria-label="Q1"
         id="text83698"
         style="font-size:4.23333px;font-family:Roboto;-inkscape-font-specification:Roboto;fill:#9e0142;stroke-width:0.529167;stroke-linecap:round"><path
           d="m 45.475024,53.950257 0.448551,0.432015 -0.287321,0.233577 -0.525032,-0.502295 q -0.152962,0.03307 -0.305924,0.03307 -0.283187,-0.0021 -0.498161,-0.136425 -0.214973,-0.136426 -0.334863,-0.390674 -0.117822,-0.256315 -0.130224,-0.578775 -0.0124,-0.260449 0.05374,-0.620117 0.06821,-0.361735 0.231511,-0.651123 0.163297,-0.291454 0.394807,-0.469221 0.330729,-0.252181 0.756543,-0.243913 0.291454,0.0062 0.506428,0.14056 0.214974,0.134359 0.332796,0.390673 0.117822,0.254248 0.130225,0.576709 0.0062,0.173633 -0.01447,0.345198 l -0.0248,0.1757 q -0.128158,0.890901 -0.733805,1.265038 z m 0.388606,-1.690851 q 0.01447,-0.413412 -0.142627,-0.634587 -0.157096,-0.221174 -0.458886,-0.229443 -0.276985,-0.0083 -0.496093,0.148828 -0.217041,0.157097 -0.357601,0.471289 -0.138493,0.312125 -0.1757,0.791682 l -0.0062,0.134359 q -0.0083,0.237711 0.05581,0.444417 0.06408,0.206705 0.202571,0.314192 0.14056,0.107487 0.343131,0.113688 0.380339,0.01447 0.638721,-0.274918 0.260449,-0.289388 0.347265,-0.816487 0.04341,-0.262516 0.04961,-0.46302 z"
           style="font-style:italic;-inkscape-font-specification:'Roboto Italic'"
           id="path1945" /><path
           d="m 47.255999,54.954019 h -0.244533 l 0.287527,-1.649923 -0.519967,0.182727 0.04165,-0.236471 0.725536,-0.261999 h 0.04299 z"
           style="font-size:65%;baseline-shift:sub"
           id="path1947" /></g><g
         aria-label="-Q0"
         id="text83754"
         style="font-size:4.23333px;font-family:Roboto;-inkscape-font-specification:Roboto;fill:#5e4fa2;stroke-width:0.529167;stroke-linecap:round"><path
           d="m 43.200184,7.8293215 h -0.981851 l 0.05581,-0.3121254 h 0.981852 z"
           style="font-style:italic;-inkscape-font-specification:'Roboto Italic'"
           id="path1950" /><path
           d="M 45.194893,8.7946364 45.643444,9.226651 45.356123,9.4602283 44.831091,8.9579338 Q 44.678129,8.9910067 44.525167,8.9910067 44.24198,8.9889396 44.027006,8.854581 43.812033,8.7181554 43.692143,8.4639075 43.574321,8.2075926 43.561919,7.885132 q -0.0124,-0.260449 0.05374,-0.6201167 0.06821,-0.3617347 0.231511,-0.6511225 0.163297,-0.2914548 0.394807,-0.4692216 0.330729,-0.2521808 0.756543,-0.2439126 0.291454,0.0062 0.506428,0.1405598 0.214974,0.1343586 0.332796,0.3906735 0.117822,0.2542478 0.130225,0.5767085 0.0062,0.1736327 -0.01447,0.3451983 l -0.0248,0.1756997 q -0.128158,0.890901 -0.733805,1.265038 z M 45.583499,7.103785 Q 45.597969,6.6903739 45.440872,6.4691989 45.283776,6.248024 44.981986,6.2397557 q -0.276985,-0.00827 -0.496093,0.148828 -0.217041,0.1570963 -0.357601,0.4712887 -0.138493,0.3121254 -0.1757,0.7916823 l -0.0062,0.1343586 q -0.0083,0.2377114 0.05581,0.4444169 0.06408,0.2067056 0.202571,0.3141925 0.14056,0.1074869 0.343131,0.113688 0.380339,0.014469 0.638721,-0.2749183 0.260449,-0.2893878 0.347265,-0.816487 0.04341,-0.262516 0.04961,-0.4630204 z"
           style="font-style:italic;-inkscape-font-specification:'Roboto Italic'"
           id="path1952" /><path
           d="m 46.798515,9.8252703 q -0.24722,-0.00537 -0.37083,-0.1746661 -0.12361,-0.1706355 -0.112861,-0.4904089 0.0027,-0.099425 0.01478,-0.1961636 l 0.04837,-0.3264914 q 0.06449,-0.4178553 0.245876,-0.6234239 0.181384,-0.2055687 0.478317,-0.1988507 0.249907,0.00537 0.372173,0.171979 0.12361,0.165261 0.114205,0.4810038 -0.004,0.1007689 -0.01612,0.1975071 l -0.04702,0.3157427 q -0.07121,0.4420398 -0.251251,0.6462649 -0.180041,0.2042251 -0.475629,0.1975071 z m 0.538778,-1.203853 q 0.01881,-0.1625739 0.01747,-0.2525942 -0.0067,-0.3412709 -0.264686,-0.350676 -0.188102,-0.00672 -0.304994,0.139733 -0.115549,0.1451073 -0.161231,0.4568192 l -0.05777,0.38964 q -0.01881,0.155856 -0.01747,0.2539377 0.0067,0.3560503 0.263342,0.3654554 0.178697,0.00806 0.294246,-0.1316714 0.116892,-0.1397329 0.166604,-0.4433834 z"
           style="font-size:65%;baseline-shift:sub"
           id="path1954" /></g><g
         aria-label="-Q1"
         id="text83760"
         style="font-size:4.23333px;font-family:Roboto;-inkscape-font-specification:Roboto;fill:#5e4fa2;stroke-width:0.529167;stroke-linecap:round"><path
           d="m 43.48032,28.51092 h -0.981851 l 0.05581,-0.312125 h 0.981852 z"
           style="font-style:italic;-inkscape-font-specification:'Roboto Italic'"
           id="path1957" /><path
           d="m 45.475029,29.476235 0.448551,0.432015 -0.287321,0.233577 -0.525032,-0.502295 q -0.152962,0.03307 -0.305924,0.03307 -0.283187,-0.0021 -0.49816,-0.136425 -0.214974,-0.136426 -0.334863,-0.390674 -0.117823,-0.256315 -0.130225,-0.578775 -0.0124,-0.260449 0.05374,-0.620117 0.06821,-0.361735 0.23151,-0.651123 0.163297,-0.291454 0.394807,-0.469221 0.330729,-0.252181 0.756543,-0.243913 0.291455,0.0062 0.506428,0.14056 0.214974,0.134359 0.332796,0.390674 0.117822,0.254247 0.130225,0.576708 0.0062,0.173633 -0.01447,0.345198 l -0.0248,0.1757 q -0.128158,0.890901 -0.733805,1.265038 z m 0.388606,-1.690851 q 0.01447,-0.413411 -0.142626,-0.634586 -0.157097,-0.221175 -0.458887,-0.229444 -0.276985,-0.0083 -0.496093,0.148828 -0.217041,0.157097 -0.357601,0.471289 -0.138492,0.312125 -0.175699,0.791682 l -0.0062,0.134359 q -0.0083,0.237711 0.05581,0.444417 0.06408,0.206705 0.202571,0.314192 0.14056,0.107487 0.343132,0.113688 0.380338,0.01447 0.63872,-0.274918 0.260449,-0.289388 0.347265,-0.816487 0.04341,-0.262516 0.04961,-0.46302 z"
           style="font-style:italic;-inkscape-font-specification:'Roboto Italic'"
           id="path1959" /><path
           d="m 47.256004,30.479997 h -0.244533 l 0.287528,-1.649923 -0.519968,0.182727 0.04165,-0.236471 0.725537,-0.261999 h 0.04299 z"
           style="font-size:65%;baseline-shift:sub"
           id="path1961" /></g><g
         aria-label="Q'1"
         id="text83766"
         style="font-size:4.23333px;font-family:Roboto;-inkscape-font-specification:Roboto;fill:#5e4fa2;stroke-width:0.529167;stroke-linecap:round"><path
           d="m 44.739153,64.268944 0.448552,0.432015 -0.287321,0.233577 -0.525032,-0.502294 q -0.152962,0.03307 -0.305925,0.03307 -0.283186,-0.0021 -0.49816,-0.136426 -0.214974,-0.136426 -0.334863,-0.390673 -0.117822,-0.256315 -0.130224,-0.578776 -0.0124,-0.260449 0.05374,-0.620117 0.06821,-0.361734 0.23151,-0.651122 0.163298,-0.291455 0.394808,-0.469222 0.330729,-0.252181 0.756542,-0.243912 0.291455,0.0062 0.506429,0.140559 0.214974,0.134359 0.332796,0.390674 0.117822,0.254248 0.130224,0.576708 0.0062,0.173633 -0.01447,0.345199 l -0.02481,0.175699 q -0.128157,0.890901 -0.733805,1.265038 z m 0.388607,-1.690851 q 0.01447,-0.413411 -0.142627,-0.634586 -0.157096,-0.221175 -0.458886,-0.229443 -0.276986,-0.0083 -0.496094,0.148828 -0.21704,0.157096 -0.3576,0.471288 -0.138493,0.312126 -0.1757,0.791683 l -0.0062,0.134358 q -0.0083,0.237712 0.05581,0.444417 0.06408,0.206706 0.202572,0.314193 0.14056,0.107487 0.343131,0.113688 0.380338,0.01447 0.63872,-0.274919 0.260449,-0.289387 0.347266,-0.816487 0.04341,-0.262516 0.04961,-0.46302 z"
           style="font-style:italic;-inkscape-font-specification:'Roboto Italic'"
           id="path1964" /><path
           d="m 46.481681,61.494956 -0.157096,0.746207 h -0.264583 l 0.159163,-0.99012 h 0.30179 z"
           style="font-style:italic;-inkscape-font-specification:'Roboto Italic'"
           id="path1966" /><path
           d="m 47.256,65.272707 h -0.244532 l 0.287527,-1.649924 -0.519968,0.182728 0.04165,-0.236471 0.725537,-0.262 h 0.043 z"
           style="font-size:65%;baseline-shift:sub"
           id="path1968" /></g><g
         aria-label="Q'0"
         id="text83772"
         style="font-size:4.23333px;font-family:Roboto;-inkscape-font-specification:Roboto;fill:#5e4fa2;stroke-width:0.529167;stroke-linecap:round"><path
           d="m 44.459025,69.384133 0.448551,0.432015 -0.287321,0.233577 -0.525032,-0.502295 q -0.152962,0.03307 -0.305924,0.03307 -0.283187,-0.0021 -0.49816,-0.136425 -0.214974,-0.136426 -0.334863,-0.390674 -0.117823,-0.256315 -0.130225,-0.578775 -0.0124,-0.260449 0.05374,-0.620117 0.06821,-0.361735 0.23151,-0.651123 0.163297,-0.291454 0.394807,-0.469221 0.330729,-0.252181 0.756543,-0.243913 0.291455,0.0062 0.506428,0.14056 0.214974,0.134359 0.332796,0.390674 0.117822,0.254247 0.130225,0.576708 0.0062,0.173633 -0.01447,0.345198 l -0.0248,0.1757 q -0.128158,0.890901 -0.733805,1.265038 z m 0.388606,-1.690851 q 0.01447,-0.413412 -0.142626,-0.634586 -0.157097,-0.221175 -0.458887,-0.229444 -0.276985,-0.0083 -0.496093,0.148828 -0.217041,0.157097 -0.357601,0.471289 -0.138492,0.312125 -0.175699,0.791682 l -0.0062,0.134359 q -0.0083,0.237711 0.05581,0.444417 0.06408,0.206705 0.202571,0.314192 0.14056,0.107487 0.343132,0.113688 0.380338,0.01447 0.63872,-0.274918 0.260449,-0.289388 0.347265,-0.816487 0.04341,-0.262516 0.04961,-0.46302 z"
           style="font-style:italic;-inkscape-font-specification:'Roboto Italic'"
           id="path1971" /><path
           d="m 46.201553,66.610144 -0.157096,0.746208 h -0.264584 l 0.159164,-0.99012 h 0.30179 z"
           style="font-style:italic;-inkscape-font-specification:'Roboto Italic'"
           id="path1973" /><path
           d="m 46.798518,70.414767 q -0.247219,-0.0054 -0.370829,-0.174666 -0.12361,-0.170636 -0.112862,-0.490409 0.0027,-0.09942 0.01478,-0.196164 l 0.04837,-0.326491 q 0.06449,-0.417855 0.245876,-0.623424 0.181384,-0.205569 0.478317,-0.198851 0.249907,0.0054 0.372173,0.171979 0.12361,0.165261 0.114205,0.481004 -0.004,0.100769 -0.01612,0.197507 l -0.04703,0.315743 q -0.07121,0.44204 -0.25125,0.646265 -0.180041,0.204225 -0.47563,0.197507 z m 0.538778,-1.203853 q 0.01881,-0.162574 0.01747,-0.252594 -0.0067,-0.341271 -0.264686,-0.350676 -0.188103,-0.0067 -0.304995,0.139733 -0.115548,0.145107 -0.16123,0.456819 l -0.05777,0.38964 q -0.01881,0.155856 -0.01747,0.253938 0.0067,0.35605 0.263343,0.365455 0.178697,0.0081 0.294246,-0.131671 0.116892,-0.139733 0.166604,-0.443384 z"
           style="font-size:65%;baseline-shift:sub"
           id="path1975" /></g><g
         aria-label="Q0"
         id="text4303-4"
         style="font-size:4.23333px;font-family:Roboto;-inkscape-font-specification:Roboto;fill:#9e0142;stroke-width:0.529167;stroke-linecap:round"><path
           d="m 45.194895,48.834801 0.448551,0.432015 -0.28732,0.233577 -0.525032,-0.502294 q -0.152963,0.03307 -0.305925,0.03307 -0.283186,-0.0021 -0.49816,-0.136426 -0.214974,-0.136426 -0.334863,-0.390674 -0.117822,-0.256314 -0.130225,-0.578775 -0.0124,-0.260449 0.05374,-0.620117 0.06821,-0.361734 0.23151,-0.651122 0.163298,-0.291455 0.394808,-0.469222 0.330729,-0.252181 0.756542,-0.243912 0.291455,0.0062 0.506429,0.140559 0.214973,0.134359 0.332796,0.390674 0.117822,0.254248 0.130224,0.576708 0.0062,0.173633 -0.01447,0.345199 l -0.02481,0.175699 q -0.128157,0.890901 -0.733805,1.265038 z m 0.388607,-1.690851 q 0.01447,-0.413411 -0.142627,-0.634586 -0.157096,-0.221175 -0.458886,-0.229443 -0.276986,-0.0083 -0.496094,0.148828 -0.217041,0.157096 -0.3576,0.471288 -0.138493,0.312126 -0.1757,0.791683 l -0.0062,0.134358 q -0.0083,0.237712 0.05581,0.444417 0.06408,0.206706 0.202572,0.314193 0.14056,0.107487 0.343131,0.113688 0.380338,0.01447 0.63872,-0.274919 0.260449,-0.289387 0.347265,-0.816487 0.04341,-0.262516 0.04961,-0.46302 z"
           style="font-style:italic;-inkscape-font-specification:'Roboto Italic'"
           id="path1978" /><path
           d="m 46.798517,49.865435 q -0.24722,-0.0054 -0.37083,-0.174666 -0.12361,-0.170635 -0.112861,-0.490409 0.0027,-0.09943 0.01478,-0.196163 l 0.04837,-0.326492 q 0.06449,-0.417855 0.245877,-0.623424 0.181384,-0.205568 0.478316,-0.19885 0.249907,0.0054 0.372174,0.171979 0.12361,0.165261 0.114204,0.481003 -0.004,0.100769 -0.01612,0.197508 l -0.04703,0.315742 q -0.07121,0.44204 -0.251251,0.646265 -0.18004,0.204225 -0.475629,0.197507 z m 0.538778,-1.203853 q 0.01881,-0.162574 0.01747,-0.252594 -0.0067,-0.341271 -0.264687,-0.350676 -0.188102,-0.0067 -0.304994,0.139733 -0.115548,0.145107 -0.16123,0.456819 l -0.05777,0.38964 q -0.01881,0.155856 -0.01747,0.253938 0.0067,0.35605 0.263343,0.365455 0.178697,0.0081 0.294245,-0.131671 0.116892,-0.139733 0.166605,-0.443383 z"
           style="font-size:65%;baseline-shift:sub"
           id="path1980" /></g></g><g
       id="g97864"
       transform="matrix(0.7379365,0,0,1.0013149,18.837265,-0.0117707)"><path
         style="opacity:1;fill:none;stroke:#ffffbf;stroke-width:0.396875;stroke-linecap:round;stroke-linejoin:round;stroke-dasharray:none;stroke-dashoffset:0;stroke-opacity:1"
         d="m 71.930902,8.9517327 h 0.03577 a 4.7624978,4.7624978 45.000001 0 1 4.762498,4.7624983 l -10e-7,11.950353 a 3.9687488,3.9687488 45.000001 0 0 3.968749,3.968749 h 10e-7 -10e-7 a 3.9687488,3.9687488 135 0 0 -3.968749,3.968749 l 10e-7,11.950351 a 4.7624978,4.7624978 135 0 1 -4.762498,4.762498 h -0.03577"
         id="path90857"
         sodipodi:nodetypes="ccccccc" /><path
         style="opacity:1;fill:none;stroke:#ffffbf;stroke-width:0.396875;stroke-linecap:round;stroke-linejoin:round;stroke-dasharray:none;stroke-dashoffset:0;stroke-opacity:1"
         d="m 71.966665,29.633333 v 0 a 4.7982636,4.7982636 135 0 0 -4.798264,4.798264 l 10e-7,2.855094 a 3.9687497,3.9687497 135 0 1 -3.96875,3.96875 3.9687497,3.9687497 45.000002 0 1 3.96875,3.96875 l -10e-7,2.890862 a 4.7624966,4.7624966 45.000002 0 0 4.762497,4.762497 h 0.03577"
         id="path90859"
         sodipodi:nodetypes="ccccccc" /></g><g
       id="g97830"
       transform="matrix(1.2068457,0,0,1,-14.887164,0)"><path
         id="path96596"
         style="fill:none;fill-opacity:1;stroke:url(#linearGradient97389);stroke-width:0.396875;stroke-linecap:round;stroke-linejoin:round;stroke-dasharray:none;stroke-opacity:1"
         d="M 71.966668,52.784374 48.983683,54.10738 M 71.966668,50.314929 48.983683,48.991925" /><path
         id="use83835"
         style="fill:none;fill-opacity:1;stroke:url(#linearGradient97646);stroke-width:0.396875;stroke-linecap:round;stroke-linejoin:round;stroke-dasharray:none;stroke-opacity:1"
         d="M 71.930901,68.218399 48.947916,69.541405 M 71.972343,65.748955 48.989358,64.425951 M 71.930901,29.633332 H 48.947916 M 71.930901,8.9517326 H 48.947916" /></g><path
       id="path75354"
       style="fill:#d53e4f;stroke-width:0.396874;stroke-linecap:round;stroke-miterlimit:10;stroke-dasharray:0.396874, 1.19063"
       d="m 72.724651,50.31493 a 0.79374999,0.79374999 0 0 1 -0.79375,0.79375 0.79374999,0.79374999 0 0 1 -0.79375,-0.79375 0.79374999,0.79374999 0 0 1 0.79375,-0.79375 0.79374999,0.79374999 0 0 1 0.79375,0.79375 z" /><path
       id="circle77059"
       style="fill:#d53e4f;stroke-width:0.396874;stroke-linecap:round;stroke-miterlimit:10;stroke-dasharray:0.396874, 1.19063"
       d="m 72.766093,52.784374 a 0.79374999,0.79374999 0 0 1 -0.79375,0.79375 0.79374999,0.79374999 0 0 1 -0.79375,-0.79375 0.79374999,0.79374999 0 0 1 0.79375,-0.79375 0.79374999,0.79374999 0 0 1 0.79375,0.79375 z" /><path
       id="circle78030"
       style="fill:#3288bd;stroke-width:0.264583;stroke-linecap:round;stroke-miterlimit:10;stroke-dasharray:0.264583, 0.79375"
       d="m 72.671734,68.218399 a 0.74083334,0.74083334 0 0 0 -0.740833,-0.740833 0.74083334,0.74083334 0 0 0 -0.740834,0.740833 0.74083334,0.74083334 0 0 0 0.740834,0.740833 0.74083334,0.74083334 0 0 0 0.740833,-0.740833 z" /><path
       id="circle78032"
       style="fill:#3288bd;stroke-width:0.264583;stroke-linecap:round;stroke-miterlimit:10;stroke-dasharray:0.264583, 0.79375"
       d="m 72.713177,65.748955 a 0.74083334,0.74083334 0 0 0 -0.740834,-0.740834 0.74083334,0.74083334 0 0 0 -0.740833,0.740834 0.74083334,0.74083334 0 0 0 0.740833,0.740833 0.74083334,0.74083334 0 0 0 0.740834,-0.740833 z" /><path
       id="circle81091"
       style="fill:#3288bd;stroke-width:0.396874;stroke-linecap:round;stroke-miterlimit:10;stroke-dasharray:0.396874, 1.19063"
       d="m 72.724651,8.9517326 a 0.79374999,0.79374999 0 0 0 -0.79375,-0.79375 0.79374999,0.79374999 0 0 0 -0.79375,0.79375 0.79374999,0.79374999 0 0 0 0.79375,0.79375 0.79374999,0.79374999 0 0 0 0.79375,-0.79375 z" /><path
       id="circle83645"
       style="fill:#3288bd;stroke-width:0.396874;stroke-linecap:round;stroke-miterlimit:10;stroke-dasharray:0.396874, 1.19063"
       d="m 72.724651,29.633331 a 0.79374999,0.79374999 0 0 1 -0.79375,0.79375 0.79374999,0.79374999 0 0 1 -0.79375,-0.79375 0.79374999,0.79374999 0 0 1 0.79375,-0.79375 0.79374999,0.79374999 0 0 1 0.79375,0.79375 z" /><g
       aria-label="p0"
       id="text99666"
       style="font-size:4.23333px;font-family:Roboto;-inkscape-font-specification:Roboto;fill:#ffffbf;stroke-width:0.529167;stroke-linecap:round"><path
         d="m 81.335345,29.510695 q -0.04134,0.341064 -0.183968,0.613916 -0.142627,0.272851 -0.353466,0.409277 -0.21084,0.134358 -0.467155,0.128157 -0.388606,-0.0083 -0.595312,-0.262516 l -0.200504,1.079003 h -0.374137 l 0.537434,-3.096449 0.338997,-0.0021 -0.04134,0.250114 q 0.276986,-0.297656 0.663525,-0.289388 0.322461,0.0083 0.502295,0.237711 0.179833,0.229443 0.190169,0.632519 0.0021,0.132292 -0.01034,0.256315 z m -0.367936,-0.04341 0.01034,-0.173633 q 0,-0.30179 -0.115755,-0.460953 -0.113689,-0.16123 -0.330729,-0.169498 -0.324528,-0.0083 -0.560172,0.307991 l -0.188102,1.072802 q 0.12609,0.297656 0.452685,0.305924 0.279052,0.0062 0.473355,-0.217041 0.196371,-0.225309 0.258382,-0.665592 z"
         style="font-style:italic;-inkscape-font-specification:'Roboto Italic'"
         id="path1934" /><path
         d="m 82.205162,31.492175 q -0.24722,-0.0054 -0.37083,-0.174666 -0.123609,-0.170636 -0.112861,-0.490409 0.0027,-0.09943 0.01478,-0.196164 l 0.04837,-0.326491 q 0.06449,-0.417856 0.245876,-0.623424 0.181384,-0.205569 0.478317,-0.198851 0.249907,0.0054 0.372173,0.171979 0.12361,0.165261 0.114205,0.481004 -0.004,0.100769 -0.01612,0.197507 l -0.04703,0.315743 q -0.07121,0.44204 -0.25125,0.646265 -0.180041,0.204225 -0.47563,0.197507 z m 0.538778,-1.203853 q 0.01881,-0.162574 0.01747,-0.252594 -0.0067,-0.341271 -0.264687,-0.350676 -0.188102,-0.0067 -0.304994,0.139733 -0.115548,0.145107 -0.16123,0.456819 l -0.05777,0.38964 q -0.01881,0.155856 -0.01747,0.253937 0.0067,0.356051 0.263343,0.365456 0.178697,0.0081 0.294245,-0.131672 0.116892,-0.139732 0.166605,-0.443383 z"
         style="font-size:65%;baseline-shift:sub"
         id="path1936" /></g><g
       aria-label="p1"
       id="text99741"
       style="font-size:4.23333px;font-family:Roboto;-inkscape-font-specification:Roboto;fill:#ffffbf;stroke-width:0.529167;stroke-linecap:round"><path
         d="m 63.272002,40.873652 q -0.04134,0.341064 -0.183968,0.613916 -0.142627,0.272851 -0.353466,0.409277 -0.21084,0.134358 -0.467155,0.128157 -0.388606,-0.0083 -0.595312,-0.262516 l -0.200504,1.079003 H 61.09746 l 0.537434,-3.096449 0.338997,-0.0021 -0.04134,0.250114 q 0.276986,-0.297656 0.663525,-0.289388 0.322461,0.0083 0.502295,0.237711 0.179833,0.229443 0.190169,0.632519 0.0021,0.132292 -0.01034,0.256315 z m -0.367936,-0.04341 0.01034,-0.173633 q 0,-0.30179 -0.115756,-0.460953 -0.113688,-0.16123 -0.330728,-0.169498 -0.324528,-0.0083 -0.560172,0.307991 l -0.188103,1.072802 q 0.126091,0.297656 0.452686,0.305924 0.279052,0.0062 0.473355,-0.217041 0.196371,-0.225309 0.258382,-0.665592 z"
         style="font-style:italic;-inkscape-font-specification:'Roboto Italic'"
         id="path1929" /><path
         d="M 64.319173,42.82826 H 64.07464 l 0.287527,-1.649924 -0.519968,0.182728 0.04165,-0.236471 0.725536,-0.261999 h 0.043 z"
         style="font-size:65%;baseline-shift:sub"
         id="path1931" /></g><g
       aria-label="Ein"
       id="text100446"
       style="font-size:4.23333px;font-family:Roboto;-inkscape-font-specification:Roboto;fill:#9e0142;stroke-width:0.529167;stroke-linecap:round"><path
         d="m 12.925319,29.323687 h -1.265038 l -0.186035,1.0666 h 1.471744 l -0.05788,0.324528 h -1.858283 l 0.522965,-3.009633 h 1.837613 l -0.05788,0.326595 h -1.449006 l -0.167431,0.967382 h 1.265038 z"
         style="font-style:italic;-inkscape-font-specification:'Roboto Italic'"
         id="path1922" /><path
         d="m 13.567243,31.561481 h -0.241845 l 0.252594,-1.45376 h 0.241846 z m 0.200195,-1.984476 q 0.0618,-0.0027 0.102112,0.03762 0.04165,0.03896 0.04165,0.103456 -0.0013,0.06315 -0.04165,0.103456 -0.03896,0.04031 -0.102112,0.043 -0.06315,0.0027 -0.103456,-0.03628 -0.04031,-0.03896 -0.03896,-0.102112 0.0013,-0.06315 0.04031,-0.1048 0.03896,-0.04165 0.102113,-0.04434 z"
         style="font-size:65%;baseline-shift:sub"
         id="path1924" /><path
         d="m 14.447292,30.106377 -0.03493,0.184072 q 0.196164,-0.214974 0.446071,-0.2096 0.205568,0.0054 0.30365,0.14242 0.09808,0.137046 0.07255,0.38561 l -0.158543,0.952602 h -0.243189 l 0.159886,-0.956633 q 0.0081,-0.06584 0.0013,-0.122266 -0.02284,-0.188102 -0.221692,-0.192133 -0.219004,-0.004 -0.384265,0.233784 l -0.180041,1.037248 H 13.9649 l 0.252594,-1.45376 z"
         style="font-size:65%;baseline-shift:sub"
         id="path1926" /></g><path
       id="path101575"
       style="fill:none;fill-opacity:1;stroke:#262339;stroke-width:0.264583;stroke-linecap:butt;stroke-linejoin:round;stroke-dasharray:none;stroke-opacity:1;marker-start:url(#Stop4244);marker-end:url(#Stop8940)"
       d="M 132.29166,56.091665 V 3.1749999" /><path
       id="path101608"
       style="fill:none;fill-opacity:1;stroke:#262339;stroke-width:0.264583;stroke-linecap:butt;stroke-linejoin:round;stroke-dasharray:none;stroke-opacity:1;marker-start:url(#Stop7281);marker-end:url(#Stop1902)"
       d="m 89.958331,59.266665 v -3.175"
       sodipodi:nodetypes="cc" /><path
       id="path101586"
       style="fill:none;fill-opacity:1;stroke:#262339;stroke-width:0.264583;stroke-linecap:butt;stroke-linejoin:round;stroke-dasharray:none;stroke-opacity:1;marker-start:url(#Stop1125);marker-end:url(#Stop9774)"
       d="M 121.70833,56.091665 V 42.862499" /><path
       id="path101593"
       style="fill:none;fill-opacity:1;stroke:#262339;stroke-width:0.264583;stroke-linecap:butt;stroke-linejoin:round;stroke-dasharray:none;stroke-opacity:1;marker-start:url(#Stop7697);marker-end:url(#Stop9859)"
       d="m 111.125,56.091665 v -5.77691" /><path
       id="path101603"
       style="fill:none;fill-opacity:1;stroke:#262339;stroke-width:0.264583;stroke-linecap:butt;stroke-linejoin:round;stroke-dasharray:none;stroke-opacity:1;marker-start:url(#Stop8241);marker-end:url(#Stop9202)"
       d="M 100.54166,56.091665 V 52.784372" /><path
       id="path101708"
       style="fill:none;stroke:#262339;stroke-width:0.264583px;stroke-linecap:round;stroke-linejoin:miter;stroke-dasharray:0.264583, 0.793749;stroke-dashoffset:0;stroke-opacity:1"
       d="m 71.966668,3.1749998 60.324992,10e-8"
       sodipodi:nodetypes="cc" /><path
       id="path101710"
       style="fill:none;stroke:#262339;stroke-width:0.264583px;stroke-linecap:round;stroke-linejoin:miter;stroke-dasharray:0.264583, 0.793749;stroke-dashoffset:0;stroke-opacity:1"
       d="M 71.966668,42.862499 H 121.70833"
       sodipodi:nodetypes="cc" /><g
       aria-label="z"
       id="text101905"
       style="font-size:4.23333px;font-family:Roboto;-inkscape-font-specification:Roboto;fill:#262339;stroke-width:0.529167;stroke-linecap:round"><path
         d="m 91.764941,58.485318 h 1.25677 l -0.05581,0.312125 h -1.723924 l 0.05168,-0.299723 1.465543,-1.620571 h -1.167887 l 0.05788,-0.31626 h 1.645376 l -0.04961,0.289388 z"
         style="font-style:italic;-inkscape-font-specification:'Roboto Italic'"
         id="path1919" /></g><g
       aria-label="zQ1"
       id="text102028"
       style="font-size:4.23333px;font-family:Roboto;-inkscape-font-specification:Roboto;fill:#262339;stroke-width:0.529167;stroke-linecap:round"><path
         d="m 102.34827,54.655576 h 1.25677 l -0.0558,0.312125 h -1.72393 l 0.0517,-0.299723 1.46554,-1.620572 h -1.16788 l 0.0579,-0.316259 h 1.64538 l -0.0496,0.289388 z"
         style="font-style:italic;-inkscape-font-specification:'Roboto Italic'"
         id="path1912" /><path
         d="m 105.13993,55.712254 0.29156,0.28081 -0.18676,0.151825 -0.34127,-0.326491 q -0.0994,0.0215 -0.19885,0.0215 -0.18407,-0.0013 -0.32381,-0.08868 -0.13973,-0.08868 -0.21766,-0.253937 -0.0766,-0.166605 -0.0846,-0.376204 -0.008,-0.169292 0.0349,-0.403076 0.0443,-0.235128 0.15048,-0.42323 0.10615,-0.189445 0.25663,-0.304994 0.21497,-0.163917 0.49175,-0.158543 0.18945,0.004 0.32918,0.09136 0.13973,0.08733 0.21632,0.253938 0.0766,0.165261 0.0846,0.37486 0.004,0.112861 -0.009,0.224379 l -0.0161,0.114205 q -0.0833,0.579085 -0.47697,0.822274 z m 0.2526,-1.099053 q 0.009,-0.268717 -0.0927,-0.412481 -0.10211,-0.143764 -0.29828,-0.149138 -0.18004,-0.0054 -0.32246,0.09674 -0.14108,0.102113 -0.23244,0.306338 -0.09,0.202881 -0.1142,0.514593 l -0.004,0.08733 q -0.005,0.154513 0.0363,0.288871 0.0416,0.134359 0.13167,0.204225 0.0914,0.06987 0.22304,0.0739 0.24722,0.0094 0.41517,-0.178697 0.16929,-0.188102 0.22572,-0.530717 0.0282,-0.170635 0.0322,-0.300963 z"
         style="font-size:65%;baseline-shift:sub"
         id="path1914" /><path
         d="m 106.5816,55.814367 h -0.24453 l 0.28752,-1.649924 -0.51996,0.182728 0.0417,-0.236471 0.72553,-0.261999 h 0.043 z"
         style="font-size:65%;baseline-shift:sub"
         id="path1916" /></g><g
       aria-label="zQ0"
       id="text102235"
       style="font-size:4.23333px;font-family:Roboto;-inkscape-font-specification:Roboto;fill:#262339;stroke-width:0.529167;stroke-linecap:round"><path
         d="m 112.93161,53.420766 h 1.25677 l -0.0558,0.312125 h -1.72392 l 0.0517,-0.299723 1.46555,-1.620572 h -1.16789 l 0.0579,-0.316259 h 1.64537 l -0.0496,0.289388 z"
         style="font-style:italic;-inkscape-font-specification:'Roboto Italic'"
         id="path1905" /><path
         d="m 115.72327,54.477445 0.29156,0.280809 -0.18676,0.151825 -0.34127,-0.326491 q -0.0994,0.0215 -0.19885,0.0215 -0.18407,-0.0013 -0.3238,-0.08868 -0.13973,-0.08868 -0.21766,-0.253938 -0.0766,-0.166605 -0.0846,-0.376204 -0.008,-0.169292 0.0349,-0.403076 0.0443,-0.235128 0.15049,-0.42323 0.10614,-0.189445 0.25662,-0.304994 0.21498,-0.163917 0.49175,-0.158543 0.18945,0.004 0.32918,0.09136 0.13974,0.08733 0.21632,0.253938 0.0766,0.165261 0.0846,0.37486 0.004,0.112861 -0.009,0.224379 l -0.0161,0.114205 q -0.0833,0.579085 -0.47698,0.822275 z m 0.2526,-1.099054 q 0.009,-0.268717 -0.0927,-0.412481 -0.10211,-0.143763 -0.29827,-0.149138 -0.18005,-0.0054 -0.32247,0.09674 -0.14107,0.102113 -0.23244,0.306338 -0.09,0.202882 -0.1142,0.514593 l -0.004,0.08733 q -0.005,0.154512 0.0363,0.288871 0.0417,0.134358 0.13167,0.204225 0.0914,0.06987 0.22303,0.0739 0.24722,0.0094 0.41517,-0.178697 0.16929,-0.188102 0.22572,-0.530717 0.0282,-0.170635 0.0323,-0.300963 z"
         style="font-size:65%;baseline-shift:sub"
         id="path1907" /><path
         d="m 116.98759,54.606429 q -0.24722,-0.0054 -0.37083,-0.174666 -0.12361,-0.170636 -0.11286,-0.490409 0.003,-0.09943 0.0148,-0.196164 l 0.0484,-0.326491 q 0.0645,-0.417856 0.24587,-0.623424 0.18139,-0.205569 0.47832,-0.198851 0.24991,0.0054 0.37217,0.171979 0.12361,0.165261 0.11421,0.481004 -0.004,0.100769 -0.0161,0.197507 l -0.047,0.315743 q -0.0712,0.44204 -0.25125,0.646265 -0.18004,0.204225 -0.47563,0.197507 z m 0.53878,-1.203853 q 0.0188,-0.162574 0.0175,-0.252594 -0.007,-0.341271 -0.26468,-0.350676 -0.1881,-0.0067 -0.305,0.139733 -0.11555,0.145107 -0.16123,0.456819 l -0.0578,0.38964 q -0.0188,0.155856 -0.0175,0.253937 0.007,0.356051 0.26334,0.365456 0.1787,0.0081 0.29425,-0.131672 0.11689,-0.139732 0.1666,-0.443383 z"
         style="font-size:65%;baseline-shift:sub"
         id="path1909" /></g><g
       aria-label="2r"
       id="text102241"
       style="font-size:4.23333px;font-family:Roboto;-inkscape-font-specification:Roboto;fill:#262339;stroke-width:0.529167;stroke-linecap:round"><path
         d="m 124.99495,51.002728 h -1.91616 l 0.0455,-0.291455 1.11001,-1.079003 0.20257,-0.200505 q 0.34933,-0.349332 0.38654,-0.644921 0.0269,-0.227376 -0.0889,-0.370003 -0.11575,-0.144694 -0.32659,-0.152962 -0.27079,-0.0083 -0.45269,0.159163 -0.1819,0.165365 -0.22117,0.454752 l -0.37,0.0021 q 0.0269,-0.276985 0.16949,-0.489892 0.1447,-0.214973 0.37828,-0.328662 0.23564,-0.115755 0.51056,-0.109553 0.37414,0.0083 0.59324,0.227376 0.22118,0.21704 0.19017,0.564306 -0.0351,0.396874 -0.45682,0.83509 l -0.19017,0.192236 -0.96738,0.91984 h 1.45314 z"
         style="font-style:italic;-inkscape-font-specification:'Roboto Italic'"
         id="path1900" /><path
         d="m 126.81396,49.107238 -0.1757,-0.0186 q -0.35967,0 -0.56637,0.324528 l -0.27492,1.589566 h -0.37414 l 0.38861,-2.236555 0.36173,-0.0021 -0.0558,0.260449 q 0.23772,-0.312125 0.56018,-0.303857 0.0682,0 0.17776,0.03101 z"
         style="font-style:italic;-inkscape-font-specification:'Roboto Italic'"
         id="path1902" /></g><g
       aria-label="2L"
       id="text102245"
       style="font-size:4.23333px;font-family:Roboto;-inkscape-font-specification:Roboto;fill:#262339;stroke-width:0.529167;stroke-linecap:round"><path
         d="m 135.53073,31.158978 h -1.91616 l 0.0455,-0.291455 1.11001,-1.079003 0.20257,-0.200505 q 0.34933,-0.349332 0.38654,-0.644921 0.0269,-0.227376 -0.0889,-0.370003 -0.11576,-0.144694 -0.3266,-0.152962 -0.27078,-0.0083 -0.45268,0.159163 -0.18191,0.165365 -0.22118,0.454752 l -0.37,0.0021 q 0.0269,-0.276985 0.1695,-0.489892 0.14469,-0.214973 0.37827,-0.328662 0.23564,-0.115755 0.51056,-0.109553 0.37414,0.0083 0.59325,0.227376 0.22117,0.21704 0.19016,0.564306 -0.0351,0.396874 -0.45681,0.83509 l -0.19017,0.192236 -0.96739,0.91984 h 1.45314 z"
         style="font-style:italic;-inkscape-font-specification:'Roboto Italic'"
         id="path1895" /><path
         d="m 136.46298,30.83445 h 1.38492 l -0.0579,0.324528 h -1.77354 l 0.52297,-3.009633 h 0.39067 z"
         style="font-style:italic;-inkscape-font-specification:'Roboto Italic'"
         id="path1897" /></g><g
       aria-label="sub"
       id="text122830"
       style="font-size:4.23333px;font-family:Roboto;-inkscape-font-specification:Roboto;fill:#262339;stroke-width:0.529167;stroke-linecap:round"><path
         d="m 5.3876627,62.50988 q -0.2563149,0 -0.411344,0.09715 -0.1529621,0.09715 -0.1736327,0.28112 -0.018603,0.152962 0.1095539,0.248046 0.1281575,0.09508 0.3472654,0.101286 0.2211749,0.0041 0.3948076,-0.10542 0.1736327,-0.111621 0.2087726,-0.291455 l 0.3741371,-0.0021 q -0.033073,0.32663 -0.3100584,0.520933 -0.2769854,0.192236 -0.6821283,0.181901 -0.2873207,-0.0041 -0.5022945,-0.115755 -0.3389971,-0.177767 -0.3183266,-0.535367 0.020671,-0.380339 0.4981604,-0.549837 -0.1364256,-0.07028 -0.2170408,-0.190169 -0.078548,-0.119889 -0.07028,-0.258382 0.012402,-0.287321 0.2377114,-0.465088 0.225309,-0.179834 0.6139155,-0.200504 l 0.093018,-0.0021 q 0.3596677,0.01033 0.5787755,0.192236 0.221175,0.181901 0.2149738,0.473356 l -0.3679359,-0.0021 q 0.00413,-0.155029 -0.1157551,-0.250114 -0.1178221,-0.09715 -0.3224606,-0.103353 -0.223242,0 -0.3803383,0.09508 -0.1570962,0.09302 -0.1819009,0.260449 -0.039274,0.30179 0.3906735,0.314192 l 0.4382158,0.0021 -0.05581,0.305924 z"
         style="font-style:italic;-inkscape-font-specification:'Roboto Italic'"
         id="path1886" /><path
         d="m 7.4953359,63.952995 q 0.020154,-0.150481 -0.1652611,-0.212286 l -0.2525942,-0.0739 q -0.3197735,-0.110174 -0.3090248,-0.365455 0.00941,-0.192133 0.1746662,-0.314399 0.1666047,-0.12361 0.3909835,-0.120923 0.2203481,0.0027 0.3573939,0.128984 0.1383894,0.124954 0.133015,0.326492 l -0.2418455,-0.0013 q 0.00269,-0.10883 -0.068523,-0.177353 -0.07121,-0.06852 -0.1894457,-0.07121 -0.1262971,-0.0027 -0.2176609,0.0618 -0.084646,0.06046 -0.098082,0.158543 -0.017467,0.126297 0.1545124,0.184071 l 0.1222663,0.03359 q 0.249907,0.06449 0.3547067,0.167948 0.1047998,0.103456 0.096738,0.256625 -0.00806,0.135702 -0.088677,0.236471 -0.080615,0.100769 -0.2149738,0.154513 -0.1343586,0.0524 -0.2861838,0.04837 Q 6.9162503,64.370851 6.7657686,64.239179 6.615287,64.106164 6.6206614,63.897908 l 0.243189,0.0013 q 0,0.122266 0.077928,0.196163 0.077928,0.0739 0.2136302,0.0739 0.133015,0.0027 0.2297532,-0.05509 0.096738,-0.05912 0.1101741,-0.161231 z"
         style="font-size:65%;baseline-shift:sub"
         id="path1888" /><path
         d="M 8.9074447,64.202902 Q 8.7368093,64.378912 8.4734665,64.373538 8.2652106,64.368163 8.1644417,64.2244 8.0650163,64.080636 8.0905444,63.832073 l 0.155856,-0.939167 h 0.2431891 l -0.1571996,0.943197 q -0.00672,0.05912 -0.00269,0.115549 0.00672,0.09674 0.057774,0.151825 0.051056,0.05509 0.1424202,0.05912 0.2606557,0.0081 0.4030758,-0.210943 l 0.1827277,-1.058746 h 0.243189 l -0.2525941,1.45376 H 8.8765423 Z"
         style="font-size:65%;baseline-shift:sub"
         id="path1890" /><path
         d="m 10.788465,63.626504 q -0.02687,0.223035 -0.122266,0.401732 -0.09539,0.178697 -0.231097,0.264687 -0.135702,0.08599 -0.300963,0.08196 -0.2633431,-0.0054 -0.3909838,-0.197507 l -0.049713,0.169292 H 9.4690637 l 0.3587374,-2.06375 H 10.07099 l -0.1464507,0.771218 q 0.1746667,-0.193476 0.4245737,-0.188102 0.209599,0.0054 0.326491,0.154513 0.116892,0.149138 0.12361,0.411137 0.0013,0.08599 -0.0081,0.166605 z m -0.231097,-0.141077 q 0.004,-0.196163 -0.06583,-0.299619 -0.06987,-0.1048 -0.213631,-0.110174 -0.227066,-0.0054 -0.3842651,0.228409 l -0.1088305,0.632829 q 0.080615,0.221692 0.3023066,0.227066 0.14242,0.0054 0.248564,-0.08465 0.107487,-0.09002 0.162574,-0.25125 0.05509,-0.162574 0.05912,-0.342615 z"
         style="font-size:65%;baseline-shift:sub"
         id="path1892" /></g><g
       aria-label="env"
       id="text122836"
       style="font-size:4.23333px;font-family:Roboto;-inkscape-font-specification:Roboto;fill:#262339;stroke-width:0.529167;stroke-linecap:round"><path
         d="m 5.3876627,55.895295 q -0.2563149,0 -0.411344,0.09715 -0.1529621,0.09715 -0.1736327,0.28112 -0.018603,0.152962 0.1095539,0.248046 0.1281575,0.09509 0.3472654,0.101286 0.2211749,0.0041 0.3948076,-0.10542 0.1736327,-0.111621 0.2087726,-0.291455 l 0.3741371,-0.0021 Q 6.2041497,56.550551 5.9271642,56.744854 5.6501788,56.937091 5.2450359,56.926755 4.9577152,56.922621 4.7427414,56.811 4.4037443,56.633233 4.4244148,56.275633 q 0.020671,-0.380338 0.4981604,-0.549837 -0.1364256,-0.07028 -0.2170408,-0.190169 -0.078548,-0.119889 -0.07028,-0.258382 0.012402,-0.287321 0.2377114,-0.465088 0.225309,-0.179833 0.6139155,-0.200504 l 0.093018,-0.0021 q 0.3596677,0.01033 0.5787755,0.192236 0.221175,0.181901 0.2149738,0.473356 l -0.3679359,-0.0021 q 0.00413,-0.155029 -0.1157551,-0.250114 -0.1178221,-0.09715 -0.3224606,-0.103353 -0.223242,0 -0.3803383,0.09509 -0.1570962,0.09302 -0.1819009,0.260449 -0.039274,0.30179 0.3906735,0.314192 l 0.4382158,0.0021 -0.05581,0.305925 z"
         style="font-style:italic;-inkscape-font-specification:'Roboto Italic'"
         id="path1877" /><path
         d="M 7.2239315,57.758952 Q 6.9525271,57.753577 6.7993583,57.558758 6.6461895,57.363938 6.670374,57.060287 l 0.00672,-0.05777 q 0.022841,-0.216317 0.1276406,-0.395014 0.1061433,-0.178697 0.2579686,-0.268718 0.1518252,-0.09136 0.3278349,-0.08733 0.2243789,0.0054 0.3520196,0.149138 0.1276407,0.143764 0.1397329,0.38964 0.00403,0.08733 -0.00537,0.174666 l -0.01478,0.111518 H 6.9122195 q -0.024184,0.197507 0.064492,0.335897 0.09002,0.138389 0.2673736,0.143763 0.2149737,0.0054 0.3977014,-0.193476 l 0.139733,0.118236 q -0.091364,0.131671 -0.2364712,0.206912 -0.1437637,0.0739 -0.321117,0.07121 z M 7.3784439,56.45433 q -0.1504817,-0.004 -0.2633429,0.102112 -0.1115176,0.106144 -0.1773533,0.315743 l 0.7067262,0.0013 0.00537,-0.0215 Q 7.6713456,56.682739 7.5947612,56.571222 7.5195204,56.458361 7.3784439,56.45433 Z"
         style="font-size:65%;baseline-shift:sub"
         id="path1879" /><path
         d="m 8.5043691,56.276976 -0.034933,0.184072 q 0.1961636,-0.214974 0.4460706,-0.2096 0.2055686,0.0054 0.3036504,0.14242 0.098082,0.137046 0.072554,0.38561 L 9.1331673,57.73208 H 8.8899783 L 9.049865,56.775447 q 0.00806,-0.06584 0.00134,-0.122266 -0.022841,-0.188103 -0.2216917,-0.192133 -0.2190045,-0.004 -0.3842656,0.233784 L 8.2652108,57.73208 H 8.0220217 l 0.2525942,-1.45376 z"
         style="font-size:65%;baseline-shift:sub"
         id="path1881" /><path
         d="m 10.036057,57.392153 0.523999,-1.113833 h 0.256625 l -0.732255,1.45376 H 9.8990115 L 9.6141712,56.27832 h 0.2391584 z"
         style="font-size:65%;baseline-shift:sub"
         id="path1883" /></g></g></svg>
