<?xml version="1.0" encoding="UTF-8" standalone="no"?>
<svg
   fill="none"
   fill-rule="evenodd"
   stroke="black"
   stroke-width="0.501"
   stroke-linejoin="bevel"
   stroke-miterlimit="10"
   font-family="Times New Roman"
   font-size="16"
   style="font-variant-ligatures:none"
   version="1.1"
   overflow="visible"
   width="255.845pt"
   height="123.322pt"
   viewBox="0 -123.322 255.845 123.322"
   id="svg33"
   sodipodi:docname="pysnom_logo_working.svg"
   inkscape:version="1.2 (dc2aedaf03, 2022-05-15)"
   xmlns:inkscape="http://www.inkscape.org/namespaces/inkscape"
   xmlns:sodipodi="http://sodipodi.sourceforge.net/DTD/sodipodi-0.dtd"
   xmlns:xlink="http://www.w3.org/1999/xlink"
   xmlns="http://www.w3.org/2000/svg"
   xmlns:svg="http://www.w3.org/2000/svg"
   xmlns:rdf="http://www.w3.org/1999/02/22-rdf-syntax-ns#"
   xmlns:cc="http://creativecommons.org/ns#"
   xmlns:dc="http://purl.org/dc/elements/1.1/">
  <metadata
     id="metadata7">
    <rdf:RDF>
      <cc:Work
         rdf:about="">
        <dc:format>image/svg+xml</dc:format>
        <dc:type
           rdf:resource="http://purl.org/dc/dcmitype/StillImage" />
        <dc:title />
      </cc:Work>
    </rdf:RDF>
  </metadata>
  <sodipodi:namedview
     id="namedview35"
     pagecolor="#ffffff"
     bordercolor="#000000"
     borderopacity="0.25"
     inkscape:showpageshadow="2"
     inkscape:pageopacity="0.0"
     inkscape:pagecheckerboard="0"
     inkscape:deskcolor="#d1d1d1"
     inkscape:document-units="pt"
     showgrid="false"
     inkscape:zoom="2.8284271"
     inkscape:cx="250.49258"
     inkscape:cy="20.682874"
     inkscape:window-width="2400"
     inkscape:window-height="1271"
     inkscape:window-x="-9"
     inkscape:window-y="-9"
     inkscape:window-maximized="1"
     inkscape:current-layer="svg33"
     inkscape:document-rotation="0"
     inkscape:snap-bbox="true"
     inkscape:bbox-nodes="true"
     inkscape:snap-bbox-midpoints="true" />
  <defs
     id="defs2">
    <linearGradient
       inkscape:collect="always"
       id="linearGradient2365">
      <stop
         style="stop-color:#9e0142;stop-opacity:1;"
         offset="0"
         id="stop2361" />
      <stop
         style="stop-color:#d53e4f;stop-opacity:1;"
         offset="0.10298508"
         id="stop2369" />
      <stop
         style="stop-color:#f46d43;stop-opacity:1;"
         offset="0.2119403"
         id="stop2373" />
      <stop
         style="stop-color:#fdae61;stop-opacity:1;"
         offset="0.3044776"
         id="stop2371" />
      <stop
         style="stop-color:#fee08b;stop-opacity:1;"
         offset="0.40298507"
         id="stop2375" />
      <stop
         style="stop-color:#ffffbf;stop-opacity:1;"
         offset="0.5"
         id="stop2377" />
      <stop
         style="stop-color:#e6f598;stop-opacity:1;"
         offset="0.60000002"
         id="stop2379" />
      <stop
         style="stop-color:#abdda4;stop-opacity:1;"
         offset="0.69552237"
         id="stop2381" />
      <stop
         style="stop-color:#66c2a5;stop-opacity:1;"
         offset="0.80000001"
         id="stop2383" />
      <stop
         style="stop-color:#3288bd;stop-opacity:1;"
         offset="0.89999998"
         id="stop2385" />
      <stop
         style="stop-color:#5e4fa2;stop-opacity:1;"
         offset="1"
         id="stop2363" />
    </linearGradient>
    <rect
       x="129.93087"
       y="-198.89404"
       width="139.47681"
       height="71.594561"
       id="rect1234" />
    <rect
       x="206.70872"
       y="-153.84778"
       width="47.874863"
       height="34.768423"
       id="rect1228" />
    <filter
       style="color-interpolation-filters:sRGB;"
       inkscape:label="Blur"
       id="filter1140">
      <feGaussianBlur
         stdDeviation="1 1"
         result="blur"
         id="feGaussianBlur1138" />
    </filter>
    <filter
       style="color-interpolation-filters:sRGB;"
       inkscape:label="Blur"
       id="filter1144">
      <feGaussianBlur
         stdDeviation="1 1"
         result="blur"
         id="feGaussianBlur1142" />
    </filter>
    <filter
       style="color-interpolation-filters:sRGB;"
       inkscape:label="Blur"
       id="filter1148">
      <feGaussianBlur
         stdDeviation="1 1"
         result="blur"
         id="feGaussianBlur1146" />
    </filter>
    <filter
       style="color-interpolation-filters:sRGB;"
       inkscape:label="Blur"
       id="filter1152">
      <feGaussianBlur
         stdDeviation="1 1"
         result="blur"
         id="feGaussianBlur1150" />
    </filter>
    <filter
       style="color-interpolation-filters:sRGB;"
       inkscape:label="Blur"
       id="filter1368">
      <feGaussianBlur
         stdDeviation="2 2"
         result="blur"
         id="feGaussianBlur1366" />
    </filter>
    <linearGradient
       inkscape:collect="always"
       xlink:href="#linearGradient2365"
       id="linearGradient2367"
       x1="28.93565"
       y1="-46.760863"
       x2="219.69638"
       y2="-46.760863"
       gradientUnits="userSpaceOnUse" />
  </defs>
  <path
     d="m 183.01769,-85.739653 0.13672,3.28125 q 3.25391,-3.828125 8.77735,-3.828125 6.20703,0 8.44922,4.757812 1.47656,-2.132812 3.82812,-3.445312 2.37891,-1.3125 5.60547,-1.3125 9.73437,0 9.89844,10.308593 v 19.824219 h -5.0586 v -19.523437 q 0,-3.171875 -1.44922,-4.730469 -1.44921,-1.585938 -4.86718,-1.585938 -2.81641,0 -4.67578,1.695313 -1.85938,1.667969 -2.16016,4.511719 v 19.632812 h -5.08594 v -19.386719 q 0,-6.453125 -6.3164,-6.453125 -4.97657,0 -6.8086,4.238282 v 21.601562 h -5.05859 v -29.585937 z"
     style="font-style:normal;font-variant:normal;font-weight:normal;font-stretch:normal;font-size:56px;line-height:1.25;font-family:Roboto;-inkscape-font-specification:Roboto;fill:#000000;fill-opacity:1;stroke:none;stroke-width:0.37575"
     id="path1507" />
  <path
     id="rect1540"
     style="fill:#5e4fa2;fill-opacity:1;stroke:none;stroke-width:0.5295;stroke-miterlimit:10;stroke-dasharray:none"
     d="m 204.24813,-54.229232 c 0,0 7.84689,4.141116 11.76289,3.091828 3.91601,-1.04929 8.64105,-8.559046 8.64105,-8.559046 0,0 -4.14112,7.846889 -3.09183,11.762896 1.04929,3.916011 8.55907,8.64106 8.55907,8.64106 0,0 -7.84689,-4.141116 -11.76289,-3.091828 -3.91601,1.04929 -8.64105,8.559046 -8.64105,8.559046 0,0 4.14112,-7.846889 3.09183,-11.762896 -1.04929,-3.916011 -8.55907,-8.64106 -8.55907,-8.64106 z"
     sodipodi:nodetypes="cacacacac" />
  <text
     xml:space="preserve"
     style="font-style:normal;font-variant:normal;font-weight:normal;font-stretch:normal;font-size:56px;line-height:1.25;font-family:Roboto;-inkscape-font-specification:Roboto;fill:#262339;fill-opacity:1;stroke:none;stroke-width:0.37575"
     x="25.107542"
     y="-56.153717"
     id="text1195"><tspan
       sodipodi:role="line"
       id="tspan1193"
       x="25.107542"
       y="-56.153717"
       style="font-style:normal;font-variant:normal;font-weight:normal;font-stretch:normal;font-size:56px;font-family:Roboto;-inkscape-font-specification:Roboto;fill:#262339;stroke-width:0.37575;fill-opacity:1">pysnom</tspan></text>
  <path
     style="fill:#ffffff;fill-opacity:1;stroke:none;stroke-width:0.543232;stroke-miterlimit:10;stroke-dasharray:none"
     sodipodi:type="inkscape:offset"
     inkscape:radius="0.67578071"
     inkscape:original="M 28.935547 -48.744141 L 28.935547 -44.777344 L 217.17578 -44.777344 A 2.5213132 1.9825003 0 0 0 219.69727 -46.761719 A 2.5213132 1.9825003 0 0 0 217.17578 -48.744141 L 217.11719 -48.744141 L 28.935547 -48.744141 z "
     xlink:href="#rect1473"
     id="path1545"
     inkscape:href="#rect1473"
     d="m 28.814453,-47.136719 a 0.67584829,0.67584829 0 0 0 -0.675781,0.675781 v 3.964844 a 0.67584829,0.67584829 0 0 0 0.675781,0.675782 H 217.05273 c 0.79971,4.4e-5 1.59911,-0.252748 2.20118,-0.726563 0.60206,-0.473815 0.99699,-1.189093 0.99609,-1.933594 -9.7e-4,-0.743567 -0.39624,-1.458959 -0.99805,-1.93164 -0.6018,-0.472682 -1.40051,-0.724654 -2.19922,-0.72461 h -0.0586 z" />
  <path
     id="rect1473"
     style="fill:url(#linearGradient2367);fill-opacity:1;stroke:none;stroke-width:0.407424;stroke-miterlimit:10;stroke-dasharray:none"
     d="m 28.93565,-48.743529 v 3.965332 h 188.23974 a 2.5213132,1.9825003 0 0 0 2.52099,-1.983398 2.5213132,1.9825003 0 0 0 -2.52099,-1.981934 h -0.0586 z" />
  <path
     style="font-style:normal;font-variant:normal;font-weight:normal;font-stretch:normal;font-size:56px;line-height:1.25;font-family:Roboto;-inkscape-font-specification:Roboto;fill:#ffffff;fill-opacity:1;stroke:none;stroke-width:0.501"
     sodipodi:type="inkscape:offset"
     inkscape:radius="3.2108977"
     inkscape:original="M 42.388672 -86.285156 C 38.724609 -86.285156 35.86263 -85.011068 33.802734 -82.458984 L 33.556641 -85.740234 L 28.935547 -85.740234 L 28.935547 -44.777344 L 33.994141 -44.777344 L 33.994141 -59.025391 C 36.054037 -56.746745 38.879557 -55.605469 42.470703 -55.605469 C 45.988932 -55.605469 48.777996 -56.983724 50.837891 -59.736328 C 52.897788 -62.488932 53.927734 -66.114583 53.927734 -70.617188 L 53.927734 -71.083984 C 53.927734 -75.860026 52.888672 -79.585937 50.810547 -82.265625 C 48.750651 -84.945312 45.943359 -86.285156 42.388672 -86.285156 z M 56.826172 -85.740234 L 67.380859 -56.482422 L 66.259766 -53.472656 C 65.639974 -51.63151 64.847005 -50.366535 63.880859 -49.673828 C 62.932942 -48.981113 61.602213 -48.632813 59.888672 -48.632812 L 58.521484 -48.744141 L 58.521484 -44.642578 L 60.408203 -44.285156 L 61.365234 -44.203125 C 65.375651 -44.203125 68.301432 -46.664064 70.142578 -51.585938 L 82.037109 -85.740234 L 76.623047 -85.740234 L 69.732422 -63.5625 L 62.349609 -85.740234 L 56.826172 -85.740234 z M 40.884766 -81.994141 C 43.363933 -81.994141 45.314452 -81.027995 46.736328 -79.095703 C 48.158203 -77.163412 48.869141 -74.527344 48.869141 -71.191406 C 48.869141 -67.399739 48.149088 -64.539713 46.708984 -62.607422 C 45.287109 -60.693359 43.363932 -59.736328 40.939453 -59.736328 C 37.822265 -59.736328 35.507162 -61.085286 33.994141 -63.783203 L 33.994141 -77.917969 C 35.525391 -80.634114 37.822266 -81.994141 40.884766 -81.994141 z "
     xlink:href="#path1453"
     id="path1476"
     inkscape:href="#path1453"
     d="m 42.267578,-87.214844 c -2.350998,0 -4.573739,0.532213 -6.55664,1.492188 a 3.2112188,3.2112188 0 0 0 -2.275391,-0.945313 h -4.621094 a 3.2112188,3.2112188 0 0 0 -3.210937,3.210938 v 40.960937 a 3.2112188,3.2112188 0 0 0 3.210937,3.210938 h 5.056641 a 3.2112188,3.2112188 0 0 0 3.210937,-3.210938 v -8.523437 c 1.648487,0.566548 3.410549,0.90625 5.267578,0.90625 4.355614,0 8.350832,-1.962104 10.935547,-5.416016 2.56309,-3.425011 3.730468,-7.814387 3.730469,-12.806641 v -0.466796 c 0,-2.270195 -0.261993,-4.368782 -0.720703,-6.332032 l 7.542969,20.916016 -0.708985,1.908203 a 3.2112188,3.2112188 0 0 0 -0.0332,0.0957 c -0.496821,1.47585 -1.069415,2.112823 -1.208984,2.212891 a 3.2112188,3.2112188 0 0 0 -0.02344,0.01758 c -0.204082,0.149138 -0.826062,0.404748 -2.058593,0.414063 l -1.150391,-0.0918 a 3.2112188,3.2112188 0 0 0 -3.466797,3.201171 v 4.101563 a 3.2112188,3.2112188 0 0 0 2.617188,3.15625 l 1.886718,0.355469 a 3.2112188,3.2112188 0 0 0 0.320313,0.04297 l 0.958984,0.08203 a 3.2112188,3.2112188 0 0 0 0.273438,0.01172 c 2.661983,0 5.253576,-0.903945 7.269531,-2.599609 2.015955,-1.695664 3.461031,-4.049929 4.515625,-6.869141 a 3.2112188,3.2112188 0 0 0 0.02539,-0.06836 l 11.894531,-34.152344 a 3.2112188,3.2112188 0 0 0 -3.033203,-4.267578 h -5.414063 a 3.2112188,3.2112188 0 0 0 -3.066406,2.257813 l -3.929688,12.646484 -4.230468,-12.707031 a 3.2112188,3.2112188 0 0 0 -3.046875,-2.197266 h -5.523438 a 3.2112188,3.2112188 0 0 0 -3.019531,4.300781 l 1,2.773438 c -0.431256,-0.824306 -0.892641,-1.625214 -1.457031,-2.353516 -2.603298,-3.382942 -6.601808,-5.267578 -10.960938,-5.267578 z m -1.505859,10.712891 c 1.643277,0 2.373907,0.377322 3.267578,1.591797 0.898257,1.220708 1.505859,3.119002 1.505859,6 0,3.385159 -0.684677,5.542543 -1.523437,6.667968 a 3.2112188,3.2112188 0 0 0 -0.0039,0.0039 c -0.901756,1.213902 -1.609947,1.574218 -3.189453,1.574219 -1.917036,0 -2.827537,-0.57237 -3.736328,-1.933594 v -11.947266 c 0.926084,-1.386472 1.831376,-1.957031 3.679688,-1.957031 z" />
  <path
     id="path1453"
     style="font-style:normal;font-variant:normal;font-weight:normal;font-stretch:normal;font-size:56px;line-height:1.25;font-family:Roboto;-inkscape-font-specification:Roboto;fill:#9e0142;fill-opacity:1;stroke:none;stroke-width:0.37575"
     d="m 42.388775,-86.286011 c -3.664063,0 -6.525554,1.275553 -8.58545,3.827637 l -0.246094,-3.28125 H 28.93565 v 40.961427 h 5.058105 v -14.247072 c 2.059896,2.278646 4.885905,3.418945 8.477051,3.418945 3.518229,0 6.307292,-1.37679 8.367187,-4.129394 2.059897,-2.752604 3.089356,-6.37972 3.089356,-10.882324 v -0.465821 c 0,-4.776042 -1.039063,-8.502929 -3.117188,-11.182617 -2.059896,-2.679687 -4.866699,-4.019531 -8.421386,-4.019531 z m 14.4375,0.546387 10.554199,29.257324 -1.120605,3.008789 c -0.619792,1.841146 -1.412761,3.107094 -2.378907,3.799801 -0.947917,0.692715 -2.278158,1.040041 -3.991699,1.040041 l -1.368164,-0.10986 v 4.101562 l 1.886718,0.355957 0.958008,0.08203 c 4.010417,0 6.936198,-2.460937 8.777344,-7.38281 L 82.037698,-85.739622 H 76.623636 L 69.733013,-63.563353 62.3502,-85.739622 Z m -15.941895,3.745605 c 2.479167,0 4.430175,0.966634 5.852051,2.898926 1.421875,1.932291 2.132812,4.566894 2.132812,7.902832 0,3.791667 -0.72054,6.653158 -2.160644,8.585449 -1.421875,1.914063 -3.344076,2.871094 -5.768555,2.871094 -3.117188,0 -5.433268,-1.349446 -6.946289,-4.047363 v -14.135743 c 1.53125,-2.716145 3.828125,-4.075195 6.890625,-4.075195 z"
     sodipodi:nodetypes="sccccccsssscscccccccccccccccssscsccs" />
</svg>
