<?xml version="1.0" encoding="UTF-8" standalone="no"?>
<svg
   xmlns:dc="http://purl.org/dc/elements/1.1/"
   xmlns:cc="http://creativecommons.org/ns#"
   xmlns:rdf="http://www.w3.org/1999/02/22-rdf-syntax-ns#"
   xmlns:svg="http://www.w3.org/2000/svg"
   xmlns="http://www.w3.org/2000/svg"
   xmlns:xlink="http://www.w3.org/1999/xlink"
   xmlns:sodipodi="http://sodipodi.sourceforge.net/DTD/sodipodi-0.dtd"
   xmlns:inkscape="http://www.inkscape.org/namespaces/inkscape"
   fill="none"
   fill-rule="evenodd"
   stroke="black"
   stroke-width="0.501"
   stroke-linejoin="bevel"
   stroke-miterlimit="10"
   font-family="Times New Roman"
   font-size="16"
   style="font-variant-ligatures:none"
   version="1.1"
   overflow="visible"
   width="255.845pt"
   height="123.322pt"
   viewBox="0 -123.322 255.845 123.322"
   id="svg33"
   sodipodi:docname="pysnom_logo.svg"
   inkscape:version="1.0.2-2 (e86c870879, 2021-01-15)">
  <metadata
     id="metadata7">
    <rdf:RDF>
      <cc:Work
         rdf:about="">
        <dc:format>image/svg+xml</dc:format>
        <dc:type
           rdf:resource="http://purl.org/dc/dcmitype/StillImage" />
      </cc:Work>
    </rdf:RDF>
  </metadata>
  <sodipodi:namedview
     id="namedview35"
     pagecolor="#ffffff"
     bordercolor="#000000"
     borderopacity="0.25"
     inkscape:showpageshadow="2"
     inkscape:pageopacity="0.0"
     inkscape:pagecheckerboard="0"
     inkscape:deskcolor="#d1d1d1"
     inkscape:document-units="pt"
     showgrid="false"
     inkscape:zoom="2.8284271"
     inkscape:cx="250.49258"
     inkscape:cy="20.682874"
     inkscape:window-width="2560"
     inkscape:window-height="1508"
     inkscape:window-x="-12"
     inkscape:window-y="-12"
     inkscape:window-maximized="1"
     inkscape:current-layer="svg33"
     inkscape:document-rotation="0"
     inkscape:snap-bbox="true"
     inkscape:bbox-nodes="true"
     inkscape:snap-bbox-midpoints="true" />
  <defs
     id="defs2">
    <linearGradient
       inkscape:collect="always"
       id="linearGradient2365">
      <stop
         style="stop-color:#9e0142;stop-opacity:1;"
         offset="0"
         id="stop2361" />
      <stop
         style="stop-color:#d53e4f;stop-opacity:1;"
         offset="0.10298508"
         id="stop2369" />
      <stop
         style="stop-color:#f46d43;stop-opacity:1;"
         offset="0.2119403"
         id="stop2373" />
      <stop
         style="stop-color:#fdae61;stop-opacity:1;"
         offset="0.3044776"
         id="stop2371" />
      <stop
         style="stop-color:#fee08b;stop-opacity:1;"
         offset="0.40298507"
         id="stop2375" />
      <stop
         style="stop-color:#ffffbf;stop-opacity:1;"
         offset="0.5"
         id="stop2377" />
      <stop
         style="stop-color:#e6f598;stop-opacity:1;"
         offset="0.60000002"
         id="stop2379" />
      <stop
         style="stop-color:#abdda4;stop-opacity:1;"
         offset="0.69552237"
         id="stop2381" />
      <stop
         style="stop-color:#66c2a5;stop-opacity:1;"
         offset="0.80000001"
         id="stop2383" />
      <stop
         style="stop-color:#3288bd;stop-opacity:1;"
         offset="0.89999998"
         id="stop2385" />
      <stop
         style="stop-color:#5e4fa2;stop-opacity:1;"
         offset="1"
         id="stop2363" />
    </linearGradient>
    <rect
       x="129.93087"
       y="-198.89404"
       width="139.47681"
       height="71.594561"
       id="rect1234" />
    <rect
       x="206.70872"
       y="-153.84778"
       width="47.874863"
       height="34.768423"
       id="rect1228" />
    <filter
       style="color-interpolation-filters:sRGB;"
       inkscape:label="Blur"
       id="filter1140">
      <feGaussianBlur
         stdDeviation="1 1"
         result="blur"
         id="feGaussianBlur1138" />
    </filter>
    <filter
       style="color-interpolation-filters:sRGB;"
       inkscape:label="Blur"
       id="filter1144">
      <feGaussianBlur
         stdDeviation="1 1"
         result="blur"
         id="feGaussianBlur1142" />
    </filter>
    <filter
       style="color-interpolation-filters:sRGB;"
       inkscape:label="Blur"
       id="filter1148">
      <feGaussianBlur
         stdDeviation="1 1"
         result="blur"
         id="feGaussianBlur1146" />
    </filter>
    <filter
       style="color-interpolation-filters:sRGB;"
       inkscape:label="Blur"
       id="filter1152">
      <feGaussianBlur
         stdDeviation="1 1"
         result="blur"
         id="feGaussianBlur1150" />
    </filter>
    <filter
       style="color-interpolation-filters:sRGB;"
       inkscape:label="Blur"
       id="filter1368">
      <feGaussianBlur
         stdDeviation="2 2"
         result="blur"
         id="feGaussianBlur1366" />
    </filter>
    <mask
       maskUnits="userSpaceOnUse"
       id="mask874">
      <rect
         style="fill:#00ffff;stroke-width:0.376;stroke-miterlimit:10"
         id="rect876"
         width="72.65522"
         height="50.381363"
         x="85.648308"
         y="-226.47121" />
    </mask>
    <linearGradient
       inkscape:collect="always"
       xlink:href="#linearGradient2365"
       id="linearGradient905"
       gradientUnits="userSpaceOnUse"
       x1="28.93565"
       y1="-46.760863"
       x2="219.69638"
       y2="-46.760863"
       gradientTransform="matrix(1.3333333,0,0,1.3333333,0,164.42933)" />
  </defs>
  <g
     aria-label="pysnom"
     id="text1195"
     style="font-size:56px;line-height:1.25;font-family:Roboto;-inkscape-font-specification:Roboto;display:inline;fill:#262339;stroke:none;stroke-width:0.37575">
    <path
       d="m 53.927855,-70.618561 q 0,6.753906 -3.089844,10.882813 -3.089844,4.128906 -8.367188,4.128906 -5.386718,0 -8.476562,-3.417969 v 14.246094 h -5.058594 v -40.960938 h 4.621094 l 0.246094,3.28125 q 3.089843,-3.828125 8.585937,-3.828125 5.332031,0 8.421875,4.019532 3.117188,4.019531 3.117188,11.183593 z m -5.058594,-0.574219 q 0,-5.003906 -2.132813,-7.902343 -2.132812,-2.898438 -5.851562,-2.898438 -4.59375,0 -6.890625,4.074219 v 14.136719 q 2.269531,4.046875 6.945312,4.046875 3.636719,0 5.769532,-2.871094 2.160156,-2.898438 2.160156,-8.585938 z"
       id="path11107" />
    <path
       d="m 69.732542,-63.563873 6.890625,-22.175782 h 5.414063 l -11.894532,34.152344 q -2.761718,7.382813 -8.777343,7.382813 l -0.957032,-0.08203 -1.886718,-0.355468 v -4.101563 l 1.367187,0.109375 q 2.570313,0 3.992188,-1.039062 1.449218,-1.039063 2.378906,-3.800782 L 67.38098,-56.48184 56.826292,-85.739653 h 5.523438 z"
       id="path11109" />
    <path
       d="m 103.77551,-64.001373 q 0,-2.050782 -1.55859,-3.171875 -1.53125,-1.148438 -5.386722,-1.96875 -3.828125,-0.820313 -6.097656,-1.96875 -2.242187,-1.148438 -3.335937,-2.734375 -1.066407,-1.585938 -1.066407,-3.773438 0,-3.636719 3.0625,-6.152344 3.089844,-2.515625 7.875,-2.515625 5.031252,0 8.148442,2.597657 3.14453,2.597656 3.14453,6.644531 h -5.08594 q 0,-2.078125 -1.77734,-3.582031 -1.750004,-1.503907 -4.429692,-1.503907 -2.761718,0 -4.320312,1.203125 -1.558594,1.203125 -1.558594,3.144532 0,1.832031 1.449219,2.761718 1.449219,0.929688 5.222656,1.777344 3.800783,0.847656 6.152343,2.023438 2.35156,1.175781 3.47266,2.84375 1.14843,1.640625 1.14843,4.019531 0,3.964844 -3.17187,6.371094 -3.17188,2.378906 -8.230469,2.378906 -3.554688,0 -6.289063,-1.257813 -2.734375,-1.257812 -4.292968,-3.5 -1.53125,-2.269531 -1.53125,-4.894531 h 5.058593 q 0.136719,2.542969 2.023438,4.046875 1.914062,1.476563 5.03125,1.476563 2.871089,0 4.593749,-1.148438 1.75,-1.175781 1.75,-3.117187 z"
       id="path11111" />
    <path
       d="m 120.2091,-85.739655 0.16407,3.71875 q 3.39062,-4.265625 8.85937,-4.265625 9.37891,0 9.46094,10.582032 v 19.550781 h -5.05859 v -19.578125 q -0.0274,-3.199219 -1.47657,-4.730469 -1.42187,-1.53125 -4.45703,-1.53125 -2.46094,0 -4.32031,1.3125 -1.85938,1.3125 -2.89844,3.445313 v 21.082031 h -5.05859 v -29.585938 z"
       id="path11113" />
    <path
       d="m 144.98254,-71.220123 q 0,-4.347657 1.69531,-7.820313 1.72266,-3.472656 4.75782,-5.359375 3.0625,-1.886719 6.97265,-1.886719 6.04297,0 9.76172,4.183594 3.7461,4.183594 3.7461,11.128906 v 0.355469 q 0,4.320313 -1.66797,7.765625 -1.64063,3.417969 -4.73047,5.332031 -3.0625,1.914063 -7.05469,1.914063 -6.01562,0 -9.76172,-4.183594 -3.71875,-4.183594 -3.71875,-11.074219 z m 5.08594,0.601562 q 0,4.921875 2.26953,7.902344 2.29688,2.980469 6.125,2.980469 3.85547,0 6.125,-3.007813 2.26953,-3.035156 2.26953,-8.476562 0,-4.867188 -2.32422,-7.875 -2.29687,-3.035157 -6.125,-3.035157 -3.74609,0 -6.04297,2.980469 -2.29687,2.980469 -2.29687,8.53125 z"
       id="path11115" />
    <path
       d="m 183.0177,-85.739655 0.13672,3.28125 q 3.2539,-3.828125 8.77734,-3.828125 6.20703,0 8.44922,4.757813 1.47656,-2.132813 3.82812,-3.445313 2.37891,-1.3125 5.60547,-1.3125 9.73438,0 9.89844,10.308594 v 19.824219 h -5.05859 v -19.523438 q 0,-3.171875 -1.44922,-4.730468 -1.44922,-1.585938 -4.86719,-1.585938 -2.81641,0 -4.67578,1.695313 -1.85938,1.667968 -2.16016,4.511718 v 19.632813 h -5.08593 v -19.386719 q 0,-6.453125 -6.31641,-6.453125 -4.97656,0 -6.80859,4.238281 v 21.601563 h -5.0586 v -29.585938 z"
       id="path11117" />
  </g>
  <path
     id="rect1540"
     mask="none"
     style="display:inline;fill:#5e4fa2;fill-opacity:1;stroke:none;stroke-width:0.706;stroke-miterlimit:10;stroke-dasharray:none"
     d="M 299.53516 84.833984 C 299.53516 84.833984 293.23697 94.84704 288.01562 96.246094 C 282.79429 97.645144 272.33008 92.123047 272.33008 92.123047 C 272.33008 92.123047 276.94937 95.033559 280.35156 98.535156 L 289.49023 98.535156 L 289.56836 98.535156 C 290.63397 98.535098 291.69938 98.870954 292.50195 99.501953 C 293.30454 100.13295 293.83002 101.08803 293.83008 102.08008 C 293.83126 103.07275 293.30471 104.02645 292.50195 104.6582 C 291.69921 105.28996 290.63464 105.62701 289.56836 105.62695 L 283.96094 105.62695 C 283.94112 111.13095 279.62109 119.32812 279.62109 119.32812 C 279.62109 119.32812 285.92123 109.31507 291.14258 107.91602 C 296.36391 106.51696 306.82617 112.03906 306.82617 112.03906 C 306.82617 112.03906 296.81312 105.73893 295.41406 100.51758 C 294.01501 95.296235 299.53516 84.833984 299.53516 84.833984 z "
     transform="matrix(0.75,0,0,0.75,0,-123.322)" />
  <path
     id="rect1473"
     style="display:inline;fill:url(#linearGradient905);fill-opacity:1;stroke:none;stroke-width:0.543232;stroke-miterlimit:10;stroke-dasharray:none"
     d="M 49.607422 99.4375 L 49.607422 104.72461 L 73.748047 104.72461 L 73.748047 99.4375 L 49.607422 99.4375 z M 96.564453 99.4375 C 95.624673 101.43882 94.496849 103.21686 93.134766 104.72461 L 289.56641 104.72461 A 3.3617509 2.6433337 0 0 0 292.92773 102.08008 A 3.3617509 2.6433337 0 0 0 289.56641 99.4375 L 289.48828 99.4375 L 96.564453 99.4375 z "
     transform="matrix(0.75,0,0,0.75,0,-123.322)" />
  <path
     id="path1453"
     style="font-style:normal;font-variant:normal;font-weight:normal;font-stretch:normal;font-size:56px;line-height:1.25;font-family:Roboto;-inkscape-font-specification:Roboto;display:inline;fill:#9e0142;fill-opacity:1;stroke:none;stroke-width:0.37575"
     d="m 42.388775,-86.286011 c -3.664063,0 -6.525554,1.275553 -8.58545,3.827637 l -0.246094,-3.28125 H 28.93565 v 40.961427 h 5.058105 v -14.247072 c 2.059896,2.278646 4.885905,3.418945 8.477051,3.418945 3.518229,0 6.307292,-1.37679 8.367187,-4.129394 2.059897,-2.752604 3.089356,-6.37972 3.089356,-10.882324 v -0.465821 c 0,-4.776042 -1.039063,-8.502929 -3.117188,-11.182617 -2.059896,-2.679687 -4.866699,-4.019531 -8.421386,-4.019531 z m 14.4375,0.546387 10.554199,29.257324 -1.120605,3.008789 c -0.619792,1.841146 -1.412761,3.107094 -2.378907,3.799801 -0.947917,0.692715 -2.278158,1.040041 -3.991699,1.040041 l -1.368164,-0.10986 v 4.101562 l 1.886718,0.355957 0.958008,0.08203 c 4.010417,0 6.936198,-2.460937 8.777344,-7.38281 L 82.037698,-85.739622 H 76.623636 L 69.733013,-63.563353 62.3502,-85.739622 Z m -15.941895,3.745605 c 2.479167,0 4.430175,0.966634 5.852051,2.898926 1.421875,1.932291 2.132812,4.566894 2.132812,7.902832 0,3.791667 -0.72054,6.653158 -2.160644,8.585449 -1.421875,1.914063 -3.344076,2.871094 -5.768555,2.871094 -3.117188,0 -5.433268,-1.349446 -6.946289,-4.047363 v -14.135743 c 1.53125,-2.716145 3.828125,-4.075195 6.890625,-4.075195 z"
     sodipodi:nodetypes="sccccccsssscscccccccccccccccssscsccs" />
</svg>
